<svg version="1.1" xmlns="http://www.w3.org/2000/svg" xmlns:xlink="http://www.w3.org/1999/xlink" width="800" height="800"><defs/><g transform="scale(2,2)"><g id="background-6f8d9fd8"><rect fill="white" stroke="none" x="0" y="0" width="400" height="400" class="dcg-svg-background"/></g><g id="background-images-6f8d9fd8"/><g id="graphpaper-6f8d9fd8"><g id="grid-6f8d9fd8"><g><path fill="none" stroke="rgb(0,0,0)" class="dcg-svg-minor-gridline" paint-order="fill stroke markers" d=" M 6.5 0 L 6.5 400" stroke-opacity="0.5" stroke-miterlimit="10" stroke-dasharray=""/><path fill="none" stroke="rgb(0,0,0)" class="dcg-svg-minor-gridline" paint-order="fill stroke markers" d=" M 32.5 0 L 32.5 400" stroke-opacity="0.5" stroke-miterlimit="10" stroke-dasharray=""/><path fill="none" stroke="rgb(0,0,0)" class="dcg-svg-minor-gridline" paint-order="fill stroke markers" d=" M 59.5 0 L 59.5 400" stroke-opacity="0.5" stroke-miterlimit="10" stroke-dasharray=""/><path fill="none" stroke="rgb(0,0,0)" class="dcg-svg-minor-gridline" paint-order="fill stroke markers" d=" M 85.5 0 L 85.5 400" stroke-opacity="0.5" stroke-miterlimit="10" stroke-dasharray=""/><path fill="none" stroke="rgb(0,0,0)" class="dcg-svg-minor-gridline" paint-order="fill stroke markers" d=" M 111.5 0 L 111.5 400" stroke-opacity="0.5" stroke-miterlimit="10" stroke-dasharray=""/><path fill="none" stroke="rgb(0,0,0)" class="dcg-svg-minor-gridline" paint-order="fill stroke markers" d=" M 138.5 0 L 138.5 400" stroke-opacity="0.5" stroke-miterlimit="10" stroke-dasharray=""/><path fill="none" stroke="rgb(0,0,0)" class="dcg-svg-minor-gridline" paint-order="fill stroke markers" d=" M 164.5 0 L 164.5 400" stroke-opacity="0.5" stroke-miterlimit="10" stroke-dasharray=""/><path fill="none" stroke="rgb(0,0,0)" class="dcg-svg-minor-gridline" paint-order="fill stroke markers" d=" M 217.5 0 L 217.5 400" stroke-opacity="0.5" stroke-miterlimit="10" stroke-dasharray=""/><path fill="none" stroke="rgb(0,0,0)" class="dcg-svg-minor-gridline" paint-order="fill stroke markers" d=" M 243.5 0 L 243.5 400" stroke-opacity="0.5" stroke-miterlimit="10" stroke-dasharray=""/><path fill="none" stroke="rgb(0,0,0)" class="dcg-svg-minor-gridline" paint-order="fill stroke markers" d=" M 270.5 0 L 270.5 400" stroke-opacity="0.5" stroke-miterlimit="10" stroke-dasharray=""/><path fill="none" stroke="rgb(0,0,0)" class="dcg-svg-minor-gridline" paint-order="fill stroke markers" d=" M 296.5 0 L 296.5 400" stroke-opacity="0.5" stroke-miterlimit="10" stroke-dasharray=""/><path fill="none" stroke="rgb(0,0,0)" class="dcg-svg-minor-gridline" paint-order="fill stroke markers" d=" M 322.5 0 L 322.5 400" stroke-opacity="0.5" stroke-miterlimit="10" stroke-dasharray=""/><path fill="none" stroke="rgb(0,0,0)" class="dcg-svg-minor-gridline" paint-order="fill stroke markers" d=" M 349.5 0 L 349.5 400" stroke-opacity="0.5" stroke-miterlimit="10" stroke-dasharray=""/><path fill="none" stroke="rgb(0,0,0)" class="dcg-svg-minor-gridline" paint-order="fill stroke markers" d=" M 375.5 0 L 375.5 400" stroke-opacity="0.5" stroke-miterlimit="10" stroke-dasharray=""/><path fill="none" stroke="rgb(0,0,0)" class="dcg-svg-minor-gridline" paint-order="fill stroke markers" d=" M 0 394.5 L 400 394.5" stroke-opacity="0.5" stroke-miterlimit="10" stroke-dasharray=""/><path fill="none" stroke="rgb(0,0,0)" class="dcg-svg-minor-gridline" paint-order="fill stroke markers" d=" M 0 367.5 L 400 367.5" stroke-opacity="0.5" stroke-miterlimit="10" stroke-dasharray=""/><path fill="none" stroke="rgb(0,0,0)" class="dcg-svg-minor-gridline" paint-order="fill stroke markers" d=" M 0 341.5 L 400 341.5" stroke-opacity="0.5" stroke-miterlimit="10" stroke-dasharray=""/><path fill="none" stroke="rgb(0,0,0)" class="dcg-svg-minor-gridline" paint-order="fill stroke markers" d=" M 0 314.5 L 400 314.5" stroke-opacity="0.5" stroke-miterlimit="10" stroke-dasharray=""/><path fill="none" stroke="rgb(0,0,0)" class="dcg-svg-minor-gridline" paint-order="fill stroke markers" d=" M 0 288.5 L 400 288.5" stroke-opacity="0.5" stroke-miterlimit="10" stroke-dasharray=""/><path fill="none" stroke="rgb(0,0,0)" class="dcg-svg-minor-gridline" paint-order="fill stroke markers" d=" M 0 262.5 L 400 262.5" stroke-opacity="0.5" stroke-miterlimit="10" stroke-dasharray=""/><path fill="none" stroke="rgb(0,0,0)" class="dcg-svg-minor-gridline" paint-order="fill stroke markers" d=" M 0 235.5 L 400 235.5" stroke-opacity="0.5" stroke-miterlimit="10" stroke-dasharray=""/><path fill="none" stroke="rgb(0,0,0)" class="dcg-svg-minor-gridline" paint-order="fill stroke markers" d=" M 0 183.5 L 400 183.5" stroke-opacity="0.5" stroke-miterlimit="10" stroke-dasharray=""/><path fill="none" stroke="rgb(0,0,0)" class="dcg-svg-minor-gridline" paint-order="fill stroke markers" d=" M 0 156.5 L 400 156.5" stroke-opacity="0.5" stroke-miterlimit="10" stroke-dasharray=""/><path fill="none" stroke="rgb(0,0,0)" class="dcg-svg-minor-gridline" paint-order="fill stroke markers" d=" M 0 130.5 L 400 130.5" stroke-opacity="0.5" stroke-miterlimit="10" stroke-dasharray=""/><path fill="none" stroke="rgb(0,0,0)" class="dcg-svg-minor-gridline" paint-order="fill stroke markers" d=" M 0 103.5 L 400 103.5" stroke-opacity="0.5" stroke-miterlimit="10" stroke-dasharray=""/><path fill="none" stroke="rgb(0,0,0)" class="dcg-svg-minor-gridline" paint-order="fill stroke markers" d=" M 0 77.5 L 400 77.5" stroke-opacity="0.5" stroke-miterlimit="10" stroke-dasharray=""/><path fill="none" stroke="rgb(0,0,0)" class="dcg-svg-minor-gridline" paint-order="fill stroke markers" d=" M 0 51.5 L 400 51.5" stroke-opacity="0.5" stroke-miterlimit="10" stroke-dasharray=""/><path fill="none" stroke="rgb(0,0,0)" class="dcg-svg-minor-gridline" paint-order="fill stroke markers" d=" M 0 24.5 L 400 24.5" stroke-opacity="0.5" stroke-miterlimit="10" stroke-dasharray=""/><path fill="none" stroke="rgb(0,0,0)" class="dcg-svg-major-gridline" paint-order="fill stroke markers" d=" M 85.5 0 L 85.5 400" stroke-opacity="1" stroke-miterlimit="10" stroke-dasharray=""/><path fill="none" stroke="rgb(0,0,0)" class="dcg-svg-major-gridline" paint-order="fill stroke markers" d=" M 296.5 0 L 296.5 400" stroke-opacity="1" stroke-miterlimit="10" stroke-dasharray=""/><path fill="none" stroke="rgb(0,0,0)" class="dcg-svg-major-gridline" paint-order="fill stroke markers" d=" M 0 315 L 400 315" stroke-opacity="1" stroke-miterlimit="10" stroke-dasharray=""/><path fill="none" stroke="rgb(0,0,0)" class="dcg-svg-major-gridline" paint-order="fill stroke markers" d=" M 0 104 L 400 104" stroke-opacity="1" stroke-miterlimit="10" stroke-dasharray=""/></g></g><g id="axis-6f8d9fd8"><g id="yaxis-6f8d9fd8"><title>Y axis</title><path fill="none" stroke="rgb(0,0,0)" class="dcg-svg-axis-line" paint-order="fill stroke markers" d=" M 191 0 L 191 400" stroke-opacity="0.9" stroke-miterlimit="10" stroke-width="2" stroke-dasharray=""/></g><g id="xaxis-6f8d9fd8"><title>X axis</title><path fill="none" stroke="rgb(0,0,0)" class="dcg-svg-axis-line" paint-order="fill stroke markers" d=" M 0 209 L 400 209" stroke-opacity="0.9" stroke-miterlimit="10" stroke-width="2" stroke-dasharray=""/></g><g><g class="dcg-svg-axis-value"><text fill="none" stroke="#ffffff" font-family="Arial" font-size="20px" font-style="normal" font-weight="normal" text-decoration="normal" x="180.38223024192317" y="229.86359085313097" text-anchor="middle" stroke-miterlimit="2" stroke-width="3" stroke-dasharray="">0</text><text fill="#000000" stroke="none" font-family="Arial" font-size="20px" font-style="normal" font-weight="normal" text-decoration="normal" x="180.38223024192317" y="229.86359085313097" text-anchor="middle">0</text></g><g class="dcg-svg-axis-value"><text fill="none" stroke="#ffffff" font-family="Arial" font-size="20px" font-style="normal" font-weight="normal" text-decoration="normal" x="82.09653565975924" y="229.86359085313097" text-anchor="middle" stroke-miterlimit="2" stroke-width="3" stroke-dasharray="">-2</text><text fill="#000000" stroke="none" font-family="Arial" font-size="20px" font-style="normal" font-weight="normal" text-decoration="normal" x="82.09653565975924" y="229.86359085313097" text-anchor="middle">-2</text></g><g class="dcg-svg-axis-value"><text fill="none" stroke="#ffffff" font-family="Arial" font-size="20px" font-style="normal" font-weight="normal" text-decoration="normal" x="296.4608935740871" y="229.86359085313097" text-anchor="middle" stroke-miterlimit="2" stroke-width="3" stroke-dasharray="">2</text><text fill="#000000" stroke="none" font-family="Arial" font-size="20px" font-style="normal" font-weight="normal" text-decoration="normal" x="296.4608935740871" y="229.86359085313097" text-anchor="middle">2</text></g><g class="dcg-svg-axis-value"><text fill="none" stroke="#ffffff" font-family="Arial" font-size="20px" font-style="normal" font-weight="normal" text-decoration="normal" x="177.05215211692317" y="320.38073074779487" text-anchor="middle" stroke-miterlimit="2" stroke-width="3" stroke-dasharray="">-2</text><text fill="#000000" stroke="none" font-family="Arial" font-size="20px" font-style="normal" font-weight="normal" text-decoration="normal" x="177.05215211692317" y="320.38073074779487" text-anchor="middle">-2</text></g><g class="dcg-svg-axis-value"><text fill="none" stroke="#ffffff" font-family="Arial" font-size="20px" font-style="normal" font-weight="normal" text-decoration="normal" x="180.38223024192317" y="109.34645095846705" text-anchor="middle" stroke-miterlimit="2" stroke-width="3" stroke-dasharray="">2</text><text fill="#000000" stroke="none" font-family="Arial" font-size="20px" font-style="normal" font-weight="normal" text-decoration="normal" x="180.38223024192317" y="109.34645095846705" text-anchor="middle">2</text></g></g></g></g><g id="expressions-6f8d9fd8"><g id="sketch-6f8d9fd8"><title>Expression 1</title><path fill="#c74440" stroke="none" paint-order="stroke fill markers" d="" fill-opacity="0.4"/><g><path fill="none" stroke="#c74440" class="dcg-svg-curve" paint-order="fill stroke markers" d=" M 180.58147235161115 192.96874999999997 L 180.58147235161115 192.96874999999997 L 178.90625 190.7803390635584 L 173.3082765818135 184.5042234181865 L 171.875 183.13385816476156 L 165.62463439833633 178.12536560166365 L 164.84375 177.600090623096 L 161.53118033747776 175.59368033747776 L 156.50591839929908 173.1815816007009 L 152.88818250773235 171.875 L 150.78125 171.26936965000803 L 145.40697378398858 170.2180262160114 L 141.7729098061887 169.89790980618864 L 138.72374474150928 169.87000525849066 L 134.98285985676736 170.13910985676736 L 133.203125 170.38715870584048 L 129.08356328384855 171.27106328384852 L 127.05024165857348 171.87499999999994 L 122.65625 173.59403752049766 L 119.16327931198455 175.41327931198452 L 114.12212286438546 178.90624999999997 L 111.21060059950118 181.52310059950116 L 108.59374999999999 184.38707332426404 L 107.37465824474822 185.93749999999997 L 105.04926059249026 189.42426059249024 L 103.18559071242312 192.96874999999997 L 101.56249999999999 197.06871338766848 L 100.45659045908833 201.10590954091163 L 99.7857889971751 205.2545389971751 L 99.5652506911925 209.02849930880745 L 99.65889411438796 212.15889411438795 L 100.04943900221035 215.57556099778964 L 100.42150675003475 217.57812499999997 L 101.56249999999999 221.77848777437356 L 102.44372146043797 224.168764269781 L 103.38483678581528 226.30266321418472 L 105.078125 229.4715572107959 L 106.46566680117948 231.64062499999997 L 109.18347131371361 235.15625 L 112.63796600996206 238.67187499999997 L 117.16878325774034 242.18749999999997 L 122.65625000000003 245.2531764889429 L 127.11035962542795 246.99169518728598 L 130.88838161773975 248.01786838226022 L 133.203125 248.46006042870485 L 137.03968599332381 248.89781400667613 L 140.3857771783661 248.98923293915843 L 143.75 248.8137629333671 L 149.46310368402425 247.90060368402425 L 153.0925480346362 246.90745196536375 L 157.81249999999997 245.10747074809666 L 159.79454178265345 244.16954178265343 L 164.84375 241.24704465575834 L 168.38257272824814 238.69507272824814 L 172.46908388994203 235.15625 L 175.65180004018805 231.90180004018805 L 178.90625 228.06676504254958 L 181.88473601615624 224.0722360161562 L 185.9375 217.8979525603848 L 190.80573621604873 209.66796874999997 L 190.92851021224922 209.3855414622492 L 185.34651106629448 199.99999999999997 L 184.3084093116645 198.3709093116645 L 180.58147235161115 192.96874999999997" stroke-linecap="round" stroke-linejoin="round" stroke-miterlimit="10" stroke-width="5" stroke-opacity="0.9" stroke-dasharray=""/></g><g><path fill="none" stroke="#c74440" class="dcg-svg-curve" paint-order="fill stroke markers" d=" M 263.28125 175.74511741619742 L 263.28125 175.74511741619742 L 260.79924070598054 174.3570092940195 L 259.765625 173.84463391659054 L 255.8909127415077 172.2340872584923 L 254.8372329710322 171.875 L 249.21875 170.47708303528952 L 244.15404523905764 169.9084547609423 L 240.20636307729364 169.89386307729364 L 235.15624999999997 170.41252377559832 L 227.69263131352787 172.30736868647207 L 223.30807406371542 174.0893240637154 L 220.72686157349005 175.390625 L 217.57812500000003 177.25242728845905 L 214.0625 179.72018381378615 L 210.66453732587308 182.53953732587306 L 207.03125 186.08795715192483 L 203.81220951864142 189.7497095186414 L 200 194.7790342870561 L 196.484375 200.09045740755002 L 192.3272612405401 207.03124999999997 L 191.2109375 208.96400744598702" stroke-linecap="round" stroke-linejoin="round" stroke-miterlimit="10" stroke-width="5" stroke-opacity="0.9" stroke-dasharray=""/></g><g><path fill="none" stroke="#c74440" class="dcg-svg-curve" paint-order="fill stroke markers" d=" M 190.93924380313595 209.39627505313592 L 190.93924380313595 209.39627505313592 L 192.09697085862416 211.4186541413758 L 196.0319493767518 218.03055062324816 L 200 224.06824068215562 L 203.0273482610707 228.12499999999997 L 208.21115157654705 233.9763484234529 L 209.4184172253337 235.15625 L 214.0625 239.1270372335635 L 215.82904732040012 240.42095267959985 L 218.5246273365719 242.18749999999997 L 221.09375000000003 243.65343151551264 L 224.8628461682461 245.44965383175384 L 228.125 246.6877574222899 L 235.15625000000003 248.43468224250904 L 235.8353608191515 248.53963918084847 L 242.1875 248.9921993034222 L 248.81627287299807 248.43851640294602 L 250.2643367575766 248.17316324242336 L 256.25 246.48333156411348 L 259.2890225854487 245.22652258544872 L 264.71871865554795 242.18749999999997 L 267.9306958971748 239.8056958971748 L 270.3125 237.68105776570022 L 272.70403083942693 235.15625 L 274.7610617011045 232.57356170110447 L 277.57457207999545 228.12499999999997 L 279.7197873145125 223.46978731451242 L 280.5455596469171 221.09374999999997 L 281.620034720549 216.81746527945103 L 282.04855749400264 214.06249999999997 L 282.31884097724543 210.07483944283362 L 282.2511214035003 207.03124999999997 L 281.8760978832056 203.51562499999997 L 281.7327363157127 202.64226368428731 L 281.17378906298046 199.99999999999997 L 279.6994285360939 195.32442853609385 L 278.26252514027834 192.0499748597216 L 277.34375 190.30284312430047 L 274.51284045193603 185.93749999999997 L 272.6366017267884 183.61339827321157 L 270.31250000000006 181.166181486173 L 267.7653842177833 178.90624999999997 L 265.201141727239 176.98635827276098 L 263.28125 175.74511741619742" stroke-linecap="round" stroke-linejoin="round" stroke-miterlimit="10" stroke-width="5" stroke-opacity="0.9" stroke-dasharray=""/></g></g></g><g id="labels-6f8d9fd8"/></g></svg>