<svg version="1.1" xmlns="http://www.w3.org/2000/svg" xmlns:xlink="http://www.w3.org/1999/xlink" width="800" height="800"><defs/><g transform="scale(2,2)"><g id="background-53d3621f"><rect fill="white" stroke="none" x="0" y="0" width="400" height="400" class="dcg-svg-background"/></g><g id="background-images-53d3621f"/><g id="graphpaper-53d3621f"><g id="grid-53d3621f"><g><path fill="none" stroke="rgb(0,0,0)" class="dcg-svg-minor-gridline" paint-order="fill stroke markers" d=" M 11.5 0 L 11.5 400" stroke-opacity="0.2" stroke-miterlimit="10" stroke-dasharray=""/><path fill="none" stroke="rgb(0,0,0)" class="dcg-svg-minor-gridline" paint-order="fill stroke markers" d=" M 34.5 0 L 34.5 400" stroke-opacity="0.2" stroke-miterlimit="10" stroke-dasharray=""/><path fill="none" stroke="rgb(0,0,0)" class="dcg-svg-minor-gridline" paint-order="fill stroke markers" d=" M 57.5 0 L 57.5 400" stroke-opacity="0.2" stroke-miterlimit="10" stroke-dasharray=""/><path fill="none" stroke="rgb(0,0,0)" class="dcg-svg-minor-gridline" paint-order="fill stroke markers" d=" M 80.5 0 L 80.5 400" stroke-opacity="0.2" stroke-miterlimit="10" stroke-dasharray=""/><path fill="none" stroke="rgb(0,0,0)" class="dcg-svg-minor-gridline" paint-order="fill stroke markers" d=" M 104.5 0 L 104.5 400" stroke-opacity="0.2" stroke-miterlimit="10" stroke-dasharray=""/><path fill="none" stroke="rgb(0,0,0)" class="dcg-svg-minor-gridline" paint-order="fill stroke markers" d=" M 127.5 0 L 127.5 400" stroke-opacity="0.2" stroke-miterlimit="10" stroke-dasharray=""/><path fill="none" stroke="rgb(0,0,0)" class="dcg-svg-minor-gridline" paint-order="fill stroke markers" d=" M 173.5 0 L 173.5 400" stroke-opacity="0.2" stroke-miterlimit="10" stroke-dasharray=""/><path fill="none" stroke="rgb(0,0,0)" class="dcg-svg-minor-gridline" paint-order="fill stroke markers" d=" M 196.5 0 L 196.5 400" stroke-opacity="0.2" stroke-miterlimit="10" stroke-dasharray=""/><path fill="none" stroke="rgb(0,0,0)" class="dcg-svg-minor-gridline" paint-order="fill stroke markers" d=" M 220.5 0 L 220.5 400" stroke-opacity="0.2" stroke-miterlimit="10" stroke-dasharray=""/><path fill="none" stroke="rgb(0,0,0)" class="dcg-svg-minor-gridline" paint-order="fill stroke markers" d=" M 243.5 0 L 243.5 400" stroke-opacity="0.2" stroke-miterlimit="10" stroke-dasharray=""/><path fill="none" stroke="rgb(0,0,0)" class="dcg-svg-minor-gridline" paint-order="fill stroke markers" d=" M 266.5 0 L 266.5 400" stroke-opacity="0.2" stroke-miterlimit="10" stroke-dasharray=""/><path fill="none" stroke="rgb(0,0,0)" class="dcg-svg-minor-gridline" paint-order="fill stroke markers" d=" M 289.5 0 L 289.5 400" stroke-opacity="0.2" stroke-miterlimit="10" stroke-dasharray=""/><path fill="none" stroke="rgb(0,0,0)" class="dcg-svg-minor-gridline" paint-order="fill stroke markers" d=" M 312.5 0 L 312.5 400" stroke-opacity="0.2" stroke-miterlimit="10" stroke-dasharray=""/><path fill="none" stroke="rgb(0,0,0)" class="dcg-svg-minor-gridline" paint-order="fill stroke markers" d=" M 336.5 0 L 336.5 400" stroke-opacity="0.2" stroke-miterlimit="10" stroke-dasharray=""/><path fill="none" stroke="rgb(0,0,0)" class="dcg-svg-minor-gridline" paint-order="fill stroke markers" d=" M 359.5 0 L 359.5 400" stroke-opacity="0.2" stroke-miterlimit="10" stroke-dasharray=""/><path fill="none" stroke="rgb(0,0,0)" class="dcg-svg-minor-gridline" paint-order="fill stroke markers" d=" M 382.5 0 L 382.5 400" stroke-opacity="0.2" stroke-miterlimit="10" stroke-dasharray=""/><path fill="none" stroke="rgb(0,0,0)" class="dcg-svg-minor-gridline" paint-order="fill stroke markers" d=" M 0 383.5 L 400 383.5" stroke-opacity="0.2" stroke-miterlimit="10" stroke-dasharray=""/><path fill="none" stroke="rgb(0,0,0)" class="dcg-svg-minor-gridline" paint-order="fill stroke markers" d=" M 0 360.5 L 400 360.5" stroke-opacity="0.2" stroke-miterlimit="10" stroke-dasharray=""/><path fill="none" stroke="rgb(0,0,0)" class="dcg-svg-minor-gridline" paint-order="fill stroke markers" d=" M 0 337.5 L 400 337.5" stroke-opacity="0.2" stroke-miterlimit="10" stroke-dasharray=""/><path fill="none" stroke="rgb(0,0,0)" class="dcg-svg-minor-gridline" paint-order="fill stroke markers" d=" M 0 314.5 L 400 314.5" stroke-opacity="0.2" stroke-miterlimit="10" stroke-dasharray=""/><path fill="none" stroke="rgb(0,0,0)" class="dcg-svg-minor-gridline" paint-order="fill stroke markers" d=" M 0 291.5 L 400 291.5" stroke-opacity="0.2" stroke-miterlimit="10" stroke-dasharray=""/><path fill="none" stroke="rgb(0,0,0)" class="dcg-svg-minor-gridline" paint-order="fill stroke markers" d=" M 0 267.5 L 400 267.5" stroke-opacity="0.2" stroke-miterlimit="10" stroke-dasharray=""/><path fill="none" stroke="rgb(0,0,0)" class="dcg-svg-minor-gridline" paint-order="fill stroke markers" d=" M 0 244.5 L 400 244.5" stroke-opacity="0.2" stroke-miterlimit="10" stroke-dasharray=""/><path fill="none" stroke="rgb(0,0,0)" class="dcg-svg-minor-gridline" paint-order="fill stroke markers" d=" M 0 221.5 L 400 221.5" stroke-opacity="0.2" stroke-miterlimit="10" stroke-dasharray=""/><path fill="none" stroke="rgb(0,0,0)" class="dcg-svg-minor-gridline" paint-order="fill stroke markers" d=" M 0 175.5 L 400 175.5" stroke-opacity="0.2" stroke-miterlimit="10" stroke-dasharray=""/><path fill="none" stroke="rgb(0,0,0)" class="dcg-svg-minor-gridline" paint-order="fill stroke markers" d=" M 0 151.5 L 400 151.5" stroke-opacity="0.2" stroke-miterlimit="10" stroke-dasharray=""/><path fill="none" stroke="rgb(0,0,0)" class="dcg-svg-minor-gridline" paint-order="fill stroke markers" d=" M 0 128.5 L 400 128.5" stroke-opacity="0.2" stroke-miterlimit="10" stroke-dasharray=""/><path fill="none" stroke="rgb(0,0,0)" class="dcg-svg-minor-gridline" paint-order="fill stroke markers" d=" M 0 105.5 L 400 105.5" stroke-opacity="0.2" stroke-miterlimit="10" stroke-dasharray=""/><path fill="none" stroke="rgb(0,0,0)" class="dcg-svg-minor-gridline" paint-order="fill stroke markers" d=" M 0 82.5 L 400 82.5" stroke-opacity="0.2" stroke-miterlimit="10" stroke-dasharray=""/><path fill="none" stroke="rgb(0,0,0)" class="dcg-svg-minor-gridline" paint-order="fill stroke markers" d=" M 0 59.5 L 400 59.5" stroke-opacity="0.2" stroke-miterlimit="10" stroke-dasharray=""/><path fill="none" stroke="rgb(0,0,0)" class="dcg-svg-minor-gridline" paint-order="fill stroke markers" d=" M 0 35.5 L 400 35.5" stroke-opacity="0.2" stroke-miterlimit="10" stroke-dasharray=""/><path fill="none" stroke="rgb(0,0,0)" class="dcg-svg-minor-gridline" paint-order="fill stroke markers" d=" M 0 12.5 L 400 12.5" stroke-opacity="0.2" stroke-miterlimit="10" stroke-dasharray=""/><path fill="none" stroke="rgb(0,0,0)" class="dcg-svg-major-gridline" paint-order="fill stroke markers" d=" M 34.5 0 L 34.5 400" stroke-opacity="0.2500000000000001" stroke-miterlimit="10" stroke-dasharray=""/><path fill="none" stroke="rgb(0,0,0)" class="dcg-svg-major-gridline" paint-order="fill stroke markers" d=" M 266.5 0 L 266.5 400" stroke-opacity="0.2500000000000001" stroke-miterlimit="10" stroke-dasharray=""/><path fill="none" stroke="rgb(0,0,0)" class="dcg-svg-major-gridline" paint-order="fill stroke markers" d=" M 382.5 0 L 382.5 400" stroke-opacity="0.2500000000000001" stroke-miterlimit="10" stroke-dasharray=""/><path fill="none" stroke="rgb(0,0,0)" class="dcg-svg-major-gridline" paint-order="fill stroke markers" d=" M 0 314 L 400 314" stroke-opacity="0.2500000000000001" stroke-miterlimit="10" stroke-dasharray=""/><path fill="none" stroke="rgb(0,0,0)" class="dcg-svg-major-gridline" paint-order="fill stroke markers" d=" M 0 82 L 400 82" stroke-opacity="0.2500000000000001" stroke-miterlimit="10" stroke-dasharray=""/></g></g><g id="axis-53d3621f"><g id="yaxis-53d3621f"><title>Y axis</title><path fill="none" stroke="rgb(0,0,0)" class="dcg-svg-axis-line" paint-order="fill stroke markers" d=" M 151 0 L 151 400" stroke-opacity="0.9" stroke-miterlimit="10" stroke-width="1.5" stroke-dasharray=""/></g><g id="xaxis-53d3621f"><title>X axis</title><path fill="none" stroke="rgb(0,0,0)" class="dcg-svg-axis-line" paint-order="fill stroke markers" d=" M 0 198 L 400 198" stroke-opacity="0.9" stroke-miterlimit="10" stroke-width="1.5" stroke-dasharray=""/></g><g><g class="dcg-svg-axis-value"><text fill="none" stroke="#ffffff" font-family="Arial" font-size="14px" font-style="normal" font-weight="normal" text-decoration="normal" x="141.61495155653645" y="214.0947062673837" text-anchor="middle" stroke-miterlimit="2" stroke-width="3" stroke-dasharray="">0</text><text fill="#000000" stroke="none" font-family="Arial" font-size="14px" font-style="normal" font-weight="normal" text-decoration="normal" x="141.61495155653645" y="214.0947062673837" text-anchor="middle">0</text></g><g class="dcg-svg-axis-value"><text fill="none" stroke="#ffffff" font-family="Arial" font-size="14px" font-style="normal" font-weight="normal" text-decoration="normal" x="32.147250116043494" y="214.0947062673837" text-anchor="middle" stroke-miterlimit="2" stroke-width="3" stroke-dasharray="">-1</text><text fill="#000000" stroke="none" font-family="Arial" font-size="14px" font-style="normal" font-weight="normal" text-decoration="normal" x="32.147250116043494" y="214.0947062673837" text-anchor="middle">-1</text></g><g class="dcg-svg-axis-value"><text fill="none" stroke="#ffffff" font-family="Arial" font-size="14px" font-style="normal" font-weight="normal" text-decoration="normal" x="266.5377311220294" y="214.0947062673837" text-anchor="middle" stroke-miterlimit="2" stroke-width="3" stroke-dasharray="">1</text><text fill="#000000" stroke="none" font-family="Arial" font-size="14px" font-style="normal" font-weight="normal" text-decoration="normal" x="266.5377311220294" y="214.0947062673837" text-anchor="middle">1</text></g><g class="dcg-svg-axis-value"><text fill="none" stroke="#ffffff" font-family="Arial" font-size="14px" font-style="normal" font-weight="normal" text-decoration="normal" x="382.5674442812724" y="214.0947062673837" text-anchor="middle" stroke-miterlimit="2" stroke-width="3" stroke-dasharray="">2</text><text fill="#000000" stroke="none" font-family="Arial" font-size="14px" font-style="normal" font-weight="normal" text-decoration="normal" x="382.5674442812724" y="214.0947062673837" text-anchor="middle">2</text></g><g class="dcg-svg-axis-value"><text fill="none" stroke="#ffffff" font-family="Arial" font-size="14px" font-style="normal" font-weight="normal" text-decoration="normal" x="139.28389686903645" y="318.1244194266267" text-anchor="middle" stroke-miterlimit="2" stroke-width="3" stroke-dasharray="">-1</text><text fill="#000000" stroke="none" font-family="Arial" font-size="14px" font-style="normal" font-weight="normal" text-decoration="normal" x="139.28389686903645" y="318.1244194266267" text-anchor="middle">-1</text></g><g class="dcg-svg-axis-value"><text fill="none" stroke="#ffffff" font-family="Arial" font-size="14px" font-style="normal" font-weight="normal" text-decoration="normal" x="141.61495155653645" y="86.06499310814077" text-anchor="middle" stroke-miterlimit="2" stroke-width="3" stroke-dasharray="">1</text><text fill="#000000" stroke="none" font-family="Arial" font-size="14px" font-style="normal" font-weight="normal" text-decoration="normal" x="141.61495155653645" y="86.06499310814077" text-anchor="middle">1</text></g></g></g></g><g id="expressions-53d3621f"><g id="sketch-53d3621f"><title>Expression 1</title><path fill="#fa7e19" stroke="none" paint-order="stroke fill markers" d="" fill-opacity="0.4"/><g><path fill="none" stroke="#fa7e19" class="dcg-svg-curve" paint-order="fill stroke markers" d=" M 252.33367089248 198.28670626738372 L 252.33367089248 198.28670626738372 L 266.5377311220294 198.28670626738372" stroke-linecap="round" stroke-linejoin="round" stroke-miterlimit="10" stroke-width="2.5" stroke-opacity="0.9" stroke-dasharray=""/></g></g><g id="sketch-53d3621f"><title>Expression 2</title><path fill="#2d70b3" stroke="none" paint-order="stroke fill markers" d="" fill-opacity="0.4"/><g><path fill="none" stroke="#2d70b3" class="dcg-svg-curve" paint-order="fill stroke markers" d=" M 150.50801796278645 198.28670626738372 L 150.50801796278645 198.28670626738372 L 252.33367089248 198.28670626738372" stroke-linecap="round" stroke-linejoin="round" stroke-miterlimit="10" stroke-width="2.5" stroke-opacity="0.9" stroke-dasharray=""/></g></g><g id="sketch-53d3621f"><title>Expression 3</title><path fill="#388c46" stroke="none" paint-order="stroke fill markers" d="" fill-opacity="0.4"/><path fill="#388c46" stroke="none" paint-order="stroke fill markers" d="" fill-opacity="0.4"/><g><path fill="none" stroke="#388c46" class="dcg-svg-curve" paint-order="fill stroke markers" d=" M 34.4783048035435 198.28670626738372 L 34.4783048035435 198.28670626738372 L 34.570312499999986 202.90653178793852 L 34.86328125 207.730709997079 L 35.35156249999999 212.49533396549293 L 36.03515625000001 217.23026103151042 L 36.91406249999999 221.9363916381172 L 37.988281249999986 226.6098979290134 L 39.25781250000001 231.245561227834 L 40.72265625000001 235.83758760735816 L 42.38281249999999 240.3798681757794 L 44.238281249999986 244.86607288835916 L 46.38671875 249.4887510122725 L 48.73046875 254.0022769102034 L 51.26953125 258.4083919620838 L 54.00390625 262.70604155068384 L 57.03125 267.0252557650824 L 60.25390625 271.20508292753755 L 63.76953125 275.35375018754434 L 67.48046875 279.3380505346722 L 71.484375 283.2464507862219 L 75.78125 287.0493362737781 L 80.37109375 290.7188770618969 L 85.3515625 294.2946780579706 L 90.42968750000001 297.5514459518277 L 95.60546874999999 300.50512156401095 L 100.87890625 303.16685503928414 L 106.15234374999999 305.5036289099654 L 111.52343749999999 307.57118285009295 L 116.89453125 309.34087254143907 L 122.26562500000001 310.82675058740233 L 127.73437499999997 312.0595304479398 L 133.203125 313.01872017528433 L 138.671875 313.7111406631419 L 144.14062500000003 314.14157514510356 L 149.60937499999997 314.3129394073148 L 155.078125 314.22638220916224 L 160.546875 313.8813241576756 L 166.01562500000003 313.2754381492319 L 171.48437499999997 312.4045698175902 L 176.953125 311.2625915244 L 182.32421875 309.86906913573273 L 187.6953125 308.19575712680444 L 192.96874999999997 306.2680961949085 L 198.24218749999997 304.0427623323144 L 203.41796875 301.55059852169904 L 208.49609375 298.7868425972046 L 213.57421875 295.6804876606691 L 218.55468749999997 292.2683273467706 L 223.4375 288.53184456081175 L 228.02734375 284.6212211806677 L 232.22656250000003 280.6576587599684 L 236.1328125 276.5892534563237 L 239.74609374999997 272.4450514863254 L 243.06640625 268.25697919446054 L 246.19140625 263.9188900013913 L 249.02343749999997 259.5860247727554 L 251.66015625 255.12981715815596 L 254.10156249999997 250.54827786672 L 256.25 246.05204485780732 L 258.20312500000006 241.46839516510187 L 259.9609375 236.7958316871652 L 261.52343749999994 232.0279415855025 L 262.79296874999994 227.52681848552058 L 263.8671875 223.03732277787643 L 264.74609374999994 218.59819011891602 L 265.4296875 214.2837124434057 L 266.015625 209.2815710847817 L 266.30859375 205.57512057819332 L 266.50390625 201.08817664496684 L 266.5377311220294 198.28670626738372" stroke-linecap="round" stroke-linejoin="round" stroke-miterlimit="10" stroke-width="2.5" stroke-opacity="0.9" stroke-dasharray=""/></g><g><path fill="none" stroke="#388c46" class="dcg-svg-curve" paint-order="fill stroke markers" d=" M 34.4783048035435 198.28670626738372 L 34.4783048035435 198.28670626738372 L 34.570312499999986 193.66688074682892 L 34.86328125 188.84270253768847 L 35.35156249999999 184.07807856927454 L 36.03515625000001 179.34315150325702 L 36.91406249999999 174.63702089665026 L 37.988281249999986 169.96351460575406 L 39.25781250000001 165.3278513069334 L 40.72265625000001 160.73582492740928 L 42.38281249999999 156.19354435898805 L 44.238281249999986 151.70733964640831 L 46.38671875 147.08466152249497 L 48.73046875 142.57113562456408 L 51.26953125 138.16502057268366 L 54.00390625 133.86737098408366 L 57.03125 129.54815676968497 L 60.25390625 125.36832960722995 L 63.76953125 121.2196623472231 L 67.48046875 117.23536200009522 L 71.484375 113.32696174854556 L 75.78125 109.52407626098932 L 80.37109375 105.85453547287057 L 85.3515625 102.2787344767969 L 90.42968750000001 99.02196658293974 L 95.60546874999999 96.0682909707565 L 100.87890625 93.40655749548336 L 106.15234374999999 91.06978362480203 L 111.52343749999999 89.00222968467449 L 116.89453125 87.23253999332837 L 122.26562500000001 85.74666194736517 L 127.73437499999997 84.51388208682766 L 133.203125 83.55469235948311 L 138.671875 82.86227187162558 L 144.14062500000003 82.43183738966388 L 149.60937499999997 82.26047312745266 L 155.078125 82.34703032560526 L 160.546875 82.69208837709186 L 166.01562500000003 83.29797438553555 L 171.48437499999997 84.16884271717731 L 176.953125 85.31082101036742 L 182.32421875 86.70434339903471 L 187.6953125 88.37765540796306 L 192.96874999999997 90.30531633985896 L 198.24218749999997 92.5306502024531 L 203.41796875 95.02281401306846 L 208.49609375 97.78656993756289 L 213.57421875 100.8929248740983 L 218.55468749999997 104.30508518799684 L 223.4375 108.04156797395575 L 228.02734375 111.9521913540998 L 232.22656250000003 115.91575377479904 L 236.1328125 119.98415907844378 L 239.74609374999997 124.12836104844206 L 243.06640625 128.31643334030696 L 246.19140625 132.65452253337617 L 249.02343749999997 136.98738776201208 L 251.66015625 141.44359537661148 L 254.10156249999997 146.02513466804743 L 256.25 150.52136767696012 L 258.20312500000006 155.10501736966557 L 259.9609375 159.77758084760225 L 261.52343749999994 164.54547094926494 L 262.79296874999994 169.04659404924686 L 263.8671875 173.53608975689102 L 264.74609374999994 177.97522241585145 L 265.4296875 182.28970009136177 L 266.015625 187.29184144998578 L 266.30859375 190.99829195657415 L 266.50390625 195.4852358898006 L 266.5377311220294 198.28670626738372" stroke-linecap="round" stroke-linejoin="round" stroke-miterlimit="10" stroke-width="2.5" stroke-opacity="0.9" stroke-dasharray=""/></g></g><g id="sketch-53d3621f"><title>Expression 4</title><g><path fill="none" stroke="#000000" class="dcg-svg-curve" paint-order="fill stroke markers" d=" M 266.53770821868284 198.21380265328875 L 266.53770821868284 198.21380265328875 L 266.425522810126 193.1850981108102 L 266.08911489995023 188.09335713090474 L 265.52915804835 183.02133141992653 L 264.7467352850311 177.97883093822918 L 263.74335991783653 172.9756085405154 L 262.52097260581115 168.0213411125421 L 261.0819376057136 163.12561085475912 L 259.4290381992351 158.29788674908153 L 257.56547130976867 153.54750624464165 L 255.49484131914198 148.88365719794268 L 253.2211530962717 144.31536010234362 L 252.33367089248 142.6590985419225" stroke-linecap="round" stroke-linejoin="round" stroke-miterlimit="10" stroke-width="2.5" stroke-opacity="0.9" stroke-dasharray=""/></g></g><g id="sketch-53d3621f"><title>Expression 5</title><path fill="#c74440" stroke="none" paint-order="stroke fill markers" d="" fill-opacity="0.4"/><g><path fill="none" stroke="#c74440" class="dcg-svg-curve" paint-order="fill stroke markers" d=" M 0 280.5096112219079 L 0 280.5096112219079 L 400 61.9886152843917" stroke-linecap="round" stroke-linejoin="round" stroke-miterlimit="10" stroke-width="2.5" stroke-opacity="0.9" stroke-dasharray=""/></g></g><g id="sketch-53d3621f"><title>Expression 6</title><path fill="#6042a6" stroke="none" paint-order="stroke fill markers" d="" fill-opacity="0.4"/><g><path fill="none" stroke="#6042a6" class="dcg-svg-curve" paint-order="fill stroke markers" d=" M 252.33367089248 198.28670626738372 L 252.33367089248 198.28670626738372 L 252.33367089248 142.65909854192245" stroke-linecap="round" stroke-linejoin="round" stroke-miterlimit="10" stroke-width="2.5" stroke-opacity="0.9" stroke-dasharray=""/></g></g><g id="sketch-53d3621f"><title>cos(θ)</title></g><g id="sketch-53d3621f"><title>1-cos(θ)</title></g><g id="sketch-53d3621f"><title>θ</title></g></g><g id="labels-53d3621f"><g transform="rotate(0,0,0) translate(201.42084442763323,221.4926488992323)"><g class="dcg-svg-label"><g transform="translate(-21.39583527235979,-8.805148899232307)"><g><text fill="none" stroke="#FFF" font-family="arial, sans-serif" font-size="15.4px" font-style="normal" font-weight="400" text-decoration="normal" x="0" y="13.688796948242187" text-anchor="start" stroke-linecap="round" stroke-linejoin="round" stroke-miterlimit="2" stroke-width="3" stroke-opacity="0.9" stroke-dasharray="">cos(θ)</text></g></g><g transform="translate(-21.39583527235979,-8.805148899232307)"><g><text fill="rgb(56, 140, 70)" stroke="none" font-family="arial, sans-serif" font-size="15.4px" font-style="normal" font-weight="400" text-decoration="normal" x="0" y="13.688796948242187" text-anchor="start" fill-opacity="0.9">cos(θ)</text></g></g></g></g><g transform="rotate(0,0,0) translate(259.4357010072547,221.4926488992323)"><g class="dcg-svg-label"><g transform="translate(-28.24507295549688,-8.805148899232307)"><g><text fill="none" stroke="#FFF" font-family="arial, sans-serif" font-size="15.4px" font-style="normal" font-weight="400" text-decoration="normal" x="0" y="13.688796948242187" text-anchor="start" stroke-linecap="round" stroke-linejoin="round" stroke-miterlimit="2" stroke-width="3" stroke-opacity="0.9" stroke-dasharray="">1-cos(θ)</text></g></g><g transform="translate(-28.24507295549688,-8.805148899232307)"><g><text fill="rgb(0, 0, 0)" stroke="none" font-family="arial, sans-serif" font-size="15.4px" font-style="normal" font-weight="400" text-decoration="normal" x="0" y="13.688796948242187" text-anchor="start" fill-opacity="0.9">1-cos(θ)</text></g></g></g></g><g transform="rotate(0,0,0) translate(208.52287454240792,182.4398759686949)"><g class="dcg-svg-label"><g transform="translate(-4.288499542407919,-8.802379020452719)"><g><text fill="none" stroke="#FFF" font-family="arial, sans-serif" font-size="15.4px" font-style="normal" font-weight="400" text-decoration="normal" x="0" y="13.68881220703125" text-anchor="start" stroke-linecap="round" stroke-linejoin="round" stroke-miterlimit="2" stroke-width="3" stroke-opacity="0.9" stroke-dasharray="">θ</text></g></g><g transform="translate(-4.288499542407919,-8.802379020452719)"><g><text fill="rgb(45, 112, 179)" stroke="none" font-family="arial, sans-serif" font-size="15.4px" font-style="normal" font-weight="400" text-decoration="normal" x="0" y="13.68881220703125" text-anchor="start" fill-opacity="0.9">θ</text></g></g></g></g></g></g></svg>