<svg version="1.1" xmlns="http://www.w3.org/2000/svg" xmlns:xlink="http://www.w3.org/1999/xlink" width="800" height="800"><defs/><g transform="scale(2,2)"><g id="background-d9353036"><rect fill="white" stroke="none" x="0" y="0" width="400" height="400" class="dcg-svg-background"/></g><g id="background-images-d9353036"/><g id="graphpaper-d9353036"><g id="grid-d9353036"><g><path fill="none" stroke="rgb(0,0,0)" class="dcg-svg-minor-gridline" paint-order="fill stroke markers" d=" M 21.5 0 L 21.5 400" stroke-opacity="0.2" stroke-miterlimit="10" stroke-dasharray=""/><path fill="none" stroke="rgb(0,0,0)" class="dcg-svg-minor-gridline" paint-order="fill stroke markers" d=" M 44.5 0 L 44.5 400" stroke-opacity="0.2" stroke-miterlimit="10" stroke-dasharray=""/><path fill="none" stroke="rgb(0,0,0)" class="dcg-svg-minor-gridline" paint-order="fill stroke markers" d=" M 68.5 0 L 68.5 400" stroke-opacity="0.2" stroke-miterlimit="10" stroke-dasharray=""/><path fill="none" stroke="rgb(0,0,0)" class="dcg-svg-minor-gridline" paint-order="fill stroke markers" d=" M 91.5 0 L 91.5 400" stroke-opacity="0.2" stroke-miterlimit="10" stroke-dasharray=""/><path fill="none" stroke="rgb(0,0,0)" class="dcg-svg-minor-gridline" paint-order="fill stroke markers" d=" M 114.5 0 L 114.5 400" stroke-opacity="0.2" stroke-miterlimit="10" stroke-dasharray=""/><path fill="none" stroke="rgb(0,0,0)" class="dcg-svg-minor-gridline" paint-order="fill stroke markers" d=" M 137.5 0 L 137.5 400" stroke-opacity="0.2" stroke-miterlimit="10" stroke-dasharray=""/><path fill="none" stroke="rgb(0,0,0)" class="dcg-svg-minor-gridline" paint-order="fill stroke markers" d=" M 184.5 0 L 184.5 400" stroke-opacity="0.2" stroke-miterlimit="10" stroke-dasharray=""/><path fill="none" stroke="rgb(0,0,0)" class="dcg-svg-minor-gridline" paint-order="fill stroke markers" d=" M 207.5 0 L 207.5 400" stroke-opacity="0.2" stroke-miterlimit="10" stroke-dasharray=""/><path fill="none" stroke="rgb(0,0,0)" class="dcg-svg-minor-gridline" paint-order="fill stroke markers" d=" M 230.5 0 L 230.5 400" stroke-opacity="0.2" stroke-miterlimit="10" stroke-dasharray=""/><path fill="none" stroke="rgb(0,0,0)" class="dcg-svg-minor-gridline" paint-order="fill stroke markers" d=" M 253.5 0 L 253.5 400" stroke-opacity="0.2" stroke-miterlimit="10" stroke-dasharray=""/><path fill="none" stroke="rgb(0,0,0)" class="dcg-svg-minor-gridline" paint-order="fill stroke markers" d=" M 276.5 0 L 276.5 400" stroke-opacity="0.2" stroke-miterlimit="10" stroke-dasharray=""/><path fill="none" stroke="rgb(0,0,0)" class="dcg-svg-minor-gridline" paint-order="fill stroke markers" d=" M 300.5 0 L 300.5 400" stroke-opacity="0.2" stroke-miterlimit="10" stroke-dasharray=""/><path fill="none" stroke="rgb(0,0,0)" class="dcg-svg-minor-gridline" paint-order="fill stroke markers" d=" M 323.5 0 L 323.5 400" stroke-opacity="0.2" stroke-miterlimit="10" stroke-dasharray=""/><path fill="none" stroke="rgb(0,0,0)" class="dcg-svg-minor-gridline" paint-order="fill stroke markers" d=" M 346.5 0 L 346.5 400" stroke-opacity="0.2" stroke-miterlimit="10" stroke-dasharray=""/><path fill="none" stroke="rgb(0,0,0)" class="dcg-svg-minor-gridline" paint-order="fill stroke markers" d=" M 369.5 0 L 369.5 400" stroke-opacity="0.2" stroke-miterlimit="10" stroke-dasharray=""/><path fill="none" stroke="rgb(0,0,0)" class="dcg-svg-minor-gridline" paint-order="fill stroke markers" d=" M 392.5 0 L 392.5 400" stroke-opacity="0.2" stroke-miterlimit="10" stroke-dasharray=""/><path fill="none" stroke="rgb(0,0,0)" class="dcg-svg-minor-gridline" paint-order="fill stroke markers" d=" M 0 386.5 L 400 386.5" stroke-opacity="0.2" stroke-miterlimit="10" stroke-dasharray=""/><path fill="none" stroke="rgb(0,0,0)" class="dcg-svg-minor-gridline" paint-order="fill stroke markers" d=" M 0 362.5 L 400 362.5" stroke-opacity="0.2" stroke-miterlimit="10" stroke-dasharray=""/><path fill="none" stroke="rgb(0,0,0)" class="dcg-svg-minor-gridline" paint-order="fill stroke markers" d=" M 0 339.5 L 400 339.5" stroke-opacity="0.2" stroke-miterlimit="10" stroke-dasharray=""/><path fill="none" stroke="rgb(0,0,0)" class="dcg-svg-minor-gridline" paint-order="fill stroke markers" d=" M 0 316.5 L 400 316.5" stroke-opacity="0.2" stroke-miterlimit="10" stroke-dasharray=""/><path fill="none" stroke="rgb(0,0,0)" class="dcg-svg-minor-gridline" paint-order="fill stroke markers" d=" M 0 293.5 L 400 293.5" stroke-opacity="0.2" stroke-miterlimit="10" stroke-dasharray=""/><path fill="none" stroke="rgb(0,0,0)" class="dcg-svg-minor-gridline" paint-order="fill stroke markers" d=" M 0 269.5 L 400 269.5" stroke-opacity="0.2" stroke-miterlimit="10" stroke-dasharray=""/><path fill="none" stroke="rgb(0,0,0)" class="dcg-svg-minor-gridline" paint-order="fill stroke markers" d=" M 0 246.5 L 400 246.5" stroke-opacity="0.2" stroke-miterlimit="10" stroke-dasharray=""/><path fill="none" stroke="rgb(0,0,0)" class="dcg-svg-minor-gridline" paint-order="fill stroke markers" d=" M 0 223.5 L 400 223.5" stroke-opacity="0.2" stroke-miterlimit="10" stroke-dasharray=""/><path fill="none" stroke="rgb(0,0,0)" class="dcg-svg-minor-gridline" paint-order="fill stroke markers" d=" M 0 177.5 L 400 177.5" stroke-opacity="0.2" stroke-miterlimit="10" stroke-dasharray=""/><path fill="none" stroke="rgb(0,0,0)" class="dcg-svg-minor-gridline" paint-order="fill stroke markers" d=" M 0 153.5 L 400 153.5" stroke-opacity="0.2" stroke-miterlimit="10" stroke-dasharray=""/><path fill="none" stroke="rgb(0,0,0)" class="dcg-svg-minor-gridline" paint-order="fill stroke markers" d=" M 0 130.5 L 400 130.5" stroke-opacity="0.2" stroke-miterlimit="10" stroke-dasharray=""/><path fill="none" stroke="rgb(0,0,0)" class="dcg-svg-minor-gridline" paint-order="fill stroke markers" d=" M 0 107.5 L 400 107.5" stroke-opacity="0.2" stroke-miterlimit="10" stroke-dasharray=""/><path fill="none" stroke="rgb(0,0,0)" class="dcg-svg-minor-gridline" paint-order="fill stroke markers" d=" M 0 84.5 L 400 84.5" stroke-opacity="0.2" stroke-miterlimit="10" stroke-dasharray=""/><path fill="none" stroke="rgb(0,0,0)" class="dcg-svg-minor-gridline" paint-order="fill stroke markers" d=" M 0 61.5 L 400 61.5" stroke-opacity="0.2" stroke-miterlimit="10" stroke-dasharray=""/><path fill="none" stroke="rgb(0,0,0)" class="dcg-svg-minor-gridline" paint-order="fill stroke markers" d=" M 0 37.5 L 400 37.5" stroke-opacity="0.2" stroke-miterlimit="10" stroke-dasharray=""/><path fill="none" stroke="rgb(0,0,0)" class="dcg-svg-minor-gridline" paint-order="fill stroke markers" d=" M 0 14.5 L 400 14.5" stroke-opacity="0.2" stroke-miterlimit="10" stroke-dasharray=""/><path fill="none" stroke="rgb(0,0,0)" class="dcg-svg-major-gridline" paint-order="fill stroke markers" d=" M 44.5 0 L 44.5 400" stroke-opacity="0.2500000000000001" stroke-miterlimit="10" stroke-dasharray=""/><path fill="none" stroke="rgb(0,0,0)" class="dcg-svg-major-gridline" paint-order="fill stroke markers" d=" M 276.5 0 L 276.5 400" stroke-opacity="0.2500000000000001" stroke-miterlimit="10" stroke-dasharray=""/><path fill="none" stroke="rgb(0,0,0)" class="dcg-svg-major-gridline" paint-order="fill stroke markers" d=" M 392.5 0 L 392.5 400" stroke-opacity="0.2500000000000001" stroke-miterlimit="10" stroke-dasharray=""/><path fill="none" stroke="rgb(0,0,0)" class="dcg-svg-major-gridline" paint-order="fill stroke markers" d=" M 0 316 L 400 316" stroke-opacity="0.2500000000000001" stroke-miterlimit="10" stroke-dasharray=""/><path fill="none" stroke="rgb(0,0,0)" class="dcg-svg-major-gridline" paint-order="fill stroke markers" d=" M 0 84 L 400 84" stroke-opacity="0.2500000000000001" stroke-miterlimit="10" stroke-dasharray=""/></g></g><g id="axis-d9353036"><g id="yaxis-d9353036"><title>Y axis</title><path fill="none" stroke="rgb(0,0,0)" class="dcg-svg-axis-line" paint-order="fill stroke markers" d=" M 161 0 L 161 400" stroke-opacity="0.9" stroke-miterlimit="10" stroke-width="1.5" stroke-dasharray=""/></g><g id="xaxis-d9353036"><title>X axis</title><path fill="none" stroke="rgb(0,0,0)" class="dcg-svg-axis-line" paint-order="fill stroke markers" d=" M 0 200 L 400 200" stroke-opacity="0.9" stroke-miterlimit="10" stroke-width="1.5" stroke-dasharray=""/></g><g><g class="dcg-svg-axis-value"><text fill="none" stroke="#ffffff" font-family="Arial" font-size="14px" font-style="normal" font-weight="normal" text-decoration="normal" x="151.94841504945623" y="216.16889283996383" text-anchor="middle" stroke-miterlimit="2" stroke-width="3" stroke-dasharray="">0</text><text fill="#000000" stroke="none" font-family="Arial" font-size="14px" font-style="normal" font-weight="normal" text-decoration="normal" x="151.94841504945623" y="216.16889283996383" text-anchor="middle">0</text></g><g class="dcg-svg-axis-value"><text fill="none" stroke="#ffffff" font-family="Arial" font-size="14px" font-style="normal" font-weight="normal" text-decoration="normal" x="42.480713608962915" y="216.16889283996383" text-anchor="middle" stroke-miterlimit="2" stroke-width="3" stroke-dasharray="">-1</text><text fill="#000000" stroke="none" font-family="Arial" font-size="14px" font-style="normal" font-weight="normal" text-decoration="normal" x="42.480713608962915" y="216.16889283996383" text-anchor="middle">-1</text></g><g class="dcg-svg-axis-value"><text fill="none" stroke="#ffffff" font-family="Arial" font-size="14px" font-style="normal" font-weight="normal" text-decoration="normal" x="276.87119461494956" y="216.16889283996383" text-anchor="middle" stroke-miterlimit="2" stroke-width="3" stroke-dasharray="">1</text><text fill="#000000" stroke="none" font-family="Arial" font-size="14px" font-style="normal" font-weight="normal" text-decoration="normal" x="276.87119461494956" y="216.16889283996383" text-anchor="middle">1</text></g><g class="dcg-svg-axis-value"><text fill="none" stroke="#ffffff" font-family="Arial" font-size="14px" font-style="normal" font-weight="normal" text-decoration="normal" x="392.9009077741929" y="216.16889283996383" text-anchor="middle" stroke-miterlimit="2" stroke-width="3" stroke-dasharray="">2</text><text fill="#000000" stroke="none" font-family="Arial" font-size="14px" font-style="normal" font-weight="normal" text-decoration="normal" x="392.9009077741929" y="216.16889283996383" text-anchor="middle">2</text></g><g class="dcg-svg-axis-value"><text fill="none" stroke="#ffffff" font-family="Arial" font-size="14px" font-style="normal" font-weight="normal" text-decoration="normal" x="149.61736036195623" y="320.1986059992072" text-anchor="middle" stroke-miterlimit="2" stroke-width="3" stroke-dasharray="">-1</text><text fill="#000000" stroke="none" font-family="Arial" font-size="14px" font-style="normal" font-weight="normal" text-decoration="normal" x="149.61736036195623" y="320.1986059992072" text-anchor="middle">-1</text></g><g class="dcg-svg-axis-value"><text fill="none" stroke="#ffffff" font-family="Arial" font-size="14px" font-style="normal" font-weight="normal" text-decoration="normal" x="151.94841504945623" y="88.13917968072052" text-anchor="middle" stroke-miterlimit="2" stroke-width="3" stroke-dasharray="">1</text><text fill="#000000" stroke="none" font-family="Arial" font-size="14px" font-style="normal" font-weight="normal" text-decoration="normal" x="151.94841504945623" y="88.13917968072052" text-anchor="middle">1</text></g></g></g></g><g id="expressions-d9353036"><g id="sketch-d9353036"><title>Expression 1</title><path fill="#388c46" stroke="none" paint-order="stroke fill markers" d="" fill-opacity="0.4"/><path fill="#388c46" stroke="none" paint-order="stroke fill markers" d="" fill-opacity="0.4"/><g><path fill="none" stroke="#388c46" class="dcg-svg-curve" paint-order="fill stroke markers" d=" M 44.81176829646293 200.36089283996384 L 44.81176829646293 200.36089283996384 L 44.921874999999986 205.41452272060067 L 45.312499999999986 211.12884434539706 L 45.898437499999986 216.20358775001188 L 46.67968749999999 221.09683112669572 L 47.65625 225.8951387879939 L 48.828124999999986 230.62477083573913 L 50.19531250000001 235.29396644137475 L 51.757812499999986 239.90387582023695 L 53.515625 244.45233046526045 L 55.46875 248.93539027822766 L 57.6171875 253.34805612657723 L 60.05859375 257.85614378745765 L 62.69531249999999 262.2496951804054 L 65.52734375 266.5281769706727 L 68.65234374999999 270.8169587597597 L 71.97265624999999 274.961336822382 L 75.5859375 279.0653181325287 L 79.4921875 283.09653636030146 L 83.69140625 287.0255351779448 L 88.18359374999999 290.8248397467911 L 92.96874999999999 294.468207436428 L 98.046875 297.930005451944 L 103.12499999999999 301.0172493416245 L 108.30078124999999 303.8131482900524 L 113.57421875 306.32645428388787 L 118.84765624999999 308.52471757082697 L 124.21874999999997 310.4593482175917 L 129.58984375 312.10269109168144 L 135.05859375 313.4897443207918 L 140.52734375 314.5984967411745 L 145.99609375 315.436992876781 L 151.46484374999997 316.01111117591086 L 156.93359374999997 316.3247783797985 L 162.40234375 316.38010695863704 L 167.87109375 316.17746715818566 L 173.33984375 315.71549949170037 L 178.80859375 314.99106867346995 L 184.27734375 313.9991552973738 L 189.6484375 312.7577505330436 L 195.01953124999997 311.24261021516986 L 200.39062499999997 309.44232838574834 L 205.6640625 307.3834631900727 L 210.83984375 305.06551596475634 L 216.015625 302.4329664936814 L 221.09374999999997 299.5201509608403 L 226.07421874999997 296.3170511671392 L 230.95703125 292.8092785092669 L 235.74218749999997 288.97679756300204 L 240.13671875 285.0672071161613 L 244.23828124999997 281.03225157332577 L 248.046875 276.8992079024287 L 251.56249999999997 272.69754420082097 L 254.78515624999997 268.45994057163375 L 257.8125 264.0752232397924 L 260.546875 259.70504869371064 L 263.0859375 255.2149313788241 L 265.42968749999994 250.60232486824745 L 267.48046875 246.0885729108327 L 269.3359375 241.49296479688198 L 270.99609374999994 236.814366283658 L 272.4609375 232.0467156664624 L 273.73046874999994 227.17452525866216 L 274.70703125 222.6662936626232 L 275.48828125 218.221621625302 L 276.07421875 213.936996532871 L 276.5625 208.81903701510674 L 276.7578125 205.48910237604815 L 276.87119461494956 200.36089283996384" stroke-linecap="round" stroke-linejoin="round" stroke-miterlimit="10" stroke-width="2.5" stroke-opacity="0.9" stroke-dasharray=""/></g><g><path fill="none" stroke="#388c46" class="dcg-svg-curve" paint-order="fill stroke markers" d=" M 44.81176829646293 200.36089283996384 L 44.81176829646293 200.36089283996384 L 44.921874999999986 195.307262959327 L 45.312499999999986 189.59294133453065 L 45.898437499999986 184.51819792991583 L 46.67968749999999 179.624954553232 L 47.65625 174.82664689193382 L 48.828124999999986 170.09701484418858 L 50.19531250000001 165.42781923855296 L 51.757812499999986 160.8179098596908 L 53.515625 156.26945521466723 L 55.46875 151.78639540170005 L 57.6171875 147.37372955335047 L 60.05859375 142.86564189247008 L 62.69531249999999 138.47209049952227 L 65.52734375 134.19360870925505 L 68.65234374999999 129.90482692016803 L 71.97265624999999 125.76044885754567 L 75.5859375 121.65646754739896 L 79.4921875 117.62524931962622 L 83.69140625 113.69625050198295 L 88.18359374999999 109.89694593313658 L 92.96874999999999 106.25357824349976 L 98.046875 102.79178022798368 L 103.12499999999999 99.70453633830317 L 108.30078124999999 96.90863738987525 L 113.57421875 94.39533139603986 L 118.84765624999999 92.19706810910077 L 124.21874999999997 90.26243746233604 L 129.58984375 88.61909458824624 L 135.05859375 87.2320413591359 L 140.52734375 86.12328893875326 L 145.99609375 85.28479280314667 L 151.46484374999997 84.71067450401688 L 156.93359374999997 84.39700730012919 L 162.40234375 84.34167872129063 L 167.87109375 84.54431852174201 L 173.33984375 85.0062861882273 L 178.80859375 85.73071700645778 L 184.27734375 86.72263038255392 L 189.6484375 87.9640351468841 L 195.01953124999997 89.47917546475782 L 200.39062499999997 91.27945729417934 L 205.6640625 93.33832248985499 L 210.83984375 95.65626971517139 L 216.015625 98.28881918624626 L 221.09374999999997 101.2016347190874 L 226.07421874999997 104.40473451278848 L 230.95703125 107.91250717066077 L 235.74218749999997 111.7449881169257 L 240.13671875 115.65457856376639 L 244.23828124999997 119.68953410660197 L 248.046875 123.82257777749896 L 251.56249999999997 128.0242414791067 L 254.78515624999997 132.26184510829387 L 257.8125 136.64656244013526 L 260.546875 141.01673698621698 L 263.0859375 145.50685430110357 L 265.42968749999994 150.11946081168023 L 267.48046875 154.63321276909494 L 269.3359375 159.22882088304573 L 270.99609374999994 163.90741939626972 L 272.4609375 168.6750700134653 L 273.73046874999994 173.54726042126555 L 274.70703125 178.05549201730452 L 275.48828125 182.50016405462569 L 276.07421875 186.7847891470567 L 276.5625 191.90274866482096 L 276.7578125 195.23268330387955 L 276.87119461494956 200.36089283996384" stroke-linecap="round" stroke-linejoin="round" stroke-miterlimit="10" stroke-width="2.5" stroke-opacity="0.9" stroke-dasharray=""/></g></g><g id="sketch-d9353036"><title>Expression 2</title><g><path fill="none" stroke="#000000" class="dcg-svg-curve" paint-order="fill stroke markers" d=" M 276.8711717116029 200.28798922586887 L 276.8711717116029 200.28798922586887 L 276.75898630304613 195.25928468339032 L 276.4225783928703 190.16754370348482 L 275.8626215412701 185.09551799250661 L 275.08019877795124 180.05301751080924 L 274.0768234107567 175.04979511309546 L 272.8544360987312 170.09552768512214 L 271.4154010986337 165.19979742733915 L 269.7625016921552 160.37207332166147 L 267.8989348026888 155.6216928172216 L 265.8283048120621 150.95784377052266 L 263.5546165891919 146.38954667492357 L 261.0822677441442 141.92563721382675 L 258.4160401225825 137.57474917131185 L 256.6049361137839 134.84558861441224" stroke-linecap="round" stroke-linejoin="round" stroke-miterlimit="10" stroke-width="2.5" stroke-opacity="0.9" stroke-dasharray=""/></g></g><g id="sketch-d9353036"><title>Expression 3</title><path fill="#c74440" stroke="none" paint-order="stroke fill markers" d="" fill-opacity="0.4"/><g><path fill="none" stroke="#c74440" class="dcg-svg-curve" paint-order="fill stroke markers" d=" M 0 310.3984706120202 L 0 310.3984706120202 L 400 36.74374727534331" stroke-linecap="round" stroke-linejoin="round" stroke-miterlimit="10" stroke-width="2.5" stroke-opacity="0.9" stroke-dasharray=""/></g></g><g id="sketch-d9353036"><title>Expression 4</title><path fill="#6042a6" stroke="none" paint-order="stroke fill markers" d="" fill-opacity="0.4"/><g><path fill="none" stroke="#6042a6" class="dcg-svg-curve" paint-order="fill stroke markers" d=" M 256.6049361137839 200.36089283996384 L 256.6049361137839 200.36089283996384 L 256.6049361137839 134.84558861441224" stroke-linecap="round" stroke-linejoin="round" stroke-miterlimit="10" stroke-width="2.5" stroke-opacity="0.9" stroke-dasharray=""/></g></g><g id="sketch-d9353036"><title>θ</title></g></g><g id="labels-d9353036"><g transform="rotate(0,0,0) translate(218.8563380353279,180.51584343157214)"><g class="dcg-svg-label"><g transform="translate(-4.284453880054457,-8.803334276298699)"><g><text fill="none" stroke="#FFF" font-family="arial, sans-serif" font-size="15.4px" font-style="normal" font-weight="400" text-decoration="normal" x="0" y="13.688796948242187" text-anchor="start" stroke-linecap="round" stroke-linejoin="round" stroke-miterlimit="2" stroke-width="3" stroke-opacity="0.9" stroke-dasharray="">θ</text></g></g><g transform="translate(-4.284453880054457,-8.803334276298699)"><g><text fill="rgb(45, 112, 179)" stroke="none" font-family="arial, sans-serif" font-size="15.4px" font-style="normal" font-weight="400" text-decoration="normal" x="0" y="13.688796948242187" text-anchor="start" fill-opacity="0.9">θ</text></g></g></g></g></g></g></svg>