<svg version="1.1" xmlns="http://www.w3.org/2000/svg" xmlns:xlink="http://www.w3.org/1999/xlink" width="800" height="800"><defs/><g transform="scale(2,2)"><g id="background-3dc44739"><rect fill="white" stroke="none" x="0" y="0" width="400" height="400" class="dcg-svg-background"/></g><g id="background-images-3dc44739"/><g id="graphpaper-3dc44739"><g id="grid-3dc44739"><g><path fill="none" stroke="rgb(0,0,0)" class="dcg-svg-minor-gridline" paint-order="fill stroke markers" d=" M 16.5 0 L 16.5 400" stroke-opacity="0.2" stroke-miterlimit="10" stroke-dasharray=""/><path fill="none" stroke="rgb(0,0,0)" class="dcg-svg-minor-gridline" paint-order="fill stroke markers" d=" M 50.5 0 L 50.5 400" stroke-opacity="0.2" stroke-miterlimit="10" stroke-dasharray=""/><path fill="none" stroke="rgb(0,0,0)" class="dcg-svg-minor-gridline" paint-order="fill stroke markers" d=" M 83.5 0 L 83.5 400" stroke-opacity="0.2" stroke-miterlimit="10" stroke-dasharray=""/><path fill="none" stroke="rgb(0,0,0)" class="dcg-svg-minor-gridline" paint-order="fill stroke markers" d=" M 117.5 0 L 117.5 400" stroke-opacity="0.2" stroke-miterlimit="10" stroke-dasharray=""/><path fill="none" stroke="rgb(0,0,0)" class="dcg-svg-minor-gridline" paint-order="fill stroke markers" d=" M 150.5 0 L 150.5 400" stroke-opacity="0.2" stroke-miterlimit="10" stroke-dasharray=""/><path fill="none" stroke="rgb(0,0,0)" class="dcg-svg-minor-gridline" paint-order="fill stroke markers" d=" M 218.5 0 L 218.5 400" stroke-opacity="0.2" stroke-miterlimit="10" stroke-dasharray=""/><path fill="none" stroke="rgb(0,0,0)" class="dcg-svg-minor-gridline" paint-order="fill stroke markers" d=" M 251.5 0 L 251.5 400" stroke-opacity="0.2" stroke-miterlimit="10" stroke-dasharray=""/><path fill="none" stroke="rgb(0,0,0)" class="dcg-svg-minor-gridline" paint-order="fill stroke markers" d=" M 285.5 0 L 285.5 400" stroke-opacity="0.2" stroke-miterlimit="10" stroke-dasharray=""/><path fill="none" stroke="rgb(0,0,0)" class="dcg-svg-minor-gridline" paint-order="fill stroke markers" d=" M 319.5 0 L 319.5 400" stroke-opacity="0.2" stroke-miterlimit="10" stroke-dasharray=""/><path fill="none" stroke="rgb(0,0,0)" class="dcg-svg-minor-gridline" paint-order="fill stroke markers" d=" M 352.5 0 L 352.5 400" stroke-opacity="0.2" stroke-miterlimit="10" stroke-dasharray=""/><path fill="none" stroke="rgb(0,0,0)" class="dcg-svg-minor-gridline" paint-order="fill stroke markers" d=" M 386.5 0 L 386.5 400" stroke-opacity="0.2" stroke-miterlimit="10" stroke-dasharray=""/><path fill="none" stroke="rgb(0,0,0)" class="dcg-svg-minor-gridline" paint-order="fill stroke markers" d=" M 0 381.5 L 400 381.5" stroke-opacity="0.2" stroke-miterlimit="10" stroke-dasharray=""/><path fill="none" stroke="rgb(0,0,0)" class="dcg-svg-minor-gridline" paint-order="fill stroke markers" d=" M 0 347.5 L 400 347.5" stroke-opacity="0.2" stroke-miterlimit="10" stroke-dasharray=""/><path fill="none" stroke="rgb(0,0,0)" class="dcg-svg-minor-gridline" paint-order="fill stroke markers" d=" M 0 280.5 L 400 280.5" stroke-opacity="0.2" stroke-miterlimit="10" stroke-dasharray=""/><path fill="none" stroke="rgb(0,0,0)" class="dcg-svg-minor-gridline" paint-order="fill stroke markers" d=" M 0 246.5 L 400 246.5" stroke-opacity="0.2" stroke-miterlimit="10" stroke-dasharray=""/><path fill="none" stroke="rgb(0,0,0)" class="dcg-svg-minor-gridline" paint-order="fill stroke markers" d=" M 0 213.5 L 400 213.5" stroke-opacity="0.2" stroke-miterlimit="10" stroke-dasharray=""/><path fill="none" stroke="rgb(0,0,0)" class="dcg-svg-minor-gridline" paint-order="fill stroke markers" d=" M 0 179.5 L 400 179.5" stroke-opacity="0.2" stroke-miterlimit="10" stroke-dasharray=""/><path fill="none" stroke="rgb(0,0,0)" class="dcg-svg-minor-gridline" paint-order="fill stroke markers" d=" M 0 145.5 L 400 145.5" stroke-opacity="0.2" stroke-miterlimit="10" stroke-dasharray=""/><path fill="none" stroke="rgb(0,0,0)" class="dcg-svg-minor-gridline" paint-order="fill stroke markers" d=" M 0 112.5 L 400 112.5" stroke-opacity="0.2" stroke-miterlimit="10" stroke-dasharray=""/><path fill="none" stroke="rgb(0,0,0)" class="dcg-svg-minor-gridline" paint-order="fill stroke markers" d=" M 0 78.5 L 400 78.5" stroke-opacity="0.2" stroke-miterlimit="10" stroke-dasharray=""/><path fill="none" stroke="rgb(0,0,0)" class="dcg-svg-minor-gridline" paint-order="fill stroke markers" d=" M 0 44.5 L 400 44.5" stroke-opacity="0.2" stroke-miterlimit="10" stroke-dasharray=""/><path fill="none" stroke="rgb(0,0,0)" class="dcg-svg-minor-gridline" paint-order="fill stroke markers" d=" M 0 11.5 L 400 11.5" stroke-opacity="0.2" stroke-miterlimit="10" stroke-dasharray=""/><path fill="none" stroke="rgb(0,0,0)" class="dcg-svg-major-gridline" paint-order="fill stroke markers" d=" M 50.5 0 L 50.5 400" stroke-opacity="0.2500000000000001" stroke-miterlimit="10" stroke-dasharray=""/><path fill="none" stroke="rgb(0,0,0)" class="dcg-svg-major-gridline" paint-order="fill stroke markers" d=" M 319.5 0 L 319.5 400" stroke-opacity="0.2500000000000001" stroke-miterlimit="10" stroke-dasharray=""/><path fill="none" stroke="rgb(0,0,0)" class="dcg-svg-major-gridline" paint-order="fill stroke markers" d=" M 0 179 L 400 179" stroke-opacity="0.2500000000000001" stroke-miterlimit="10" stroke-dasharray=""/><path fill="none" stroke="rgb(0,0,0)" class="dcg-svg-major-gridline" paint-order="fill stroke markers" d=" M 0 45 L 400 45" stroke-opacity="0.2500000000000001" stroke-miterlimit="10" stroke-dasharray=""/></g></g><g id="axis-3dc44739"><g id="yaxis-3dc44739"><title>Y axis</title><path fill="none" stroke="rgb(0,0,0)" class="dcg-svg-axis-line" paint-order="fill stroke markers" d=" M 185 0 L 185 400" stroke-opacity="0.9" stroke-miterlimit="10" stroke-width="1.5" stroke-dasharray=""/></g><g id="xaxis-3dc44739"><title>X axis</title><path fill="none" stroke="rgb(0,0,0)" class="dcg-svg-axis-line" paint-order="fill stroke markers" d=" M 0 314 L 400 314" stroke-opacity="0.9" stroke-miterlimit="10" stroke-width="1.5" stroke-dasharray=""/></g><g><g class="dcg-svg-axis-value"><text fill="none" stroke="#ffffff" font-family="Arial" font-size="14px" font-style="normal" font-weight="normal" text-decoration="normal" x="175.66446456708036" y="329.75085182685683" text-anchor="middle" stroke-miterlimit="2" stroke-width="3" stroke-dasharray="">0</text><text fill="#000000" stroke="none" font-family="Arial" font-size="14px" font-style="normal" font-weight="normal" text-decoration="normal" x="175.66446456708036" y="329.75085182685683" text-anchor="middle">0</text></g><g class="dcg-svg-axis-value"><text fill="none" stroke="#ffffff" font-family="Arial" font-size="14px" font-style="normal" font-weight="normal" text-decoration="normal" x="47.75233930551076" y="329.75085182685683" text-anchor="middle" stroke-miterlimit="2" stroke-width="3" stroke-dasharray="">-2</text><text fill="#000000" stroke="none" font-family="Arial" font-size="14px" font-style="normal" font-weight="normal" text-decoration="normal" x="47.75233930551076" y="329.75085182685683" text-anchor="middle">-2</text></g><g class="dcg-svg-axis-value"><text fill="none" stroke="#ffffff" font-family="Arial" font-size="14px" font-style="normal" font-weight="normal" text-decoration="normal" x="319.03166795364996" y="329.75085182685683" text-anchor="middle" stroke-miterlimit="2" stroke-width="3" stroke-dasharray="">2</text><text fill="#000000" stroke="none" font-family="Arial" font-size="14px" font-style="normal" font-weight="normal" text-decoration="normal" x="319.03166795364996" y="329.75085182685683" text-anchor="middle">2</text></g><g class="dcg-svg-axis-value"><text fill="none" stroke="#ffffff" font-family="Arial" font-size="14px" font-style="normal" font-weight="normal" text-decoration="normal" x="175.66446456708036" y="183.27671484653723" text-anchor="middle" stroke-miterlimit="2" stroke-width="3" stroke-dasharray="">2</text><text fill="#000000" stroke="none" font-family="Arial" font-size="14px" font-style="normal" font-weight="normal" text-decoration="normal" x="175.66446456708036" y="183.27671484653723" text-anchor="middle">2</text></g><g class="dcg-svg-axis-value"><text fill="none" stroke="#ffffff" font-family="Arial" font-size="14px" font-style="normal" font-weight="normal" text-decoration="normal" x="175.66446456708036" y="48.80257786621764" text-anchor="middle" stroke-miterlimit="2" stroke-width="3" stroke-dasharray="">4</text><text fill="#000000" stroke="none" font-family="Arial" font-size="14px" font-style="normal" font-weight="normal" text-decoration="normal" x="175.66446456708036" y="48.80257786621764" text-anchor="middle">4</text></g></g></g></g><g id="expressions-3dc44739"><g id="sketch-3dc44739"><title>Expression 1</title><path fill="#c74440" stroke="none" paint-order="stroke fill markers" d="" fill-opacity="0.4"/><g><path fill="none" stroke="#c74440" class="dcg-svg-curve" paint-order="fill stroke markers" d=" M 0 234.9057288704958 L 0 234.9057288704958 L 2.636718749999991 232.11624132659736 L 5.17578125 229.0372352530949 L 7.617187499999997 225.66816248527658 L 9.960937500000012 222.0092463551076 L 12.207031250000016 218.0621183247686 L 14.355468749999979 213.83049158386132 L 16.406250000000018 209.32087241464606 L 18.457031249999996 204.29098852557084 L 20.410156250000025 198.95214910444318 L 22.363281249999993 193.00466497075575 L 24.21875000000001 186.71279894704904 L 26.074218749999996 179.7070990241269 L 27.92968750000001 171.88411678872413 L 29.687499999999986 163.607382679366 L 31.44531249999999 154.36116128476857 L 33.20312499999999 143.99545952099328 L 34.863281249999986 133.0153756062959 L 36.52343750000001 120.69247685974949 L 38.18359375 106.80514635696596 L 39.74609374999998 92.06483279793338 L 41.30859374999999 75.42636816370276 L 42.87109375 56.55515367931537 L 44.33593749999997 36.4704580180524 L 45.80078125 13.64341912387033 L 46.87572390664919 -5.5" stroke-linecap="round" stroke-linejoin="round" stroke-miterlimit="10" stroke-width="2.5" stroke-opacity="0.9" stroke-dasharray=""/></g><g><path fill="none" stroke="#c74440" class="dcg-svg-curve" paint-order="fill stroke markers" d=" M 111.01003054817673 -5.5 L 111.01003054817673 -5.5 L 112.01171875000001 12.457455335555721 L 113.4765625 35.42983019060364 L 115.0390625 56.89692719046707 L 116.6015625 75.72697026087945 L 118.1640625 92.33054726048721 L 119.82421874999999 107.9041644460799 L 121.48437499999999 121.66575642321044 L 123.14453125 133.8810257624043 L 124.90234375 145.37153574093946 L 126.66015625 155.58666629135462 L 128.515625 165.1800965853876 L 130.37109375 173.7203388263739 L 132.2265625 181.3495769865543 L 134.1796875 188.5262308357773 L 136.13281250000003 194.94023942885164 L 138.18359375 200.95973135003752 L 140.234375 206.33868479856312 L 142.3828125 211.37236266251927 L 144.53125000000003 215.86538811643516 L 146.77734375000003 220.05387364456217 L 149.0234375 223.7828212193363 L 151.36718750000003 227.23992748699754 L 153.80859374999997 230.42237927164564 L 156.34765625 233.32867883199376 L 158.98437499999997 235.95803629706336 L 161.81640625 238.38720066109502 L 164.84374999999997 240.57759393772557 L 167.87109375000003 242.38849189521892 L 170.8984375 243.85279459766747 L 173.92578125 244.99623116724453 L 176.953125 245.83834950094175 L 179.8828125 246.37971901762845 L 182.8125 246.6604734932701 L 185.7421875 246.6849064363225 L 188.671875 246.4533902223606 L 191.6015625 245.9623882039746 L 194.53125 245.20433933422922 L 197.4609375 244.16740880122003 L 200.390625 242.83509042447497 L 203.32031249999997 241.18563755910714 L 206.24999999999997 239.19128813769518 L 209.17968749999997 236.8172351232459 L 211.9140625 234.22090474800095 L 214.55078125 231.3282718859853 L 216.9921875 228.26835971741312 L 219.33593750000003 224.9434173393292 L 221.58203125 221.35699463629194 L 223.828125 217.3294664185466 L 225.97656249999997 213.01085130723519 L 228.02734375000003 208.40731382968048 L 230.078125 203.27093840058228 L 232.03125 197.81686118970336 L 233.984375 191.73816903748684 L 235.83984375000003 185.3041384164352 L 237.69531249999997 178.1360122320908 L 239.55078125 170.12648313097623 L 241.30859375000003 161.64646312607493 L 243.06640625 152.1660227838735 L 244.82421875 141.52894996350363 L 246.484375 130.2514742106339 L 248.14453125 117.58292522930986 L 249.70703125000003 104.18178498548656 L 251.26953124999997 89.10923784117023 L 252.83203124999997 72.08106782617381 L 254.39453125 52.74962496255017 L 255.859375 32.15456548279877 L 257.32421875 8.722697062978625 L 258.1013367835183 -5.5" stroke-linecap="round" stroke-linejoin="round" stroke-miterlimit="10" stroke-width="2.5" stroke-opacity="0.9" stroke-dasharray=""/></g><g><path fill="none" stroke="#c74440" class="dcg-svg-curve" paint-order="fill stroke markers" d=" M 322.2415384256124 -5.5 L 322.2415384256124 -5.5 L 323.2421875 12.440520567293277 L 324.70703125 35.41497273503586 L 326.26953125 56.8839302223368 L 327.83203125 75.71553847129053 L 329.39453124999994 92.3204418402658 L 331.0546875 107.89525568977325 L 332.71484375 121.6578655961232 L 334.37500000000006 133.87400646318594 L 336.13281249999994 145.36530799083664 L 337.890625 155.58111864609785 L 339.74609375 165.17516700573367 L 341.6015625 173.7159423584919 L 343.45703125 181.34564300268974 L 345.41015625 188.52272002360095 L 347.36328125 194.9370971560086 L 349.4140625 200.95692683932793 L 351.46484375 206.33617574836262 L 353.61328125 211.37012506710596 L 355.76171875 215.8633891967803 L 358.0078125 220.05209477206145 L 360.25390625 223.78123699959997 L 362.59765625000006 227.23852358586223 L 365.0390625 230.42114237991103 L 367.578125 233.3275967533102 L 370.21484375 235.9570980104074 L 373.04687499999994 238.38640090227238 L 376.07421875 240.57692739959165 L 379.10156250000006 242.3879462481283 L 382.12890625 243.852360108448 L 385.15625 244.99590031742792 L 388.18359374999994 245.83811670330752 L 391.11328125 246.37957741748383 L 394.04296874999994 246.66042091837747 L 396.97265625 246.6849420851833 L 399.90234375 246.45351463814032 L 400 246.44136227088268" stroke-linecap="round" stroke-linejoin="round" stroke-miterlimit="10" stroke-width="2.5" stroke-opacity="0.9" stroke-dasharray=""/></g></g><g id="sketch-3dc44739"><title>Expression 2</title><path fill="#2d70b3" stroke="none" paint-order="stroke fill markers" d="" fill-opacity="0.4"/><g><path fill="none" stroke="#2d70b3" class="dcg-svg-curve" paint-order="fill stroke markers" d=" M 0 285.77547583384694 L 0 285.77547583384694 L 4.980468749999977 279.72201676354564 L 9.375000000000002 273.9903060811169 L 13.378906250000009 268.3670840179816 L 16.9921875 262.88880455292394 L 20.410156250000025 257.2788034758248 L 23.535156250000018 251.71229974373577 L 26.464843750000014 246.04065821625576 L 29.199218749999986 240.27767972993777 L 31.835937500000007 234.21227734661895 L 34.27734375000001 228.0707455104241 L 36.62109375000002 221.61398705400518 L 38.86718749999999 214.8183232369463 L 41.015625000000014 207.66081149566273 L 43.06640624999999 200.11998089477635 L 45.01953124999999 192.17680861239432 L 46.87499999999998 183.81598505342976 L 48.73046874999999 174.51145791210652 L 50.48828125 164.65799426221352 L 52.14843749999999 154.240683779111 L 53.808593750000014 142.52509177544562 L 55.37109374999999 130.06642455372292 L 56.83593750000001 116.8571426812552 L 58.30078125000001 101.84537977654486 L 59.66796874999998 85.84523037137274 L 61.03515624999999 67.47375522541802 L 62.304687500000014 47.77992086859382 L 63.57421875 24.903887468025403 L 64.74609375 0.2245256248761507 L 64.97702816930911 -5.5" stroke-linecap="round" stroke-linejoin="round" stroke-miterlimit="10" stroke-width="2.5" stroke-opacity="0.9" stroke-dasharray=""/></g><g><path fill="none" stroke="#2d70b3" class="dcg-svg-curve" paint-order="fill stroke markers" d=" M 121.55880904589895 405.5 L 121.55880904589895 405.5 L 122.55859374999999 402.62763769566175 L 125 396.24188107124 L 127.53906250000001 390.1762596145883 L 130.2734375 384.1991406917175 L 133.10546875 378.5215491999073 L 136.13281250000003 372.93915189018435 L 139.35546875000003 367.46155296748844 L 142.87109375 361.9431774769249 L 146.67968749999997 356.4113196740606 L 150.78125 350.8797186636507 L 155.2734375 345.23076630530045 L 160.3515625 339.25178834378056 L 166.2109375 332.7587586596987 L 173.33984375000003 325.26579202158854 L 183.984375 314.51602168347404 L 198.24218750000003 300.06605401268877 L 205.37109375000003 292.4379641317361 L 211.1328125 285.8913887207931 L 216.11328125 279.8461508084821 L 220.5078125 274.12369531120964 L 224.51171875000003 268.510943189395 L 228.125 263.04418719686856 L 231.54296875 257.4473397813367 L 234.66796875 251.89524053812661 L 237.59765625 246.23966102464 L 240.33203125000003 240.49443506937018 L 242.96875 234.4492751083669 L 245.41015625 228.32986747580424 L 247.75390625 221.89813419350116 L 250 215.130762796889 L 252.1484375 208.00521554686352 L 254.19921875000003 200.50046357505676 L 256.15234374999994 192.5979593066678 L 258.0078125 184.28289356959266 L 259.86328125 175.032845936411 L 261.62109375 165.24115848523374 L 263.28124999999994 154.89372319704475 L 264.94140625 143.26231511640026 L 266.50390625 130.8996712640827 L 267.96875 117.79950948610872 L 269.43359375 102.92088429953424 L 270.80078125 87.0733188630665 L 272.16796875 68.89061885571402 L 273.4375 49.41524714843399 L 274.70703125 26.813862884453897 L 275.87890625000006 2.4559361536071265 L 276.2044728466659 -5.5" stroke-linecap="round" stroke-linejoin="round" stroke-miterlimit="10" stroke-width="2.5" stroke-opacity="0.9" stroke-dasharray=""/></g><g><path fill="none" stroke="#2d70b3" class="dcg-svg-curve" paint-order="fill stroke markers" d=" M 332.79028370886954 405.5 L 332.79028370886954 405.5 L 333.78906250000006 402.6304094420853 L 336.23046875 396.24440847308625 L 338.76953125 390.17857182346785 L 341.50390625 384.20125695614985 L 344.3359375 378.5234941474701 L 347.36328125 372.9409424601692 L 350.58593750000006 367.4632056156238 L 354.1015625 361.9447047558963 L 357.91015624999994 356.41273495727575 L 362.01171875 350.8810356517001 L 366.50390625000006 345.2319970467883 L 371.58203125 339.252943358151 L 377.44140625000006 332.75984955841716 L 384.5703125 325.2668323823649 L 395.21484375 314.5170334247206 L 400 309.7263488549144" stroke-linecap="round" stroke-linejoin="round" stroke-miterlimit="10" stroke-width="2.5" stroke-opacity="0.9" stroke-dasharray=""/></g></g><g id="sketch-3dc44739"><title>Expression 3</title><path fill="#388c46" stroke="none" paint-order="stroke fill markers" d="" fill-opacity="0.4"/><g><path fill="none" stroke="#388c46" class="dcg-svg-curve" paint-order="fill stroke markers" d=" M 251.44749977223697 400 L 251.44749977223697 400 L 251.44749977223697 0" stroke-linecap="round" stroke-linejoin="round" stroke-miterlimit="10" stroke-width="2.5" stroke-opacity="0.9" stroke-dasharray=""/></g></g><g id="sketch-3dc44739"><title>intersect with tan(x)</title><path fill="none" stroke="#6042a6" class="dcg-svg-point" paint-order="fill stroke markers" d=" M 251.34749977223697 210.30684578925826 L 251.34749977223697 210.50684578925825 L 251.54749977223696 210.50684578925825 L 251.54749977223696 210.30684578925826" stroke-linecap="round" stroke-linejoin="round" stroke-miterlimit="10" stroke-width="7.5" stroke-opacity="0.9" stroke-dasharray=""/></g><g id="sketch-3dc44739"><title>intersect with sec(x)sec(x)</title><path fill="none" stroke="#000000" class="dcg-svg-point" paint-order="fill stroke markers" d=" M 251.34749977223697 87.17431514610385 L 251.34749977223697 87.37431514610384 L 251.54749977223696 87.37431514610384 L 251.54749977223696 87.17431514610385" stroke-linecap="round" stroke-linejoin="round" stroke-miterlimit="10" stroke-width="7.5" stroke-opacity="0.9" stroke-dasharray=""/></g></g><g id="labels-3dc44739"><g transform="rotate(0,0,0) translate(251.44749977223697,210.40684578925826)"><g class="dcg-svg-label"><g transform="translate(6.9978127277630335,-25.000595789258256)"><g><text fill="none" stroke="#FFF" font-family="arial, sans-serif" font-size="15.4px" font-style="normal" font-weight="400" text-decoration="normal" x="0" y="13.9888" text-anchor="start" stroke-linecap="round" stroke-linejoin="round" stroke-miterlimit="2" stroke-width="3" stroke-opacity="0.9" stroke-dasharray="">intersect with tan(x)</text></g></g><g transform="translate(6.9978127277630335,-25.000595789258256)"><g><text fill="rgb(96, 66, 166)" stroke="none" font-family="arial, sans-serif" font-size="15.4px" font-style="normal" font-weight="400" text-decoration="normal" x="0" y="13.9888" text-anchor="start" fill-opacity="0.9">intersect with tan(x)</text></g></g></g></g><g transform="rotate(0,0,0) translate(251.44749977223697,87.27431514610385)"><g class="dcg-svg-label"><g transform="translate(-184.99437477223697,6.999122353896155)"><g><text fill="none" stroke="#FFF" font-family="arial, sans-serif" font-size="15.4px" font-style="normal" font-weight="400" text-decoration="normal" x="0" y="13.9888" text-anchor="start" stroke-linecap="round" stroke-linejoin="round" stroke-miterlimit="2" stroke-width="3" stroke-opacity="0.9" stroke-dasharray="">intersect with sec(x)sec(x)</text></g></g><g transform="translate(-184.99437477223697,6.999122353896155)"><g><text fill="rgb(0, 0, 0)" stroke="none" font-family="arial, sans-serif" font-size="15.4px" font-style="normal" font-weight="400" text-decoration="normal" x="0" y="13.9888" text-anchor="start" fill-opacity="0.9">intersect with sec(x)sec(x)</text></g></g></g></g></g></g></svg>