<?xml version="1.0" encoding="utf-8"?>
<!-- Generator: Adobe Illustrator 18.1.0, SVG Export Plug-In . SVG Version: 6.00 Build 0)  -->
<!DOCTYPE svg PUBLIC "-//W3C//DTD SVG 1.1//EN" "http://www.w3.org/Graphics/SVG/1.1/DTD/svg11.dtd">
<svg version="1.1" id="Layer_1" xmlns="http://www.w3.org/2000/svg" xmlns:xlink="http://www.w3.org/1999/xlink" x="0px" y="0px"
	 viewBox="0 0 971.3607178 806.9512939" enable-background="new 0 0 971.3607178 806.9512939" xml:space="preserve">
<metadata><?xpacket begin="﻿" id="W5M0MpCehiHzreSzNTczkc9d"?>
<x:xmpmeta xmlns:x="adobe:ns:meta/" x:xmptk="Adobe XMP Core 5.6-c014 79.156821, 2014/08/29-03:07:50        ">
   <rdf:RDF xmlns:rdf="http://www.w3.org/1999/02/22-rdf-syntax-ns#">
      <rdf:Description rdf:about=""
            xmlns:xmp="http://ns.adobe.com/xap/1.0/"
            xmlns:xmpGImg="http://ns.adobe.com/xap/1.0/g/img/"
            xmlns:pdfx="http://ns.adobe.com/pdfx/1.3/"
            xmlns:pdf="http://ns.adobe.com/pdf/1.3/"
            xmlns:xmpTPg="http://ns.adobe.com/xap/1.0/t/pg/"
            xmlns:stDim="http://ns.adobe.com/xap/1.0/sType/Dimensions#"
            xmlns:xmpG="http://ns.adobe.com/xap/1.0/g/"
            xmlns:dc="http://purl.org/dc/elements/1.1/"
            xmlns:xmpMM="http://ns.adobe.com/xap/1.0/mm/"
            xmlns:stRef="http://ns.adobe.com/xap/1.0/sType/ResourceRef#"
            xmlns:stEvt="http://ns.adobe.com/xap/1.0/sType/ResourceEvent#">
         <xmp:CreateDate>2014-12-10T23:16:36-05:00</xmp:CreateDate>
         <xmp:CreatorTool>Adobe Illustrator CC 2014 (Macintosh)</xmp:CreatorTool>
         <xmp:ModifyDate>2014-12-10T23:16:36-05:00</xmp:ModifyDate>
         <xmp:MetadataDate>2014-12-10T23:16:36-05:00</xmp:MetadataDate>
         <xmp:Thumbnails>
            <rdf:Alt>
               <rdf:li rdf:parseType="Resource">
                  <xmpGImg:width>256</xmpGImg:width>
                  <xmpGImg:height>216</xmpGImg:height>
                  <xmpGImg:format>JPEG</xmpGImg:format>
                  <xmpGImg:image>/9j/4AAQSkZJRgABAgEASABIAAD/7QAsUGhvdG9zaG9wIDMuMAA4QklNA+0AAAAAABAASAAAAAEA&#xA;AQBIAAAAAQAB/+4ADkFkb2JlAGTAAAAAAf/bAIQABgQEBAUEBgUFBgkGBQYJCwgGBggLDAoKCwoK&#xA;DBAMDAwMDAwQDA4PEA8ODBMTFBQTExwbGxscHx8fHx8fHx8fHwEHBwcNDA0YEBAYGhURFRofHx8f&#xA;Hx8fHx8fHx8fHx8fHx8fHx8fHx8fHx8fHx8fHx8fHx8fHx8fHx8fHx8fHx8f/8AAEQgA2AEAAwER&#xA;AAIRAQMRAf/EAaIAAAAHAQEBAQEAAAAAAAAAAAQFAwIGAQAHCAkKCwEAAgIDAQEBAQEAAAAAAAAA&#xA;AQACAwQFBgcICQoLEAACAQMDAgQCBgcDBAIGAnMBAgMRBAAFIRIxQVEGE2EicYEUMpGhBxWxQiPB&#xA;UtHhMxZi8CRygvElQzRTkqKyY3PCNUQnk6OzNhdUZHTD0uIIJoMJChgZhJRFRqS0VtNVKBry4/PE&#xA;1OT0ZXWFlaW1xdXl9WZ2hpamtsbW5vY3R1dnd4eXp7fH1+f3OEhYaHiImKi4yNjo+Ck5SVlpeYmZ&#xA;qbnJ2en5KjpKWmp6ipqqusra6voRAAICAQIDBQUEBQYECAMDbQEAAhEDBCESMUEFURNhIgZxgZEy&#xA;obHwFMHR4SNCFVJicvEzJDRDghaSUyWiY7LCB3PSNeJEgxdUkwgJChgZJjZFGidkdFU38qOzwygp&#xA;0+PzhJSktMTU5PRldYWVpbXF1eX1RlZmdoaWprbG1ub2R1dnd4eXp7fH1+f3OEhYaHiImKi4yNjo&#xA;+DlJWWl5iZmpucnZ6fkqOkpaanqKmqq6ytrq+v/aAAwDAQACEQMRAD8A9U4q7FXYq7FXYq7FXYq7&#xA;FXYq7FXYq7FXYq7FXYqhdW/45V7/AMYJf+IHFUJ5T/5RXRv+YG2/5Mriqa4q7FXYq7FXYq7FXYq7&#xA;FXYq7FXYq7FXYq7FXYq7FXYq7FXYq7FXYq7FXYq7FXYq7FXYq7FXYq7FULq3/HKvf+MEv/EDiqE8&#xA;p/8AKK6N/wAwNt/yZXFU1xV2KuxV2KuxV2KuxV2KuxV2KuxV2KuxV2KuxVh36Q8xeU/h1Yy615dX&#xA;pqyLyvbZR/y1RIP3yD/fqCo/aXvmLxSx/V6o9/Ue/wDW77wMGt/uqxZ/5n8Ev6hP0n+idu49GV2V&#xA;7Z31pFeWcyXFrOoeGeJgyMp7gjbMmMgRY5Oly4p45GEwYyHMFWwtbsVdirsVdirsVdirsVdirsVd&#xA;irsVdiqF1b/jlXv/ABgl/wCIHFUJ5T/5RXRv+YG2/wCTK4qmuKuxV2KuxV2KuxV2KuxV2KuxV2Ku&#xA;xV2KuxV2KuxVit75SvNNu5dU8oypZXMrc7zSpa/Ubo9yVFTBKf8AfiD/AFgcxpYTE8UNvLof1O6x&#xA;dpQyxGPVAziPpmPrh/xUf6MvgQjtA822eqzPYXEMmm63AK3Ok3NBKo6c4yPhljr0dKj5ZPHmEtjt&#xA;LucfW9mzwgTiRkwnlOPL3H+bL+iU8y51rsVdirsVdirsVdirsVdirsVdirsVQurf8cq9/wCMEv8A&#xA;xA4qhPKf/KK6N/zA23/JlcVTXFXYq7FXYq7FXYq7FXYq7FXYq7FXYq7FXYq7FXYq7FUr1/y1pWuQ&#xA;xreIyXEB52l9AxjuYH/nhlHxKfwPcHK8mKM+f7XN0evy6ckwPpl9UTvGQ7pDr+KSNfMOteWGW381&#xA;f6VpVQkHmSFKKtdgL6Ja+ke3qL8B78cp8SWPae4/nfr/AFuxOiw6v1ab05OuIn/pmf4v6p9XdxMu&#xA;ililjWWJ1kicBkdSGVgdwQR1GZQNuilExNHYhdih2KuxV2KuxV2KuxV2KuxV2KoXVv8AjlXv/GCX&#xA;/iBxVCeU/wDlFdG/5gbb/kyuKprirsVdirsVdirsVdirsVdirsVdirsVdirsVdirsVdirsVaZVdS&#xA;jgMrAhlIqCD1BGKQSDYYjL5a1by7I935RKvZMxe58tzNxgYndjaSGv1dz/L/AHZ8F65inFKG8OX8&#xA;39Xd9zvI6/Fqhw6r6+mUfV/nj+Mef1DzTjy/5o0vW1lS3LwX1sQt7ptwvp3MDHtJGex7MKqexy3H&#xA;mE+XPu6uBrez8mnoy3hL6ZDeMvcf0cx1Cb5a4LsVdirsVdirsVdirsVdiqF1b/jlXv8Axgl/4gcV&#xA;QnlP/lFdG/5gbb/kyuKprirsVdirsVdirsVdirsVdirsVdirsVdirsVdirsVdirsVdirsVSXzB5U&#xA;0/WGjug8ljq1sP8AQ9VtSEuIu/GtCHjP7SPVTlWTCJb8pd7sNF2lPADGhPFL6oS+k/qPdIbpbbea&#xA;9R0a4j0/zgkcHqMEtNdhBFlOTsFlrX6vKf5W+E/st2ysZjE1k+fT9jl5OzseeJyaQmVfVjP1x938&#xA;+PmNx1DLOu4zJdI7FXYq7FXYq7FXYq7FULq3/HKvf+MEv/EDiqE8p/8AKK6N/wAwNt/yZXFU1xV2&#xA;KuxV2KuxV2KuxV2KuxV2KuxV2KuxV2KuxV2KuxV2KuxV2KuxVTubW2ureS2uoknt5lKSwyKHRlOx&#xA;DKagjAQCKLPHklCQlEkSHIhiX6I17yp+88vq+q6Cv29Bkf8AfwL3NlM5+ID/AHy5/wBUjpmNwSx/&#xA;TvHu/V+p3f5rBrds9Y83+qAemX/DIj/dx+ILINC8w6TrlobnTpvUCMUnhYFJoZB1jljajI48CMux&#xA;5YzFh1ms0WXTy4cgq+R5gjvieRCY5Y4jsVdirsVdirsVQurf8cq9/wCMEv8AxA4qhPKf/KK6N/zA&#xA;23/JlcVTXFXYq7FXYq7FXYq7FXYq7FXYq7FXYq7FXYq7FXYq7FXYq7FXYq7FXYq5mVVLMQFAqSdg&#xA;AMQFedavrn5eaprEdzpXmKHTPMYb0LfVYCfQnYbehM5At7la/scuX8pBzMzdg6qvEEJRIF+deced&#xA;e8O20naE8cPDyR8TCf4T084nnE+74gp9pnm6e3vYtH80QLpmqynjbXKkmxuyP+WeVvsuf99P8XhX&#xA;NXDMQeGe0vsPu/Uy1HZkZQOXTHxMY5j+OH9Yd39Ibe5k+ZDp3Yq7FXYq7FULq3/HKvf+MEv/ABA4&#xA;qhPKf/KK6N/zA23/ACZXFU1xVjLfmZ5CW8NodbtvUEnomWp9AS9OBuKeiG9udc2Y7H1fDxeHLlfn&#xA;Xfw/VXwZcBZMCCKjpmsYuxV2KuxV2KuxV2KuxV2KsauvzL8h2t89lPrVuk0TiKZ6kwxyH9iSYAxI&#xA;3szA5sodj6qUeIY5Ud/MjvA5n5MuAskR0dFdGDIwBVgagg7ggjNcRWxYt4FdirsVdirsVdirsVdi&#xA;rsVYTrpl82eY5PK0MjJoOmKkvmSSMkGeSQcodPDDorJ+8mp+zxX9o5utNWlwjOR+9ntj8gOc/f0j&#xA;52ejMbC2U3Gi6RcaU2kzWUL6W0fomyMa+j6dKBQgHEAdqZq4ajJHJ4gkeO7u9797G2IaPZQWd7cf&#xA;l7r6fpHS5YTc+X5rr94ZbRCA9s7NuZbVmXi3UoVPUHNh2hihqcP5gAXfDkj/AEukh5S+yVuRh1E8&#xA;UhkxkxmOoRfp+ZPKW8Pr6/5bU/3JPPULNP8AIJ3uY18D+8A/mzn6ni/pQ+0fr+92vFp9bz4cOo7+&#xA;WOZ8/wCZL/YnyZLpOsaZrFjHf6ZcpdWkn2ZYz3HVWB3Vh3U7jL4TEhYNh1Gp0uTBMwyRMZDofx9q&#xA;MybQ7FXYqhdW/wCOVe/8YJf+IHFUJ5T/AOUV0b/mBtv+TK4qkHmeW58y68PJtnI8WnQxrc+Z7qMl&#xA;W9GT+5skdaFWuKEuR0jH+Vm50URpsX5mQuZNYx5jnM+Uen9L3M47C2UJo2kppf6JWygGl+n6P1H0&#xA;19H0yKFPTpx4+1M1h1GQ5PE4jx3fFe9+9jbFvLrz+VvMC+UrmRpNGvVefyzcSEs0Yj3msGY7n0h8&#xA;cRbcpUV+HNpqwNVh/MRH7yNDIO++U/jyl5+9kdxbNc0rB2KuxV2KuxV2KuxVh3m67vdZ1eDyZpc7&#xA;24mj+s+YL6FuMlvYklVijYfZluWBVT2UM3hm40EI4cZ1OQXRqETylLvP9GPPzNBnHbdkljoej2Ok&#xA;ppFpZwxaZHH6K2YQGP0yKFWU15V7169812TU5J5PElImd3fViSWK6OH8n+ZIfLjMx8tawXbQHck/&#xA;VLlAXksKn/dbIC8NelGXwzaaitXhOb/LY/r/AKUeQn772l8D3sjuL6s3zSMHYqp21zb3VtFdW0iz&#xA;W86LLDKh5K6OOSspHUEGoyU4GMjGQojYqqZFXYq7FXYq7FUq806/B5f8v32rzKZBaxlooR9qWViF&#xA;iiX3kkZVHzzK0WlOfNHGP4jz7h1PwG6YizSH8k6BNonl6C2u2EuqXDNd6tP/AL8vLg+pM1fAMeK/&#xA;5IGWdo6oZsxlHaA9MR3RGw/WfNMjZT3MFixn8wdIu7vRF1HTU5a3ocq6jpdOrvCD6kG2/GeIvGR7&#xA;+2bPsrPGGXgn/d5RwS+PI/5pqXwZQO6daNqtnq+k2eqWT87S+hSeBu/GRQwrTuK75hajBLFkljl9&#xA;UTR+CCKSbV/KEn16TWfLtwNK1t6Gc8S1pd0/ZuoRTke3qLRx4npmDPDvxQNS+w+922m7THAMOoHi&#xA;Yen86H9SX+9PpP2r9F83pc3v6H1i3Ok68oqLSVqxTgdZLSXYSr7faHcDDjzWeGXpl+OTHV9mGEPF&#xA;xHxMP84c4+Ux/CfsPQsiy91TsVQurf8AHKvf+MEv/EDiqS2Os2mifl3Z6veGltY6XDPIB1PCBSFX&#xA;/KY7D3y/S6eWbLHHHnI0kCy35D0a707Q/rOpKP03q0jahq7b7Tz0Ii3/AGYYwsS+y5ldp6iOTLww&#xA;/usY4Y+4df8AONy+KZHdkea5ix/z1oVzq+gOLAhNY0+RL/R5T+zd2/xRg/5MgrG3+SxzYdmamOLL&#xA;6/7uY4Z/1Tz+XMeYZRNFHeW9ctde0Gx1i2BWK9hWX02+0jHZ42/ykcFT7jKNZppYMsscucTX7fjz&#xA;QRRpMsxkOxV2KuxV2KofUtQtNN0661G8cRWlnE89xIf2Y41LMfuGWYcUskxCO8pGh8UgWx78vNNu&#xA;49Il1vUkKaz5hl/SN8rdYldQLe38aQQBUp418c2Ha2aJyDFD+7xDhHn/ADpf50rPupMz0ZTmrYpJ&#xA;5y8vHXvL1zYxOIb5QJ9Nuu8N5CecEoPbi4FfaozN7P1fgZhM7x5SHfE7SHy+1lE0VTylr66/5es9&#xA;U9P0JpkK3dsesNxExjniP+pIrLkdfpfAzSx3YHI98TuD8QiQopvmIhh35eV0xtW8oybfoG5rp9e+&#xA;nXdZrb/kWecX+wzcdrfveDUD/Kx9X9eO0vntL4s577sxzTsHYq7FXYq7FWH+Yf8Ac1530XQB8Vpp&#xA;a/pzUh2LxsYrGM/ObnL/AM8xm30n7nS5Mv8AFP8Adx++Z+VR/wA5mNhbMM1DB2KuxVh/kmmkazrn&#xA;lNvhhs5v0lpK9P8AQr9mcoo8IbkSr7Djm37R/e48eo6yHBL+tDb/AGUeE++2ctxbMM1DBAa1oOk6&#xA;3ZGz1O3WeGodCaq8bj7LxutGRx2ZSDkMmOMxRcnSazLp58eM8J+wjuI5EeRY7+kPMXlL4dWMuteX&#xA;VHw6si8r22Uf8tUaD98g/wB+oOX8y98o4pY/q9Ue/qPf3+92vgYNbvirFn/mfwS/qE/Sf6J27j0Z&#xA;XZXtnfWkV5ZzJcWs6h4Z4mDIynuCNsyYyBFjk6XLinjkYTBjIcwVPVv+OVe/8YJf+IHC1sDkH6Yg&#xA;8keVl+K2Nrbaxq69jbWKRmCNuxEt0yGnghzcdn/ucOTP1rgh/WlzPwhfzDOOwJejZp2DsVdirDvK&#xA;o/Q3m7XfLZ+G1uj+nNKHYR3LcLuNf9S5HOn/ABYM3Gt/fafHm/ij+7l/m/SfjHb/ADWctwCzHNOw&#xA;dirsVdirsVYf59pqt7ovlFfiTVp/rWpqP+rfYFZZFbuBLKYovcMc3HZf7qOTUf6mKj/XnsPkOKXw&#xA;DOO27MM07B2KuxVh+i00Tz7qujEcLPXY/wBM6eOgFwnGG+jHuT6Uv+ybNxqP32khk/ixHw5e7nA/&#xA;7qPwDM7i2YZp2DD/ADN/uI856B5gHw298W0LUj243B9Szc/6twvD/npm30f73TZMPWP7yPw2n/sd&#xA;/wDNZx3BDMM1DB2KuxV2KuJABJNANyTirEPy6U38Oq+apN38w3bS2p7iwtv3FoNuzIhl/wBnm37W&#xA;PhmGAf5KNH+vL1S+30/5rOfcy/NQwdirsVYf50H6K17y/wCaV+GKCf8ARWqMNgbTUGVEZj4R3SxH&#xA;fsTm37O/e4smDqRxx/rQ3PzjxfYzjuCGYZqGDsVdirFb3yleabdy6p5RlSyuZW53mlS1+o3R7kqK&#xA;mCU/78Qf6wOY0sJieKG3l0P6ndYu0oZYjHqgZxH0zH1w/wCKj/Rl8CF9t5ts9VsNQsLiGTTdbgtp&#xA;Tc6Tc0EqjgRzjI+GWOvR0qPlk8eYS2O0u5x9b2bPCBOJGTCeU48vcf5sv6JSP8noZL7TLjzLOpDX&#xA;qW+n2APaz02P0VI9pJ/Vk+RGb3tP91DHp/5keKX9ee/2R4Q4EtqD0PNQwdirsVYf+YNNMl0XzYvw&#xA;jRbtYr9v+XC+Ignr3pGxjl/2Gbfsr94Mmn/1SNx/rw9UfnvH4s4b7MwzUMHYq7FXYq7FWH+Uv9y3&#xA;mnzD5kb4oElGi6WT09GxJNw69iHuncV/yBm31/7rBiw9a8SXvl9PyhX+mZy2ADMM1DB2KuxViH5k&#xA;I9lp1j5nhBM3lu6S9m47s1m4MN6n/Ih2f5qM2/ZB45ywHlmjw/53OH+yFfFnDu72XI6OiujBkYAq&#xA;wNQQdwQRmpIrYsGG+ZvIWravoV5YN5o1KZ5E5W6Sppqp68ZEkLM0VnG44yqp+FgffMvs/U+Bnjk5&#xA;gHfzB2I+ItMTRWeUrfWdf8t6fq/+KdVikuoQbiH0tL/dzqSk0W9jX93KrL9GDX6bwM8sfSJ28xzB&#xA;+IorIUaTb/DOtf8AU2ar/wAitK/7IcxEO/wzrX/U2ar/AMitK/7IcVd/hnWv+ps1X/kVpX/ZDirG&#xA;/P2m+YLPQhaWvmnU5r/WbiLS7SKSPTQpa6bjIzGKzjkAjh5uSrA7dc2nZGKJz8cvoxAzP+byHxND&#xA;4soDdPrHyZqFhZW9jaeadVitbWJILeIRaXRY41CoorY9lFM1+XLLJMzl9UjZ95Ykq3+Gda/6mzVf&#xA;+RWlf9kOVq7/AAzrX/U2ar/yK0r/ALIcVd/hnWv+ps1X/kVpX/ZDiqB1zyHqGr6PeaZdeaNTlgu4&#xA;midHi0zjuNiSlmj7Hf4WB8CMyNJqTgyxyDnEg/s+KQaNoHyTb+YNc8tWl7c+aNUhv1522o26x6WR&#xA;Hd2zmGdPismagkQ0qemX9p6YYc8ox+g7x/qy3j9hTIUU8/wzrX/U2ar/AMitK/7IcwGLv8M61/1N&#xA;mq/8itK/7IcVd/hnWv8AqbNV/wCRWlf9kOKsN/NbyzLB5XkvrnX9RvdSikjh0dXTTo2+tXDiKMCS&#xA;G0ilC1arhXFVBzK0WghqcojOxCNylIcxGIs0e/u83P0GuyaeVx+k/VE7xkO6Q6/ikD5bTzH5b0HS&#xA;otZ12/tPLj2tv9Q1Kwh0829sjxqViukltJpUoTT1S7Kf2uOYGbV5DMyzHi4jfF+vu+73OfLRYtZ6&#xA;tN6cvXET/wBM5H6v6p9XdbPovL2qyxrLF5v1SSJwGR1j0llYHcEEWO4y0G3RSiYmjsQu/wAM61/1&#xA;Nmq/8itK/wCyHFDv8M61/wBTZqv/ACK0r/shxVD6l5JvtS0+50+980apNaXkTwXERj0sBo5FKstR&#xA;ZA7g9jluDNLFOM4/VEgj4JBpJfIVj5h1Hy8iXfmnU4tR02aXTdQhjj00qk1o5j2MlnI5DoFcVYmj&#xA;DfM3tbDGGcmH0TqcfdLf7OXwTMbsi/wzrX/U2ar/AMitK/7Ic1rF3+Gda/6mzVf+RWlf9kOKu/wz&#xA;rX/U2ar/AMitK/7IcVSbzlBrug+Wr7VIvNGqzXUSBLKAxaXSS5mYRW8ZpYg/FK6g5m9naYZ88YH6&#xA;b9X9Uby+wFlEWUR5e8g6lo2iWemQeaNSiS2jAZI49NKeo3xSFTJZu55OxPxMT4nIa7UnPmlkP8R+&#xA;Q6D4DZEjZtMf8M61/wBTZqv/ACK0r/shzFQ7/DOtf9TZqv8AyK0r/shxV3+Gda/6mzVf+RWlf9kO&#xA;Kqd15Q1O6tpba4806pJBOjRTRmLSqMjjiwP+g9wclCZjISHMbqx3yBpGuy6NNpc/mjUobvQLmTS5&#xA;YY49OKhIKG3YGWzkkIe2aNqsx65s+2IDxvFj9OUCY+P1D4SsM58773o2apgw/wAr/wC4fzjr/l1h&#xA;xt7xhrmmDtwuD6d2g/1Lhef/AD0zb6399p8ebrH93L/N3ifjHb/NZy3ALMM1DB2KuxVh5/3NfmWo&#xA;pysvKlrUnsdQ1BaD6YrUH/kZm3/udF/Szy/2EP1y/wByz5R97MM1DB2KuxV2KuxVh+jn9C/mBq2k&#xA;H4bPXohrFgP2RcRcYL1BXuf3Un+ybNvqP32khk/ixHw5e4+qB/3UfgGZ3DMM1DB2KuxVgnmc/prz&#xA;imnr8Vl5asZtSvB1H1y6jeC0UjxSL1n+lc3GL9zo5T/izHgH9WNSl8zwj5sxsPeyXyqqv5T0dHAZ&#xA;WsLYMpFQQYVqCM07EEg2Eml8tat5dke78olXsmYvc+W5m4wMTuxtJDX6u5/l/uz4L1zFOKUN4cv5&#xA;v6u77neR1+LVDh1X19Mo+r/PH8Y8/qHmnHl/zRpetrKluXgvrYhb3TbhfTuYGPaSM9j2YVU9jluP&#xA;MJ8ufd1cDW9n5NPRlvCX0yG8Ze4/o5jqE3y1wXYqw+2rov5lXNufhsfNNsLqEdhf2IEcygeMluY2&#xA;9+BzcT/faIH+LBLhP9Se4+UrH+cGfOPuZhmnYOxV2KsP8wD9M+edD0MfFa6SDrmoDtzQmGyQ/OQv&#xA;J/zzzb6X9zpcmX+LJ+7j98z8qH+czGwtmGahg7FXYq7FXYqw+f8A3C/mVBN9my81Wv1eQ9hf6eDJ&#xA;FXwMtszj/nmM28f32iI/iwSv/MnsflKv9Mz5x9zMM1DBh/5ho2nDTPN8Kkv5enLXwUVLadcgRXew&#xA;/wB9jjN/sM2/ZJ8Tj05/yo2/rx3j894/5zOHcy9WVlDKQysKqw3BB7jNSRTBvAqE1jVbLSNKvNUv&#xA;X9O0soXnnf8AyY1LGnuabDLtPgllyRxx+qRofFIFpL+XulXll5eW71FOGr6xLJqepqeqzXJDCL/n&#xA;jGEiH+rmZ2rnjPNww/u8YEI+6PX/ADjcvimZ3ZLmtYuxV2KuxV2KsS/MeC4t9MtfMtmhkvfLU4v+&#xA;CCrSWvEx3kQ/1rd2Yf5SjNt2RISmcMvpzDh90ucD/pq+BLOHd3sptrmC6t4rm3cSwToskMqmqsjj&#xA;krA+BBzVzgYkxOxDBUyKqN7eW1lZz3l04itraN5p5T0WONSzMfkBk8eOU5CMd5SND4qxDyhaXTeU&#xA;dT12/jMepeY/X1KeNq8o4pI+FrCa7/u7dEBHjXNl2tkj4gxQPowjgHmf4j8ZX8KZz513Mg8p/wDK&#xA;K6N/zA23/Jlc1TBNcVSXzB5U0/WGjug8ljq1sP8AQ9VtSEuIu/GtCHjP7SPVTlWTCJb8pd7sNF2l&#xA;PADGhPFL6oS+k/qPdIbpbbea9R0a4j0/zgkcHqMEtNdhBFlOTsFlrX6vKf5W+E/st2ysZjE1k+fT&#xA;9jl5OzseeJyaQmVfVjP1x938+PmNx1DLOu4zJdIxb8xdPuptBXVbBC+qaBOmqWSDYubevrQ/89oG&#xA;kj+nNp2TliMvhz+jKOA/Hkf82VFlA7sh03ULTUtOtdRs3EtpeRJPbyD9qORQyn7jmvzYpY5mEtpR&#xA;NH4IIpEZWhbLLHFE8srBIo1LO7GgVVFSST2AwxiSaHNWJflzHJfWl/5suFZZ/Ms/1mBX2ZLCIelZ&#xA;JTtWIep83ObbtciEo6ccsIo/1zvP7dvgzn3dzL81DB2KuxV2KuxVj/nvRL3VvL0i6aF/TFjJHf6S&#xA;WIA+tWzepGpJIAElDG3sxzYdmamOLMOP+7kDGX9WWx+XP3hlE0WQZr2Knc20F1by21wglgnRo5om&#xA;FVZHHFlI8CDkoTMSJDYhWJ/l/dT2Au/J1+7Ne6AQtnI5+KfTZCfqkte5RR6T/wCUvvm17VgMnDqY&#xA;fTl5+Ux9Q+P1DyLOfezDNQwYX5pf/EXmax8ow/FY2hi1TzE3VfSjflaWp7VnmTmw/kQ+ObnRD8vg&#xA;lqD9Urhj95+qX+aNvefJnHYWzTNMwdirsVdirsVdirTKrKVYBlYUZTuCD2OEGlYb5ElbRby98kXT&#xA;HlpY+saI7Eky6XKx9NQT1Ns37lvbj45uO04+NGOqj/HtPyyDn/pvqHx7mct92Z5pmDC/Oz/p7VbD&#xA;yTAeUN1xvvMLA7Jp0L1ETe91KBH/AKgfNz2cPAxy1R5x9OP+uev+YN/fws47bsp1UAaTeACgEEgA&#xA;H+oc0zBC+U/+UV0b/mBtv+TK4qmuKuxVTubW2ureS2uoknt5lKSwyKHRlOxDKagjAQCKLPHklCQl&#xA;EkSHIhiX6I17yp+88vq+q6Cv29Bkf9/Avc2Uzn4gP98uf9UjpmNwSx/TvHu/V+p3f5rBrds9Y83+&#xA;qAemX/DIj/dx+ILINC8w6TrlobnTpvUCMUnhYFJoZB1jljajI48CMux5YzFh1ms0WXTy4cgq+R5g&#xA;jvieRDHPKDr5e1+/8mS0jtCX1Ly4TsGtJn5T26+9tMxoP5GXwze68fmMUdSPq+jJ/WHKX+dH/ZAu&#xA;PLcWzTNMwYd5+nk1WWz8k2bkXGtgvqkibmDS4z/pDmn2TMaQpX+Yn9nNx2XEYhLUy5Y/p88h+n/S&#xA;/Ufd5s47bsviijiiSKJQkUahURRQKqigAA7AZqJSJNnmwXYFdirsVdirsVdirsVdirHPNvlm81CS&#xA;01fRZ0s/Mml8vqVxICYpYnp6trcBdzFJQdN1NGHvsdDrI4xLHlHFhnzHUHpKP9IfaNiyjLoeSAfz&#xA;Z52uIPqdp5RuLbWWHF57ue3OnRE7ep60UjSyqOvFYwx6Hj1y8aHTRPFLNGWPuiJcZ8qIoHzMq96e&#xA;Ed6ceU/LSaDp8iSzte6neSG51XUXFHuLhwAzU/ZRQAqINlUAZia7WePMEDhhEVGP82P6+pPUokbT&#xA;rMJi7FXYq7FXYq7FXYqkHm3yxLq6Wl7p84stf0p2m0q9I5KGYcZIZVG7QzL8LgexG4GZ+h1gxExm&#xA;OLFPaQ+4j+lHp8urKMqSs+bfO5g+pr5QuBrdOJma4t/0YG/379YD+sU78fS59qZlfkdLfF448L+r&#xA;Lj93DVX58VJ4R3pt5T8snRbe5nu7j69rWpSfWNV1Ajj6ktKKiLvwiiX4Y17D3JzE12s8YgRHDjgK&#xA;jHuHn3k8yUSlaZ6t/wAcq9/4wS/8QOYLFCeU/wDlFdG/5gbb/kyuKprirsVdirsVSDXfKNvfXa6r&#xA;p07aVr0a8Y9RgA/eKOkdzGfhmj9m3H7JGUZMIJ4htLv/AF97s9H2nLHHwsg8TCf4T084nnE+74gs&#xA;b1i4l1VrPSfMNPL/AJstJfW0HWoqvZy3AFP3MjUqJFPGS3chip2r1zM7O7TOCZjkjcZipDpIeR6S&#xA;HMdQW/N2dEwOXTHxMX8Q/jh/WHd/SG3uTBPNvneOA2dx5QuJdaHwrLBPb/o1yNvV9d5BKid+LRcv&#xA;Y5tDoNKTxDPEY/MS4/dw1RPnxU6jhHemPlHyxc6WLrUtWuFvvMeqMr6leICsahBSO3gU7rDEDRa7&#xA;k1Y7nMbX62OWoYxw4YfSOvnKX9I9fkESlfuZFmvYuxV2KuxV2KuxV2KuxV2KuxV2KuxV2KuxV2Ku&#xA;xV2KuxV2KuxV2KuxVC6t/wAcq9/4wS/8QOKoTyn/AMoro3/MDbf8mVxVNcVdirsVdirsVQ2p6Xp2&#xA;qWUtjqNul1aTCkkMo5Ke4+kdj2yM4CQo7hu0+oyYZieMmMh1DF/S8yeUv7n19f8ALYP9yT6mo2af&#xA;5BO9zGvgf3gH82Y9Tx/0ofaP1/e7ji0+t58OHP38sc/f/Ml/sT5Ml0nWNM1ixjv9MuUurST7MsZ7&#xA;jqrA7qw7qdxl8JiQsGw6jU6XJgmYZImMh0P4+1GZNodirsVdirsVdirsVdirsVdirsVdirsVdirs&#xA;VdirsVdirsVdirsVdiqF1b/jlXv/ABgl/wCIHFUJ5T/5RXRv+YG2/wCTK4qmuKuxV2KuxV2KuxV2&#xA;Ksa1byi/16TWfLtwNK1t95zx5Wt3Tot1CKcvD1Fo48e2Y88O/FDaX2H3u303aY4Bh1A8TD0/nQ/q&#xA;S/3p9JVNF83JcXv6H1i3Ok68BUWkjBopwOslrNssq+32l7gYceazwy9MvxyY6vswxh4uI+Jh/nDn&#xA;HynH+E/YehZDl7qnYq7FXYq7FXYq7FXYq7FXYq7FXYq7FXYq7FXYq7FXYq7FXYq7FULq3/HKvf8A&#xA;jBL/AMQOKoTyn/yiujf8wNt/yZXFU1xV2KuxV2KuxV2KuxV2KoDWtC0rW7I2ep26zw1DoTVXjdfs&#xA;vG60ZHXsykHIZMcZii5Ok1mXTz48Z4T9hHcRyI8ix79IeYfKfw6qZda8ur01VF5Xlqo/5ao0H75A&#xA;P92oOQ/aXvlHFLH9Xqj39R7+/wB7tfBwa3+6rFn/AJn8Ev6hP0n+idu49GVWV7Z31pFeWcyXFrOo&#xA;eGeJgyMp7gjbMmMgRY5Oly4p45GEwYyHMFWwtbsVdirsVdirsVdirsVdirsVdirsVdirsVdirsVd&#xA;irsVdiqF1b/jlXv/ABgl/wCIHFUJ5T/5RXRv+YG2/wCTK4qmuKuxV2KuxV2KuxV2KuxV2KuxVit7&#xA;5SvNNu5dU8pSpZXMp53elS1+oXR7kqtTDKf9+R9f2gcxpYTE8UNvLof1O6xdpQyxGPVAziPpmPrj&#xA;/wAVH+jL4EI7QPNtlqk72E8T6brcArc6Vc0EoHTnGR8MsRPR02+XTJ48wlsdpdzja3s2eECcSMmE&#xA;8px5e4/zZf0SnmXOudirsVdirsVdirsVdirsVdirsVdirsVdirsVdirsVdiqF1b/AI5V7/xgl/4g&#xA;cVQnlP8A5RXRv+YG2/5Mriqa4q7FXYq7FXYq7FXYq7FXYq7FXYqleveWtK1yGNLxGWe3JezvYWMd&#xA;zbyEfbhlX4lP4HuDleTFGfNzNHr8unJMD6ZfVE7xkO6Q6/ikjXzBrPlllt/NR+taVULD5khSirXY&#xA;C9iWvpHt6i/Ae/HKfElj2nuP536/1uxOiw6v1ab05OuIn/pmf4v6p9XdbLopYpY1lidZInAZHUhl&#xA;YHcEEdRmUDbo5RMTR2IXYodirsVdirsVdirsVdirsVdirsVdirsVdirsVdiqF1b/AI5V7/xgl/4g&#xA;cVQnlP8A5RXRv+YG2/5Mriqa4q7FXYq7FXYq7FXYq7FXYq7FXYq7FWmVXUo4DKwIZSKgg9QRikEg&#xA;2GJS+WtW8vSPd+USrWTMZLny5M3G3au5NpJv9Xf/ACf7s+C9cxTilDeHL+b+ru+53cdfi1Q4dV9f&#xA;TKPq/wA8fxjz+oeab6B5o0vW1lS3LwX1sQt7p1wvp3MDHtJGex7MKqexy3HlE+XPu6uDrez8mnIM&#xA;qMJfTKO8Ze4/o5jqE3y1wXYq7FXYq7FXYq7FXYq7FXYq7FXYq7FXYq7FULq3/HKvf+MEv/EDiqE8&#xA;p/8AKK6N/wAwNt/yZXFU1xV2KuxV2KuxV2KuxV2KuxV2KuxV2KuxV2KpLr/lTT9YeO65yWWrW4/0&#xA;PVbUhLiLevGtCHQ/tI4KnwyrJhEt+Uu92Gi7RyYAY7TxS+qEt4n9R7pCinWWuvdirsVdirsVdirs&#xA;VdirsVdirsVdirsVdirsVQurf8cq9/4wS/8AEDiqE8p/8oro3/MDbf8AJlcVTXFXYq7FXYq7FXYq&#xA;7FXYq7FXYq7FXYq7FXYq7FXYq7FXYq7FXYq7FXYq7FXYq7FXYq7FXYq7FXYqo3sDXFnPApAaWN0U&#xA;noCykb4qo6LYyWGjWFjIweS0t4oHZa8S0aBSRXttiqMxV2KuxV2KuxV2KuxV2KuxV2KuxV2KuxV2&#xA;KuxV/9k=</xmpGImg:image>
               </rdf:li>
            </rdf:Alt>
         </xmp:Thumbnails>
         <pdfx:PTEX.Fullbanner>This is pdfTeX, Version 3.14159265-2.6-1.40.15 (TeX Live 2014) kpathsea version 6.2.0</pdfx:PTEX.Fullbanner>
         <pdf:Producer>pdfTeX-1.40.15</pdf:Producer>
         <pdf:Trapped>False</pdf:Trapped>
         <xmpTPg:MaxPageSize rdf:parseType="Resource">
            <stDim:w>971.360719</stDim:w>
            <stDim:h>806.951311</stDim:h>
            <stDim:unit>Points</stDim:unit>
         </xmpTPg:MaxPageSize>
         <xmpTPg:NPages>1</xmpTPg:NPages>
         <xmpTPg:HasVisibleTransparency>False</xmpTPg:HasVisibleTransparency>
         <xmpTPg:HasVisibleOverprint>False</xmpTPg:HasVisibleOverprint>
         <xmpTPg:PlateNames>
            <rdf:Seq>
               <rdf:li>Cyan</rdf:li>
               <rdf:li>Magenta</rdf:li>
               <rdf:li>Yellow</rdf:li>
               <rdf:li>Black</rdf:li>
            </rdf:Seq>
         </xmpTPg:PlateNames>
         <xmpTPg:SwatchGroups>
            <rdf:Seq>
               <rdf:li rdf:parseType="Resource">
                  <xmpG:groupName>Default Swatch Group</xmpG:groupName>
                  <xmpG:groupType>0</xmpG:groupType>
               </rdf:li>
            </rdf:Seq>
         </xmpTPg:SwatchGroups>
         <dc:format>image/svg+xml</dc:format>
         <xmpMM:RenditionClass>default</xmpMM:RenditionClass>
         <xmpMM:DerivedFrom rdf:parseType="Resource">
            <stRef:instanceID>xmp.iid:2b92b153-4908-4589-956f-39047b4bb021</stRef:instanceID>
            <stRef:documentID>xmp.did:2b92b153-4908-4589-956f-39047b4bb021</stRef:documentID>
            <stRef:originalDocumentID>xmp.did:2b92b153-4908-4589-956f-39047b4bb021</stRef:originalDocumentID>
            <stRef:renditionClass>default</stRef:renditionClass>
         </xmpMM:DerivedFrom>
         <xmpMM:DocumentID>xmp.did:4d62adef-52ce-430e-b7d4-7530298e3cd0</xmpMM:DocumentID>
         <xmpMM:InstanceID>xmp.iid:4d62adef-52ce-430e-b7d4-7530298e3cd0</xmpMM:InstanceID>
         <xmpMM:OriginalDocumentID>xmp.did:2b92b153-4908-4589-956f-39047b4bb021</xmpMM:OriginalDocumentID>
         <xmpMM:History>
            <rdf:Seq>
               <rdf:li rdf:parseType="Resource">
                  <stEvt:action>saved</stEvt:action>
                  <stEvt:instanceID>xmp.iid:2b92b153-4908-4589-956f-39047b4bb021</stEvt:instanceID>
                  <stEvt:when>2014-12-10T23:16-05:00</stEvt:when>
                  <stEvt:softwareAgent>Adobe Illustrator CC 2014 (Macintosh)</stEvt:softwareAgent>
                  <stEvt:changed>/</stEvt:changed>
               </rdf:li>
               <rdf:li rdf:parseType="Resource">
                  <stEvt:action>saved</stEvt:action>
                  <stEvt:instanceID>xmp.iid:4d62adef-52ce-430e-b7d4-7530298e3cd0</stEvt:instanceID>
                  <stEvt:when>2014-12-10T23:16:36-05:00</stEvt:when>
                  <stEvt:softwareAgent>Adobe Illustrator CC 2014 (Macintosh)</stEvt:softwareAgent>
                  <stEvt:changed>/</stEvt:changed>
               </rdf:li>
            </rdf:Seq>
         </xmpMM:History>
      </rdf:Description>
   </rdf:RDF>
</x:xmpmeta>
                                                                                                    
                                                                                                    
                                                                                                    
                                                                                                    
                                                                                                    
                                                                                                    
                                                                                                    
                                                                                                    
                                                                                                    
                                                                                                    
                                                                                                    
                                                                                                    
                                                                                                    
                                                                                                    
                                                                                                    
                                                                                                    
                                                                                                    
                                                                                                    
                                                                                                    
                                                                                                    
                           
<?xpacket end="w"?>
	</metadata>
<line fill="none" stroke="#000000" stroke-width="3" stroke-miterlimit="10" x1="0" y1="403.4756775" x2="971.3607178" y2="403.4756775"/>
<line fill="none" stroke="#000000" stroke-width="3" stroke-miterlimit="10" x1="485.6803589" y1="806.9512939" x2="485.6803589" y2="0"/>
<g>
	<defs>
		<rect id="SVGID_1_" x="0.0000024" y="0.0000067" width="971.3607178" height="806.9512939"/>
	</defs>
	<clipPath id="SVGID_2_">
		<use xlink:href="#SVGID_1_"  overflow="visible"/>
	</clipPath>
	<polyline clip-path="url(#SVGID_2_)" fill="none" stroke="#0000FF" stroke-width="5" stroke-miterlimit="10" points="
		0,330.3120422 0.9721994,332.5876465 1.9445992,334.8874207 2.9170012,337.2182617 3.889401,339.5772705 4.8617506,341.9577026 
		5.8342004,344.3624268 6.80655,346.7926636 7.7788496,349.2471924 8.7511997,351.7218628 9.7235985,354.2166748 
		10.6959991,356.7329407 11.6683979,359.2628174 12.6407509,361.8167725 13.613203,364.3855286 14.5855026,366.9692688 
		15.5578499,369.5702515 16.530302,372.1820679 17.5026493,374.8046875 18.4751015,377.4420776 19.447401,380.0888062 
		20.4197483,382.7450562 21.3921528,385.4080505 22.3645,388.0803223 23.3368473,390.7581177 24.3092995,393.4398193 
		25.2817039,396.1269836 26.2540989,398.8168335 27.2265034,401.5080261 28.198698,404.1978455 29.1711502,406.8890381 
		30.1434975,409.581604 31.1159019,412.2714539 32.0883026,414.95578 33.0606995,417.633606 34.0330467,420.3099976 
		35.0054016,422.9768677 35.9777985,425.6345215 36.9502525,428.2866211 37.9225998,430.9295044 38.8948975,433.5614624 
		39.8673019,436.1746826 40.8396988,438.7811279 41.8119965,441.3728027 42.7844009,443.9483032 43.7567978,446.510376 
		44.729248,449.0522766 45.7015953,451.5766907 46.6739998,454.0809326 47.646347,456.5636597 48.6185989,459.0261841 
		49.5909958,461.4658203 50.563446,463.8840332 51.5358047,466.2780151 52.5082474,468.6490173 53.4806023,470.9906006 
		54.4529991,473.3052063 55.4253464,475.5915833 56.3977013,477.8497314 57.3700485,480.0769043 58.342453,482.2744751 
		59.3148003,484.4451904 60.2871475,486.5742188 61.2596016,488.6735535 62.2318993,490.7407227 63.2043533,492.7702637 
		64.1766968,494.7687378 65.1491013,496.7282715 66.1214981,498.6502075 67.0939026,500.5317993 68.0662003,502.3742981 
		69.0385513,504.1778564 70.0108948,505.9410095 70.9833527,507.6652222 71.9556961,509.3504639 72.9281006,510.9898071 
		73.9004974,512.5835571 74.8729019,514.1356201 75.8451996,515.6432495 76.8175507,517.1052246 77.7898941,518.5227661 
		78.7623444,519.895874 79.7347488,521.2219849 80.7070999,522.4956665 81.6794968,523.7249146 82.6517944,524.9084473 
		83.6241989,526.0408325 84.5966492,527.1261597 85.5690002,528.1630859 86.5413437,529.1448975 87.5137482,530.0769043 
		88.4860992,530.9591675 89.4585037,531.7904053 90.4308472,532.5703735 91.4031982,533.3034058 92.3756485,533.9799194 
		93.3479919,534.6026001 94.3203506,535.1741943 95.2927933,535.6918945 96.2649994,536.1573486 97.2374954,536.5715332 
		98.2098465,536.9333496 99.1821899,537.241333 100.1546478,537.4874268 101.1269989,537.6864624 102.0993958,537.8331299 
		103.0717468,537.921814 104.0440979,537.9608154 105.0165405,537.9473877 105.9888992,537.8774414 106.9611969,537.7496948 
		107.9336395,537.569458 108.9059982,537.3354492 109.8782959,537.0543823 110.8507538,536.7141113 111.8230972,536.3239746 
		112.7955475,535.8761597 113.7679443,535.3759155 114.7402954,534.8231812 115.7126465,534.2180176 116.6849518,533.5616455 
		117.6572952,532.854126 118.6297455,532.0943604 119.6021423,531.2819824 120.574501,530.4158936 121.5469437,529.5 
		122.5193024,528.5356445 123.4916458,527.5202026 124.4639969,526.4564209 125.4364014,525.3441772 126.4087448,524.1794434 
		127.3811493,522.9664307 128.3535004,521.7061157 129.325943,520.3989868 130.2982483,519.048584 131.2707062,517.6512451 
		132.2430573,516.2041016 133.2154083,514.7125854 134.187851,513.175293 135.1601562,511.5951233 136.1325073,509.9730835 
		137.1048584,508.3067627 138.0772552,506.5999756 139.0496979,504.8516235 140.022049,503.0602722 140.9944,501.2311096 
		141.9668579,499.3616333 142.939209,497.4559021 143.9115143,495.5125427 144.8839569,493.5314941 145.8562469,491.5140381 
		146.8286133,489.4577026 147.8010559,487.3717041 148.773407,485.2507935 149.7458496,483.0962524 150.7181549,480.9134216 
		151.690506,478.6942139 152.6629944,476.449585 153.6353455,474.1714172 154.607605,471.8661499 155.5800629,469.5354004 
		156.5524445,467.1751404 157.5247955,464.7931213 158.4971619,462.3858032 159.4695129,459.9514771 160.4420013,457.4957275 
		161.4143524,455.0210571 162.3867035,452.5234985 163.3591461,450.0072021 164.3314514,447.4719849 165.3038025,444.9193726 
		166.2761536,442.3479004 167.2484894,439.7642517 168.220993,437.1618347 169.1933441,434.5499878 170.1656952,431.9234009 
		171.138092,429.2886353 172.1104431,426.640564 173.0828094,423.9830017 174.0552521,421.3200684 175.0275421,418.6463928 
		176,415.9672546 176.9723511,413.285553 177.9446411,410.5984192 178.917099,407.9085693 179.8894501,405.2160034 
		180.8618011,402.526123 181.834259,399.8336182 182.8066406,397.142395 183.7789917,394.4539185 184.751297,391.7721558 
		185.7236481,389.0917664 186.6960907,386.4152832 187.668457,383.7496948 188.6408081,381.0921631 189.6132507,378.4412842 
		190.5856476,375.7998352 191.5579987,373.1692505 192.5303497,370.5547485 193.5027466,367.9483032 194.4750977,365.361969 
		195.4474945,362.786499 196.4198456,360.2284546 197.3922577,357.6878357 198.3645477,355.1635132 199.3370056,352.6646423 
		200.3093567,350.1805115 201.2817535,347.7180481 202.2541962,345.2795715 203.2265015,342.862854 204.1988525,340.4716187 
		205.1712036,338.1031799 206.1435547,335.765686 207.1159515,333.4524536 208.0883942,331.1687622 209.0607452,328.9133301 
		210.0332031,326.687561 211.0055542,324.4913025 211.9778442,322.3285217 212.9503021,320.199646 213.9225922,318.1002197 
		214.8949432,316.0384521 215.8674011,314.0116882 216.8397522,312.0158386 217.8121948,310.0603027 218.7845001,308.1437988 
		219.7568512,306.2634888 220.7292938,304.4250488 221.7016449,302.6229248 222.6739502,300.8596802 223.6463928,299.1408691 
		224.6187592,297.4624023 225.5911407,295.8256531 226.5634918,294.2359924 227.5358582,292.6865234 228.5083008,291.1816406 
		229.4806519,289.7224426 230.4529877,288.30896 231.4254913,286.9398193 232.3977509,285.6204529 233.3700562,284.350769 
		234.3424988,283.1256104 235.3148499,281.9473877 236.2873077,280.8190918 237.2596588,279.737793 238.2320557,278.704834 
		239.2044067,277.7284546 240.1767578,276.7977905 241.1491547,275.9194946 242.1215057,275.093689 243.0938568,274.317688 
		244.0662994,273.5888062 245.0386963,272.9163208 246.0110016,272.300354 246.9833984,271.7341614 247.9557953,271.2190552 
		248.9281464,270.7563782 249.9006042,270.3462524 250.8729553,269.98703 251.8453979,269.6912231 252.8175964,269.4450684 
		253.7899933,269.2500305 254.7624054,269.1114807 255.7348022,269.0227966 256.7071533,268.987793 257.6795959,269.0079346 
		258.6520081,269.085968 259.6242371,269.217804 260.5966797,269.4020081 261.5690002,269.6387024 262.5414429,269.9251709 
		263.5137939,270.2667847 264.486145,270.664917 265.4585876,271.1141663 266.4308777,271.619812 267.4032593,272.1793213 
		268.3757019,272.7857971 269.348053,273.4448853 270.3204956,274.1576538 271.2929077,274.9242554 272.2651367,275.7392883 
		273.2374878,276.6094666 274.2098999,277.5294189 275.182251,278.5003357 276.1546936,279.5171509 277.1271057,280.5850525 
		278.0994873,281.7052917 279.0718994,282.8726807 280.0441589,284.0897827 281.0166016,285.3514099 281.9888916,286.661377 
		282.9612427,288.0196838 283.9336853,289.4211426 284.9060974,290.8723145 285.8784485,292.3678589 286.8507996,293.9078369 
		287.8232117,295.4920959 288.7955933,297.1167603 289.7680054,298.7858582 290.7402954,300.496582 291.7127075,302.2489929 
		292.6851196,304.0457764 293.6574097,305.8748779 294.6297913,307.7470398 295.6022034,309.6581421 296.574646,311.604248 
		297.5470276,313.5880127 298.5193481,315.609436 299.4918213,317.6657715 300.4641113,319.7570801 301.4364014,321.8807678 
		302.408844,324.0380249 303.3812256,326.2249146 304.3536682,328.4439697 305.3260193,330.6927185 306.2983398,332.9723511 
		307.270752,335.2802124 308.2431335,337.6123047 309.2155151,339.9752808 310.1878662,342.3571167 311.1602173,344.7700195 
		312.1326599,347.2069702 313.1049805,349.6627808 314.0773315,352.1401672 315.0497742,354.6403503 316.0220947,357.15802 
		316.9945068,359.6945496 317.9668884,362.2498169 318.9393005,364.8212891 319.9116821,367.408905 320.8839722,370.0086975 
		321.8563232,372.6231689 322.8287659,375.2484741 323.8011475,377.887207 324.7734985,380.5339966 325.7459717,383.1942749 
		326.7183228,385.8599243 327.6906128,388.5336304 328.6629944,391.2099609 329.6353455,393.8945007 330.6077881,396.5829468 
		331.5801086,399.2728271 332.5525208,401.9626465 333.5249634,404.6538696 334.4971924,407.3437195 335.4696045,410.03479 
		336.4420166,412.7246704 337.4144287,415.4063721 338.3868713,418.086853 339.3592224,420.7592163 340.3315125,423.4274902 
		341.303894,426.0823975 342.2762756,428.7332764 343.2486267,431.3746338 344.2210693,433.9999695 345.1934204,436.6157532 
		346.165741,439.2181702 347.1382446,441.8085327 348.1105347,444.3840942 349.0828552,446.9407959 350.0552673,449.4799194 
		351.0276184,451.9976807 352.000061,454.4992065 352.9724426,456.9805908 353.9448242,459.4403687 354.9171753,461.8760376 
		355.8895264,464.2929077 356.861969,466.681488 357.8342896,469.0472412 358.8067017,471.381897 359.7790833,473.6911621 
		360.7514343,475.9735718 361.7237244,478.2262573 362.696167,480.4507446 363.6685486,482.6430054 364.6409912,484.8029175 
		365.6133728,486.9292603 366.5857239,489.0259399 367.5581665,491.085022 368.530365,493.1105042 369.5027466,495.1037292 
		370.4751892,497.0551758 371.4475098,498.9675903 372.4199219,500.8450928 373.3923645,502.6809082 374.3647156,504.4790649 
		375.3370972,506.236908 376.3094482,507.9571228 377.2818298,509.6287537 378.2542725,511.2601318 379.2265015,512.847168 
		380.1989136,514.3912354 381.1713562,515.8948364 382.1436462,517.3513184 383.1160583,518.7594604 384.0884705,520.1218872 
		385.0608215,521.4372559 386.0332642,522.7054443 387.0056458,523.9266357 387.9779968,525.1021118 388.9502563,526.2264404 
		389.9226685,527.3063965 390.8951416,528.329895 391.8674622,529.3035889 392.8398438,530.2261963 393.8122864,531.1030273 
		394.7846069,531.9262085 395.7569275,532.6995239 396.7293701,533.4204102 397.7016602,534.0874634 398.6740417,534.7008057 
		399.6464844,535.2643433 400.6188049,535.7753296 401.5912781,536.2313232 402.5635681,536.6374512 403.5358887,536.9884644 
		404.5083923,537.2817383 405.4807739,537.5237427 406.453125,537.7133179 407.4255066,537.8505859 408.3978882,537.9353638 
		409.3702087,537.9648438 410.3425903,537.9393311 411.3149719,537.8545532 412.287384,537.7214966 413.2597656,537.5330811 
		414.2321167,537.295105 415.2045593,537.0006104 416.1768494,536.6535034 417.149231,536.2514648 418.121582,535.7941895 
		419.0939636,535.2858276 420.0664368,534.7249756 421.0387573,534.1116943 422.0111389,533.4486694 422.9835205,532.7304077 
		423.9558716,531.9584961 424.9283142,531.1380005 425.9006653,530.2637939 426.8730469,529.3400269 427.8453979,528.3688965 
		428.8177795,527.3481445 429.7900696,526.2749023 430.7625122,525.1478271 431.7348633,523.9777832 432.7072449,522.7565308 
		433.6796875,521.4909668 434.6520081,520.1743164 435.6245117,518.8145752 436.5967407,517.4091797 437.5690613,515.9512939 
		438.5415039,514.453064 439.5138855,512.9117432 440.4862061,511.3260498 441.4586792,509.6974182 442.4309998,508.024292 
		443.4034119,506.3068237 444.3757935,504.5516968 445.348175,502.7536011 446.3205566,500.9191284 447.2929688,499.044342 
		448.2653198,497.1317749 449.2377625,495.183075 450.210022,493.1925659 451.1825256,491.1697388 452.1548767,489.1065979 
		453.1272278,487.0153198 454.0996704,484.8903198 455.071991,482.731781 456.0444031,480.5408325 457.0167847,478.3164673 
		457.9891052,476.0650024 458.9614258,473.7852783 459.9338684,471.4747925 460.906189,469.1399536 461.8786926,466.7755737 
		462.8510132,464.3883667 463.8233337,461.9755554 464.7957764,459.5386353 465.7681885,457.0787964 466.740509,454.6000366 
		467.7129517,452.0998535 468.6853333,449.5821533 469.6577759,447.0429993 470.6300049,444.4849243 471.602417,441.9134521 
		472.5748596,439.3258362 473.5472412,436.7220459 474.5196228,434.1061401 475.4920044,431.4822388 476.4644165,428.8407898 
		477.4367676,426.1912842 478.4091492,423.533783 479.3815002,420.8654785 480.3539734,418.194519 481.3263245,415.5153198 
		482.2986755,412.8308716 483.2711182,410.1410217 484.2433472,407.4512329 485.2156982,404.7600708 486.1881714,402.0702515 
		487.1605225,399.3789368 488.1329651,396.6891479 489.1053162,394.0007019 490.0776978,391.3175964 491.0500183,388.6384583 
		492.0224304,385.9661255 492.9947815,383.3005371 493.9672241,380.6416321 494.9396362,377.9934998 495.9120483,375.3547974 
		496.8843994,372.7280884 497.8566589,370.1135864 498.8291321,367.5111389 499.8015137,364.9235535 500.7738647,362.3520203 
		501.7463074,359.7953796 502.718689,357.2589111 503.6911316,354.7398376 504.6634216,352.2409668 505.6357727,349.7622986 
		506.6082153,347.3038025 507.5805969,344.8694458 508.552887,342.4539795 509.5253296,340.0694275 510.4976807,337.7077637 
		511.4699707,335.3717041 512.4424438,333.0651855 513.4147949,330.7854614 514.387207,328.5340881 515.3595581,326.3108826 
		516.3319702,324.1241455 517.3043823,321.9668579 518.2766724,319.8405151 519.2490845,317.7505493 520.2214966,315.6914673 
		521.1938477,313.6674194 522.1663208,311.6809082 523.1386719,309.736084 524.1110229,307.8236389 525.0834351,305.9502563 
		526.0557861,304.1171265 527.0280762,302.3215332 528.0006104,300.5651245 528.9729614,298.8531189 529.9453735,297.1826782 
		530.9176636,295.5553589 531.8900146,293.9709473 532.8624268,292.4297485 533.8347778,290.9328613 534.8071899,289.4790039 
		535.779541,288.0748901 536.7519531,286.7151184 537.7243042,285.4052124 538.6966553,284.1396484 539.6690063,282.9224854 
		540.6415405,281.7497253 541.6138916,280.6280518 542.5862427,279.5588379 543.5586548,278.5380554 544.5309448,277.5683594 
		545.5032349,276.6470947 546.475708,275.7756042 547.4480591,274.9551697 548.4205322,274.1859436 549.3928833,273.4718018 
		550.3651733,272.8114319 551.3375854,272.1994629 552.3099976,271.6439819 553.2822876,271.1343079 554.2546997,270.6824036 
		555.2270508,270.280304 556.1995239,269.9359741 557.171875,269.6468506 558.144165,269.4088135 559.1166382,269.2218018 
		560.0889893,269.0913391 561.0614014,269.0106506 562.0338135,268.9864502 563.0061646,269.0187988 563.9783936,269.1074219 
		564.9508667,269.2446899 565.9231567,269.4356689 566.8956299,269.6790161 567.868042,269.9749756 568.840332,270.3300171 
		569.8127441,270.7388 570.7851562,271.1975098 571.7574463,271.7113037 572.7297974,272.2774658 573.7022095,272.8907776 
		574.6746216,273.5618591 575.6470337,274.2868042 576.6193848,275.0601501 577.5917969,275.8858643 578.5641479,276.7614136 
		579.536438,277.6894531 580.5089111,278.6658325 581.4812622,279.6947632 582.4536133,280.7719421 583.4260254,281.9003906 
		584.3983765,283.0758057 585.3707886,284.2996826 586.3431396,285.5719604 587.3154907,286.8872681 588.2879028,288.2537842 
		589.2602539,289.6658936 590.2327271,291.1251831 591.2050781,292.6274109 592.1773682,294.1740723 593.1497192,295.7624817 
		594.1221313,297.3965454 595.0944824,299.0709229 596.0668945,300.7909851 597.0393066,302.5516052 598.0116577,304.3511658 
		598.9840698,306.1895752 599.9563599,308.0657959 600.928833,309.9822693 601.9011841,311.9364929 602.8734741,313.9309998 
		603.8459473,315.9564514 604.8182983,318.0195618 605.7906494,320.1163025 606.7630005,322.2425842 607.7354126,324.4024353 
		608.7078247,326.5987549 609.6802368,328.8259277 610.6525879,331.0786438 611.625,333.3623657 612.597229,335.6715698 
		613.5695801,338.0090332 614.5420532,340.3774414 615.5143433,342.767334 616.4868164,345.1828003 617.4592285,347.619873 
		618.4315796,350.0796509 619.4039917,352.5610962 620.3762817,355.0626221 621.3485107,357.5843811 622.3210449,360.1248779 
		623.293396,362.6829529 624.2657471,365.2584839 625.2382202,367.8474426 626.2105713,370.4525146 627.1828613,373.0669861 
		628.1553345,375.6937256 629.1276855,378.3337402 630.1000977,380.9859009 631.0725098,383.6434937 632.0447998,386.3117981 
		633.0172119,388.9854431 633.989502,391.663208 634.9619751,394.3476868 635.9343262,397.0361938 636.9066772,399.7286987 
		637.8791504,402.4184875 638.8515015,405.1098022 639.8238525,407.7996216 640.7961426,410.4894409 641.7684937,413.1779175 
		642.7409668,415.8610535 643.7133179,418.5387573 644.6856689,421.2124329 645.6581421,423.87677 646.6304932,426.5343018 
		647.6027832,429.1811523 648.5752563,431.8197937 649.5476074,434.4450684 650.5199585,437.0583496 651.4923096,439.6593628 
		652.4647217,442.245636 653.4371338,444.8171692 654.4094238,447.3724976 655.3817749,449.90625 656.354248,452.4226379 
		657.3265991,454.9187927 658.2989502,457.3988342 659.2714233,459.8546753 660.2437134,462.2875977 661.2160645,464.6990967 
		662.1884155,467.0808716 663.1608276,469.4412842 664.1332397,471.7747192 665.1055908,474.0811768 666.0780029,476.3595581 
		667.050415,478.6055908 668.0227051,480.824646 668.9951782,483.0101013 669.9675293,485.1646423 670.9398193,487.2869873 
		671.9122314,489.3756104 672.8846436,491.4319458 673.8569946,493.4508057 674.8293457,495.4358521 675.8016968,497.3779602 
		676.7741089,499.2877502 677.746521,501.1571655 678.7188721,502.9875183 679.6912842,504.7816467 680.6636353,506.5328369 
		681.6359253,508.2394409 682.6083374,509.9084473 683.5807495,511.5317993 684.5531006,513.1134033 685.5255127,514.6507568 
		686.4979248,516.1449585 687.4703369,517.5934448 688.442627,518.9934692 689.414978,520.3477783 690.3873901,521.6550903 
		691.3597412,522.9165649 692.3320923,524.1296997 693.3045654,525.2984619 694.2769165,526.4147339 695.2492676,527.4785767 
		696.2216187,528.4966431 697.1940308,529.463623 698.1664429,530.3809814 699.1387329,531.248291 700.111084,532.0634155 
		701.0835571,532.824646 702.0558472,533.5373535 703.0282593,534.1937866 704.0006714,534.7988892 704.9730225,535.355835 
		705.9454346,535.8574219 706.9178467,536.3079224 707.8901978,536.7020874 708.8625488,537.0395508 709.8348389,537.3273926 
		710.8071899,537.5587769 711.7796631,537.7416382 712.7520142,537.8693848 713.7244873,537.9473877 714.6968384,537.963501 
		715.6691284,537.9272461 716.6415405,537.8356934 717.6139526,537.6945801 718.5863037,537.4968262 719.5586548,537.2493896 
		720.5310059,536.9481812 721.503479,536.5889893 722.475769,536.1735229 723.4481201,535.7121582 724.4205933,535.1957397 
		725.3929443,534.6268921 726.3652954,534.0068359 727.3377686,533.331604 728.3100586,532.6013184 729.2824097,531.8212891 
		730.2547607,530.9927979 731.2271118,530.1119385 732.199585,529.1798706 733.171936,528.2008057 734.1442871,527.1679077 
		735.1167603,526.0852051 736.0890503,524.9528198 737.0614014,523.7719116 738.0338745,522.5480957 739.0061646,521.2704468 
		739.9785767,519.9537354 740.9509277,518.5779419 741.9233398,517.1644287 742.8956909,515.7011719 743.868042,514.1974487 
		744.8403931,512.6453857 745.8128662,511.053009 746.7852173,509.4176025 747.7575684,507.7337952 748.7299805,506.0108948 
		749.7022705,504.2504883 750.6746826,502.4468994 751.6470337,500.6057129 752.6194458,498.7228394 753.5918579,496.8049622 
		754.564209,494.8468018 755.5366821,492.8509216 756.5089722,490.8227539 757.4813232,488.756958 758.4536743,486.6589355 
		759.4260864,484.5285645 760.3984375,482.3632812 761.3708496,480.1656494 762.3432617,477.9370728 763.3155518,475.6817017 
		764.2879639,473.3953247 765.2603149,471.0834045 766.2327881,468.7432861 767.2050781,466.3735657 768.1774292,463.9794922 
		769.1499023,461.5653992 770.1221924,459.1244202 771.0945435,456.6619263 772.0669556,454.1790771 773.0393677,451.6748657 
		774.0117798,449.1531372 774.9841309,446.6099548 775.956543,444.0517883 776.928894,441.4763184 777.9011841,438.8860474 
		778.8735352,436.2823181 779.8460083,433.6651001 780.8183594,431.0371399 781.7907715,428.3929443 782.7631836,425.7421265 
		783.7354736,423.0819092 784.7078857,420.4162903 785.6802368,417.7398376 786.6525269,415.060791 787.625,412.3791199 
		788.5973511,409.6878052 789.5698242,406.9966125 790.5421143,404.3067932 791.5144653,401.6143188 792.4868774,398.9258423 
		793.4592896,396.2331848 794.4316406,393.5474243 795.4040527,390.8643188 796.3763428,388.1866455 797.3486328,385.5155945 
		798.321106,382.8486328 799.293457,380.1937866 800.2659302,377.5442505 801.2382812,374.9096069 802.2106323,372.2869873 
		803.1831055,369.6737976 804.1553955,367.0741272 805.1277466,364.4863892 806.1000977,361.9176636 807.0724487,359.3663025 
		808.0449219,356.8311157 809.0172729,354.3175659 809.989624,351.8200073 810.9620361,349.3452759 811.9343872,346.8908997 
		812.9067383,344.4592285 813.8792114,342.0518494 814.8515625,339.6713867 815.8239136,337.3110657 816.7962646,334.9816895 
		817.7685547,332.6778564 818.7410278,330.4022522 819.7133789,328.158905 820.68573,325.9423828 821.6582031,323.7582397 
		822.6305542,321.6064453 823.6029053,319.4855042 824.5753174,317.3995667 825.5476685,315.3444214 826.5200195,313.3311157 
		827.4923706,311.3513794 828.4647827,309.4093323 829.4371948,307.5049438 830.4095459,305.6381836 831.3818359,303.8091431 
		832.3543091,302.0175781 833.3266602,300.2760315 834.2991333,298.5706177 835.2714233,296.9057007 836.2437744,295.2862854 
		837.2161865,293.7060547 838.1884766,292.1715698 839.1608887,290.6813965 840.1333008,289.2382202 841.1056519,287.8435669 
		842.078125,286.4932861 843.0504761,285.1873779 844.0228271,283.9297791 844.9952393,282.7194519 845.9675293,281.5560913 
		846.9398804,280.4478455 847.9122925,279.3867493 848.8847046,278.3726501 849.8570557,277.4096375 850.8294678,276.4951172 
		851.8017578,275.6330872 852.774231,274.8247681 853.746582,274.0648193 854.7188721,273.3587952 855.6913452,272.7037964 
		856.6636963,272.1040344 857.6360474,271.5525818 858.6083984,271.0509033 859.5808105,270.6084595 860.5532227,270.2238159 
		861.5255737,269.8862 862.4979858,269.6037292 863.4703979,269.3737793 864.442749,269.1949158 865.414978,269.0697937 
		866.3874512,269.0026245 867.3598022,268.9904785 868.3322144,269.0308228 869.3046265,269.125 870.2769775,269.2728882 
		871.2493896,269.4746399 872.2216797,269.7234497 873.1940918,270.0328064 874.1664429,270.3999329 875.1387939,270.814209 
		876.111145,271.2823181 877.0836182,271.8040466 878.0559692,272.3756409 879.0283203,272.9983521 880.0007324,273.6815186 
		880.9730835,274.413147 881.9454956,275.1972961 882.9179077,276.0311279 883.8902588,276.9133911 884.8626099,277.8494263 
		885.8348999,278.8367004 886.807373,279.8721924 887.7797241,280.9603271 888.7520752,282.0953369 889.7245483,283.280304 
		890.6968994,284.5108643 891.6692505,285.7885132 892.6416016,287.114563 893.6138916,288.4891357 894.5863647,289.9106445 
		895.5587158,291.3753662 896.5310669,292.8829956 897.50354,294.4363708 898.4758911,296.0340881 899.4481812,297.6776123 
		900.4206543,299.3601685 901.3930054,301.0869751 902.3654175,302.8515625 903.3378296,304.6590881 904.3101196,306.5015869 
		905.2825317,308.3858643 906.2548218,310.3104248 907.2271729,312.2700195 908.199646,314.2712402 909.1719971,316.3007202 
		910.1443481,318.3691406 911.1168213,320.4713135 912.0891724,322.6029968 913.0614624,324.7723389 914.0338135,326.9726562 
		915.0062256,329.2012024 915.9786377,331.4619446 916.9509888,333.748291 917.9234009,336.0629883 918.895813,338.407135 
		919.868103,340.7796021 920.8405762,343.1747742 921.8129272,345.5944214 922.7852173,348.0340576 923.7576294,350.4993286 
		924.7300415,352.9833984 925.7023926,355.4889221 926.6747437,358.0133667 927.6470947,360.5566406 928.6195679,363.1146851 
		929.5919189,365.6954956 930.56427,368.2844543 931.5367432,370.8909607 932.5090942,373.509552 933.4813232,376.1401978 
		934.4537354,378.7815857 935.4261475,381.432373 936.3984985,384.0927124 937.3709106,386.7622681 938.3433228,389.4360352 
		939.3157349,392.1165161 940.2880249,394.8009644 941.260376,397.4893799 942.2327881,400.180603 943.2051392,402.8717651 
		944.1774902,405.5630188 945.1499634,408.2528381 946.1223145,410.9439697 947.0946655,413.6297913 948.0670166,416.311615 
		949.0394287,418.9906311 950.0118408,421.6616821 950.9841919,424.3259277 951.956604,426.9807739 952.9289551,429.6289673 
		953.9012451,432.2623291 954.8736572,434.8862305 955.8460693,437.4967651 956.8184204,440.0978088 957.7908325,442.6827698 
		958.7632446,445.2489014 959.7355957,447.7988281 960.7079468,450.3313599 961.6802368,452.8449097 962.6525879,455.3411255 
		963.625061,457.8130493 964.5974121,460.2675781 965.5698853,462.6977844 966.5422363,465.099823 967.5145264,467.4804077 
		968.4869385,469.8366699 969.4593506,472.1660767 970.4317017,474.4671326 971.4041138,476.7401123 	"/>
	<polyline clip-path="url(#SVGID_2_)" fill="none" stroke="#FF0000" stroke-width="5" stroke-miterlimit="10" points="0,67.2458649 
		9.8111515,74.0380859 19.6224003,80.830307 29.433754,87.6225281 39.2450027,94.4146729 49.0562973,101.2069702 
		58.8675461,107.999115 68.6787949,114.7913361 78.4901505,121.5835571 88.3013992,128.3757782 98.112648,135.167923 
		107.9238968,141.960144 117.735199,148.7524414 127.5465012,155.5445862 137.3577118,162.3368073 147.1689911,169.1290283 
		156.9803009,175.9212494 166.7915955,182.7135468 176.6028595,189.5056152 186.4139862,196.2978363 196.2253571,203.0900574 
		206.0366058,209.8822021 215.8479462,216.6744995 225.6591949,223.4667664 235.4705048,230.2588196 245.2818451,237.0511627 
		255.0930939,243.8433075 264.9043884,250.6355286 274.7156372,257.4277344 284.526886,264.2200012 294.3381653,271.012085 
		304.1495056,277.8043213 313.9606934,284.5965576 323.7720337,291.3887939 333.583313,298.1809998 343.3945618,304.9732666 
		353.2058411,311.7654419 363.0170898,318.5576782 372.8283386,325.3497925 382.6397095,332.1420898 392.4508972,338.9342651 
		402.262207,345.7263794 412.0734558,352.5186768 421.8847961,359.3108826 431.6960449,366.1030579 441.5072937,372.8953552 
		451.3186035,379.6875 461.1298523,386.4797668 470.9411926,393.2718201 480.7524414,400.0641174 490.5638428,406.8563232 
		500.375,413.6485291 510.1862488,420.4407959 519.9975586,427.2330017 529.8088379,434.0252075 539.6201782,440.8173828 
		549.4313965,447.6096191 559.2426758,454.4017944 569.0539551,461.1940918 578.8652344,467.9862976 588.6765137,474.7784424 
		598.487854,481.5706177 608.2990112,488.3628845 618.1102905,495.1550903 627.9214478,501.9472656 637.7328491,508.739563 
		647.5441284,515.5316772 657.3554688,522.3239136 667.166687,529.1161499 676.9780273,535.9083252 686.7892456,542.7006226 
		696.6005249,549.4927368 706.4118652,556.2850342 716.2230225,563.0771484 726.0344238,569.8693848 735.8456421,576.6616211 
		745.6569214,583.4537964 755.4682617,590.2460327 765.27948,597.0383301 775.0908203,603.8305054 784.9020386,610.6226807 
		794.7133789,617.414856 804.5245361,624.2070923 814.3358154,630.9993286 824.1471558,637.7914429 833.958374,644.5836792 
		843.7697144,651.3759155 853.5809326,658.1680908 863.3922729,664.9603271 873.2035522,671.7525635 883.0147705,678.5447998 
		892.8261108,685.3369141 902.6373291,692.1292114 912.4486084,698.9213867 922.2598267,705.713501 932.071106,712.5057983 
		941.8824463,719.2980957 951.6936646,726.0901489 961.5050049,732.8824463 971.3163452,739.6746826 	"/>
</g>
</svg>
