<?xml version="1.0" encoding="utf-8"?>
<!-- Generator: Adobe Illustrator 26.0.0, SVG Export Plug-In . SVG Version: 6.00 Build 0)  -->
<svg version="1.1" id="Layer_1" xmlns="http://www.w3.org/2000/svg" xmlns:xlink="http://www.w3.org/1999/xlink" x="0px" y="0px"
	 viewBox="0 0 878.7 494.7" style="enable-background:new 0 0 878.7 494.7;" xml:space="preserve">
<style type="text/css">
	.st0{fill:#FFFFFF;stroke:#000000;stroke-miterlimit:10;}
	.st1{fill:none;stroke:#000000;stroke-width:3;stroke-miterlimit:10;}
	.st2{fill:none;stroke:#000000;stroke-width:3;stroke-miterlimit:10;stroke-dasharray:12,12;}
	.st3{fill:#9DFF8B;stroke:#000000;stroke-width:3;stroke-miterlimit:10;}
	.st4{fill:none;stroke:#000000;stroke-miterlimit:10;}
</style>
<rect x="655.4" y="24.3" class="st0" width="144.4" height="434.9"/>
<line class="st1" x1="874.4" y1="459.7" x2="80.4" y2="459.7"/>
<line class="st1" x1="79.9" y1="460.2" x2="79.9" y2="392.2"/>
<line class="st1" x1="79.9" y1="392.2" x2="655.4" y2="24.3"/>
<g>
	<g>
		<line class="st1" x1="79.4" y1="392.7" x2="85.4" y2="392.7"/>
		<line class="st2" x1="97.4" y1="392.7" x2="639.4" y2="392.7"/>
		<line class="st1" x1="645.4" y1="392.7" x2="651.4" y2="392.7"/>
	</g>
</g>
<line class="st1" x1="655.4" y1="24.3" x2="711" y2="0.5"/>
<line class="st1" x1="799.8" y1="24.3" x2="826.8" y2="0.5"/>
<line class="st1" x1="711.4" y1="0.7" x2="826.4" y2="0.7"/>
<line class="st1" x1="826.4" y1="0.7" x2="826.8" y2="396.5"/>
<line class="st1" x1="826.8" y1="396.5" x2="799.8" y2="459.2"/>
<rect x="655.4" y="24.3" class="st3" width="144.4" height="434.9"/>
<g>
	<g>
		<path d="M317.6,472.1c6.6,4.8,11.8,11,15.5,18.2c0.9,1.7,3.5,0.2,2.6-1.5c-3.9-7.7-9.6-14.2-16.6-19.3
			C317.5,468.4,316,471,317.6,472.1L317.6,472.1z"/>
	</g>
</g>
<g>
	<g>
		<path d="M335.8,468.7c-5.1,8.1-10.4,16-15.9,23.8c-1.1,1.6,1.5,3.1,2.6,1.5c5.5-7.8,10.8-15.7,15.9-23.8
			C339.4,468.6,336.8,467.1,335.8,468.7L335.8,468.7z"/>
	</g>
</g>
<g>
	<g>
		<path d="M53.2,414c-0.4,12.1-0.2,24.2,0.8,36.3c1-0.1,2-0.3,2.9-0.4c-0.6-3.9-0.5-7.8,0.4-11.7c0.6-2.4,4.1-13.7,9.1-7.3
			c1.8,2.3,1.6,6.9,1.6,9.6c0,4-0.8,7.9-2.1,11.7c-0.6,1.8,2.3,2.6,2.9,0.8c2-5.9,5.7-25.8-4.5-27.2c-10.5-1.4-11.2,18.7-10.3,24.9
			c0.2,1.7,3.1,1.3,2.9-0.4c-0.9-12.1-1.1-24.2-0.7-36.3C56.3,412,53.3,412,53.2,414L53.2,414z"/>
	</g>
</g>
<g>
	<g>
		<path d="M167,349c-4.6,7.2-8.6,19.1-2.4,26.5c5.6,6.7,14.6,3.7,18.2-3.4c3.7-7.2,5.2-19.2-0.5-25.8c-4.7-5.4-13.3-4.9-16.1,2
			c-0.7,1.8,2.2,2.6,2.9,0.8c1.7-4.3,7-4.3,10.1-1.7c2.4,2.1,3.5,5.5,3.7,8.6c0.4,5-0.7,12.1-3.7,16.3c-5.8,7.8-14.2,2.4-14.6-6
			c-0.3-5.6,2.1-11.2,5-15.8C170.7,348.9,168.1,347.4,167,349L167,349z"/>
	</g>
</g>
<g>
	<g>
		<path d="M163.3,363.9c5,0,10.1,0,15.1,0c1.9,0,1.9-3,0-3c-5,0-10.1,0-15.1,0C161.4,360.9,161.4,363.9,163.3,363.9L163.3,363.9z"/>
	</g>
</g>
<g>
	<g>
		<path d="M189.6,329.8c5.2,0.3,9.1,6.6,11.7,10.4c2.8,4,5.1,8.3,7,12.9c3.7,9,5.5,18.6,5.5,28.4c0,1.9,3,1.9,3,0
			c0.1-11.6-2.4-23-7.5-33.5c-3.6-7.4-10.3-20.7-19.7-21.2C187.7,326.7,187.7,329.7,189.6,329.8L189.6,329.8z"/>
	</g>
</g>
<path d="M870,184.3"/>
<path class="st1" d="M840.6,192.3c-0.2,5-0.1,9.9,0.1,14.9c0.1,2,0.3,4.3,1.9,5.7c1.4,1.3,3.6,1.4,5.4,0.8c3.9-1.2,6.7-4.9,7.8-8.9
	s0.8-8.1,0.5-12.2c0.4,12,0.8,24-0.6,36c-0.3,3-0.8,6.2-2.7,8.6c-2.6,3.4-7.9,4.4-11.6,2.3s-5.4-7.3-3.7-11.3
	c0.9-2.1,2.6-3.8,4.2-5.4c7.3-7.2,15-14.1,23-20.6"/>
<line class="st1" x1="799.4" y1="23.7" x2="876.4" y2="23.7"/>
<path class="st1" d="M917.4,458.7"/>
<path class="st1" d="M802.4,458.7"/>
<line class="st1" x1="848.6" y1="252.5" x2="848.8" y2="460.5"/>
<line class="st1" x1="849.4" y1="24.7" x2="849.6" y2="174.7"/>
<path class="st4" d="M21.8,379.8c-1.8,0.6-3.5,1.7-5.1,2.8c-0.6,0.4-1.2,0.8-1.5,1.5c-0.2,0.4-0.2,0.8-0.2,1.3
	c0,1.8,0.2,3.6,0.6,5.4c0.5,2.2,1.3,4.5,3,6c1.1,1,2.6,1.5,4,2c3.4,1.1,6.9,1.7,10.5,1.8c2.1,0.1,4.3,0,5.9-1.3
	c2.4-1.9,2.4-5.6,1.1-8.4c-1.3-2.7-3.6-4.9-5.4-7.3c-0.9-1.1-1.6-2.3-2.8-3.1c-1.6-1.1-3-0.6-4.8-0.7
	C25.2,379.5,23.8,379.1,21.8,379.8z"/>
<path class="st4" d="M29.4,401c-0.2,6-0.4,12.1-0.6,18.1c0,1.3-0.1,2.7-0.1,4c-0.1,3-0.2,6-0.6,9"/>
<path class="st4" d="M13.4,423c1.3-2.8,3.7-4.8,6.1-6.6c3.1-2.4,6.3-4.8,9.5-7.1c2.5,8.2,5.9,16.1,10.1,23.6"/>
<path class="st4" d="M16.6,460.6c2.1-5.6,6.7-10,8.6-15.7c0.7-2.2,1-4.5,0.9-6.8c-0.1-1.7-0.3-3.8,1.1-4.8c0.6-0.4,1.5-0.9,1.2-1.5
	c-0.8,2.4-0.1,5,0.7,7.3c1.1,3.3,2.1,6.6,3.9,9.6c1,1.8,2.3,3.4,3.3,5.2c1.4,2.5,2.3,5.4,2.6,8.3"/>
</svg>
