<?xml version="1.0" encoding="UTF-8" standalone="no"?>
<svg
   xmlns:dc="http://purl.org/dc/elements/1.1/"
   xmlns:cc="http://creativecommons.org/ns#"
   xmlns:rdf="http://www.w3.org/1999/02/22-rdf-syntax-ns#"
   xmlns:svg="http://www.w3.org/2000/svg"
   xmlns="http://www.w3.org/2000/svg"
   xmlns:sodipodi="http://sodipodi.sourceforge.net/DTD/sodipodi-0.dtd"
   xmlns:inkscape="http://www.inkscape.org/namespaces/inkscape"
   version="1.1"
   id="svg2"
   inkscape:version="0.48.5 r10040"
   width="359"
   height="221.951"
   sodipodi:docname="u1der2_infiniteintersectiontanline.svg">
  <metadata
     id="metadata35">
    <rdf:RDF>
      <cc:Work
         rdf:about="">
        <dc:format>image/svg+xml</dc:format>
        <dc:type
           rdf:resource="http://purl.org/dc/dcmitype/StillImage" />
      </cc:Work>
    </rdf:RDF>
  </metadata>
  <sodipodi:namedview
     pagecolor="#ffffff"
     bordercolor="#666666"
     borderopacity="1"
     objecttolerance="10"
     gridtolerance="10"
     guidetolerance="10"
     inkscape:pageopacity="0"
     inkscape:pageshadow="2"
     inkscape:window-width="905"
     inkscape:window-height="593"
     id="namedview33"
     showgrid="false"
     fit-margin-top="0"
     fit-margin-left="0"
     fit-margin-right="0"
     fit-margin-bottom="0"
     inkscape:zoom="1"
     inkscape:cx="204.03297"
     inkscape:cy="135.76991"
     inkscape:window-x="228"
     inkscape:window-y="121"
     inkscape:window-maximized="0"
     inkscape:current-layer="g6" />
  <g
     transform="translate(-66,-5)"
     id="g4">
    <g
       clip-path="url(#cp1)"
       id="g6"
       style="stroke-width:2.1875;stroke-miterlimit:4;stroke-dasharray:none">
      <clipPath
         id="cp1">
        <polygon
           points="425,5 66,5 66,227 425,227 "
           id="polygon9" />
      </clipPath>
      <polyline
         points="73.276,144.828 73.3816,145.777 73.4873,146.725 73.6986,148.611 74.1211,152.348 74.9663,159.664 76.6565,173.527 76.7622,174.354 76.8678,175.176 77.0791,176.805 77.5017,179.999 78.3468,186.118 78.4524,186.856 78.5581,187.588 78.7694,189.034 79.1919,191.85 80.0371,197.164 80.1516,197.851 80.2661,198.529 80.4952,199.86 80.9533,202.421 81.0678,203.039 81.1823,203.649 81.4114,204.842 81.8695,207.12 81.984,207.667 82.0985,208.204 82.3276,209.251 82.7857,211.232 82.9002,211.703 83.0148,212.165 83.2438,213.059 83.7019,214.73 83.8165,215.123 83.931,215.506 84.16,216.242 84.2746,216.595 84.3891,216.938 84.6181,217.593 84.7327,217.906 84.8472,218.208 85.0763,218.781 85.1908,219.052 85.3053,219.313 85.5344,219.803 85.6489,220.033 85.7634,220.252 85.9925,220.659 86.107,220.847 86.2215,221.024 86.4506,221.347 86.5651,221.492 86.6796,221.627 86.7942,221.751 86.9087,221.865 87.0232,221.968 87.1377,222.06 87.2523,222.142 87.3668,222.213 87.4737,222.27 87.5807,222.318 87.6876,222.356 87.7946,222.385 87.9015,222.404 88.0084,222.415 88.1154,222.416 88.2223,222.407 88.3292,222.39 88.4362,222.363 88.5431,222.326 88.6501,222.281 88.757,222.226 88.8639,222.162 88.9709,222.089 89.0778,222.006 89.1847,221.914 89.2917,221.813 89.3986,221.703 89.5056,221.583 89.6125,221.454 89.7194,221.316 89.9333,221.012 90.0402,220.847 90.1472,220.672 90.3611,220.295 90.468,220.093 90.5749,219.881 90.7888,219.432 90.8957,219.193 91.0027,218.946 91.2166,218.424 91.6443,217.273 91.7513,216.964 91.8582,216.645 92.0721,215.981 92.4998,214.55 92.6068,214.17 92.7137,213.782 92.9276,212.98 93.3553,211.276 94.2108,207.471 94.3157,206.969 94.4205,206.459 94.6302,205.417 95.0495,203.245 95.8883,198.551 95.9931,197.933 96.0979,197.308 96.3076,196.037 96.727,193.415 97.5657,187.865 97.6705,187.144 97.7754,186.417 97.9851,184.944 98.4044,181.931 99.2431,175.644 100.921,162.148 101.034,161.194 101.148,160.236 101.375,158.306 101.83,154.397 102.74,146.406 104.56,129.902 108.199,96.282 108.305,95.3151 108.411,94.35 108.624,92.4255 109.048,88.6016 109.897,81.0721 111.595,66.6294 111.702,65.7596 111.808,64.894 112.02,63.176 112.445,59.7951 113.294,53.2689 114.992,41.2815 115.107,40.5259 115.222,39.7779 115.452,38.3049 115.912,35.4531 116.832,30.1421 116.947,29.5164 117.062,28.8993 117.292,27.6914 117.752,25.3823 118.673,21.2038 118.788,20.7237 118.903,20.2532 119.133,19.341 119.593,17.6331 119.708,17.2306 119.823,16.8381 120.053,16.0828 120.513,14.6926 120.628,14.3703 120.743,14.0581 120.973,13.4645 121.088,13.1831 121.203,12.912 121.433,12.4006 121.548,12.1605 121.663,11.9308 121.893,11.5025 122.008,11.304 122.123,11.116 122.353,10.7715 122.466,10.6178 122.579,10.4742 122.692,10.3408 122.805,10.2175 122.918,10.1044 123.031,10.0016 123.144,9.9089 123.257,9.82644 123.37,9.7542 123.482,9.69219 123.595,9.6404 123.708,9.59885 123.821,9.56753 123.934,9.54645 124.047,9.53561 124.16,9.53501 124.273,9.54465 124.386,9.56452 124.499,9.59462 124.612,9.63495 124.725,9.6855 124.838,9.74627 124.951,9.81725 125.063,9.89843 125.176,9.98981 125.289,10.0914 125.402,10.2031 125.515,10.325 125.628,10.457 125.741,10.5992 125.967,10.9138 126.08,11.0863 126.193,11.2688 126.419,11.664 126.531,11.8766 126.644,12.0992 126.87,12.5743 126.983,12.8267 127.096,13.089 127.322,13.6431 127.774,14.8688 127.887,15.1995 127.999,15.5398 128.225,16.2493 128.677,17.7825 128.79,18.1894 128.903,18.6056 129.129,19.4658 129.58,21.2967 129.686,21.7445 129.791,22.2002 130.002,23.1348 130.423,25.0962 131.266,29.3777 131.371,29.9456 131.476,30.5206 131.687,31.6918 132.108,34.1174 132.951,39.2893 133.056,39.9648 133.162,40.6465 133.372,42.0285 133.794,44.865 134.637,50.8138 136.322,63.6987 136.436,64.6143 136.55,65.5347 136.779,67.3899 137.236,71.1547 138.149,78.8804 139.977,94.9418 143.632,128.051 143.739,129.011 143.845,129.969 144.059,131.882 144.485,135.687 145.338,143.199 147.044,157.686 147.151,158.562 147.258,159.434 147.471,161.167 147.897,164.581 148.75,171.193 150.456,183.422 150.561,184.124 150.666,184.82 150.875,186.194 151.293,188.868 152.129,193.914 152.234,194.515 152.338,195.109 152.547,196.278 152.965,198.532 153.802,202.701 153.906,203.189 154.011,203.67 154.22,204.609 154.638,206.397 154.742,206.825 154.847,207.245 155.056,208.062 155.474,209.602 155.579,209.967 155.683,210.324 155.892,211.015 156.31,212.299 156.415,212.6 156.519,212.892 156.729,213.453 157.147,214.475 157.26,214.729 157.373,214.974 157.6,215.434 157.714,215.649 157.827,215.854 158.054,216.234 158.167,216.41 158.281,216.575 158.394,216.731 158.508,216.876 158.621,217.011 158.735,217.137 158.848,217.252 158.961,217.358 159.075,217.453 159.188,217.538 159.302,217.614 159.415,217.679 159.528,217.734 159.642,217.779 159.755,217.814 159.869,217.839 159.982,217.854 160.096,217.859 160.209,217.854 160.322,217.839 160.436,217.813 160.549,217.778 160.663,217.733 160.776,217.677 160.89,217.612 161.003,217.537 161.116,217.451 161.23,217.356 161.343,217.25 161.457,217.135 161.683,216.874 161.797,216.729 161.91,216.574 162.137,216.234 162.251,216.049 162.364,215.855 162.591,215.436 162.704,215.212 162.818,214.979 163.044,214.482 163.158,214.22 163.271,213.947 163.498,213.374 163.612,213.073 163.725,212.763 163.952,212.113 164.406,210.702 164.511,210.351 164.617,209.993 164.829,209.251 165.252,207.674 165.358,207.261 165.464,206.839 165.676,205.973 166.099,204.15 166.205,203.675 166.31,203.193 166.522,202.207 166.945,200.148 167.792,195.692 167.898,195.105 168.004,194.511 168.215,193.302 168.639,190.809 169.485,185.525 171.179,173.879 171.293,173.043 171.408,172.201 171.638,170.502 172.096,167.041 173.014,159.892 174.85,144.848 178.521,113.19 178.633,112.212 178.746,111.235 178.971,109.284 179.421,105.395 180.322,97.6883 182.124,82.7352 182.237,81.8275 182.35,80.9234 182.575,79.1267 183.025,75.5815 183.926,68.7025 185.728,55.9362 185.833,55.2379 185.938,54.5451 186.148,53.1759 186.568,50.5053 187.409,45.4468 187.514,44.842 187.619,44.2435 187.829,43.0656 188.249,40.7872 189.089,36.5505 189.194,36.0518 189.299,35.56 189.509,34.5977 189.929,32.7585 190.034,32.3167 190.139,31.8823 190.349,31.0353 190.77,29.4302 190.875,29.0477 190.98,28.6726 191.19,27.9453 191.61,26.5822 191.715,26.2607 191.82,25.9469 192.03,25.3426 192.45,24.228 192.564,23.9475 192.678,23.6763 192.906,23.1618 193.02,22.9187 193.134,22.6849 193.361,22.2455 193.475,22.04 193.589,21.8439 193.817,21.4802 193.931,21.3125 194.045,21.1544 194.273,20.8667 194.387,20.7371 194.5,20.6171 194.614,20.5066 194.728,20.4056 194.842,20.3142 194.956,20.2324 195.07,20.1601 195.184,20.0974 195.298,20.0442 195.412,20.0006 195.526,19.9666 195.64,19.9421 195.754,19.9271 195.867,19.9217 195.981,19.9259 196.095,19.9395 196.209,19.9627 196.323,19.9954 196.437,20.0376 196.551,20.0893 196.665,20.1504 196.779,20.2211 196.893,20.3011 197.007,20.3907 197.121,20.4896 197.234,20.598 197.348,20.7157 197.462,20.8428 197.576,20.9793 197.69,21.125 197.918,21.4445 198.032,21.6181 198.146,21.801 198.374,22.1943 198.488,22.4047 198.601,22.6242 198.829,23.0906 198.943,23.3373 199.057,23.593 199.285,24.1313 199.741,25.3145 199.847,25.6108 199.953,25.9147 200.166,26.5451 200.591,27.8955 200.698,28.2516 200.804,28.6149 201.016,29.3634 201.442,30.9463 201.548,31.3597 201.654,31.7801 201.867,32.6416 202.292,34.4464 203.143,38.3727 203.249,38.8922 203.356,39.4179 203.568,40.4878 203.994,42.6996 204.844,47.3994 206.545,57.7957 206.661,58.5429 206.776,59.2951 207.006,60.8143 207.467,63.9088 208.389,70.3028 210.232,83.7458 213.919,111.878 214.032,112.742 214.145,113.605 214.371,115.326 214.824,118.754 215.729,125.522 217.539,138.56 217.652,139.347 217.765,140.13 217.991,141.684 218.444,144.743 219.348,150.649 221.158,161.477 221.264,162.064 221.369,162.645 221.58,163.791 222.002,166.019 222.847,170.204 222.952,170.701 223.058,171.192 223.269,172.155 223.691,174.01 224.535,177.418 224.641,177.816 224.746,178.206 224.957,178.969 225.379,180.414 225.485,180.758 225.59,181.097 225.801,181.752 226.223,182.983 226.329,183.274 226.434,183.558 226.646,184.105 226.751,184.368 226.857,184.624 227.068,185.117 227.173,185.352 227.279,185.581 227.49,186.017 227.912,186.807 228.026,187.002 228.141,187.188 228.369,187.537 228.484,187.699 228.598,187.852 228.827,188.135 228.942,188.264 229.056,188.385 229.17,188.497 229.285,188.602 229.399,188.698 229.514,188.786 229.628,188.866 229.742,188.937 229.857,189.001 229.971,189.056 230.086,189.103 230.2,189.143 230.314,189.173 230.429,189.196 230.543,189.211 230.658,189.218 230.772,189.217 230.887,189.207 231.001,189.19 231.115,189.165 231.23,189.131 231.344,189.09 231.459,189.041 231.573,188.984 231.687,188.919 231.802,188.847 231.916,188.766 232.031,188.678 232.145,188.582 232.259,188.479 232.488,188.248 232.603,188.122 232.717,187.988 232.946,187.697 233.06,187.541 233.175,187.377 233.404,187.027 233.518,186.841 233.632,186.648 233.861,186.24 234.319,185.34 234.433,185.097 234.548,184.848 234.776,184.329 235.234,183.21 235.341,182.934 235.448,182.652 235.661,182.072 236.089,180.847 236.943,178.148 237.05,177.788 237.157,177.423 237.371,176.68 237.798,175.138 238.652,171.847 238.759,171.417 238.866,170.984 239.08,170.106 239.507,168.306 240.362,164.545 242.071,156.501 242.175,155.99 242.28,155.477 242.49,154.447 242.908,152.369 243.746,148.155 245.422,139.609 245.527,139.074 245.631,138.539 245.841,137.471 246.26,135.339 247.097,131.111 248.773,122.885 248.887,122.342 249,121.801 249.227,120.727 249.682,118.608 250.591,114.497 250.704,113.996 250.818,113.498 251.045,112.512 251.5,110.576 252.408,106.864 252.522,106.416 252.636,105.971 252.863,105.092 253.317,103.378 254.226,100.129 254.34,99.7398 254.453,99.3547 254.681,98.5961 255.135,97.1256 256.044,94.3727 256.15,94.068 256.256,93.7666 256.468,93.1742 256.892,92.0301 257.74,89.9041 257.846,89.6534 257.952,89.406 258.164,88.9211 258.588,87.9905 259.437,86.283 259.543,86.0837 259.649,85.8875 259.861,85.5042 260.285,84.7738 260.391,84.5987 260.497,84.4265 260.709,84.0909 261.133,83.454 261.239,83.3019 261.345,83.1525 261.557,82.862 261.981,82.3137 262.087,82.1833 262.193,82.0555 262.405,81.8076 262.829,81.3427 262.944,81.2236 263.059,81.1074 263.289,80.8836 263.748,80.4697 263.863,80.3732 263.978,80.2793 264.208,80.0996 264.668,79.7716 264.783,79.6961 264.897,79.6231 265.127,79.4846 265.242,79.4191 265.357,79.3561 265.587,79.2374 265.702,79.1816 265.817,79.1283 266.047,79.0287 266.161,78.9824 266.276,78.9385 266.506,78.8577 266.621,78.8207 266.736,78.7861 266.851,78.7537 266.966,78.7236 267.081,78.6957 267.196,78.6701 267.31,78.6468 267.425,78.6256 267.54,78.6068 267.655,78.5901 267.77,78.5757 267.885,78.5635 268,78.5535 268.115,78.5457 268.23,78.5401 268.345,78.5367 268.46,78.5355 268.574,78.5366 268.689,78.5398 268.804,78.5453 268.919,78.5529 269.034,78.5628 269.149,78.5748 269.264,78.5891 269.379,78.6056 269.494,78.6244 269.609,78.6454 269.724,78.6686 269.838,78.694 269.953,78.7217 270.183,78.7839 270.296,78.8178 270.409,78.8539 270.634,78.9327 270.747,78.9755 270.86,79.0205 271.086,79.1174 271.198,79.1692 271.311,79.2234 271.537,79.3387 271.988,79.5977 272.101,79.6685 272.214,79.7417 272.439,79.8955 272.891,80.2332 273.003,80.324 273.116,80.4174 273.342,80.6121 273.793,81.0337 273.906,81.1459 274.019,81.2609 274.244,81.4993 274.695,82.0104 274.808,82.1455 274.921,82.2835 275.147,82.5686 275.598,83.1754 275.711,83.3349 275.824,83.4976 276.049,83.8324 276.5,84.5411 277.403,86.1192 277.508,86.3175 277.613,86.5189 277.824,86.931 278.245,87.7924 279.086,89.668 279.192,89.917 279.297,90.1692 279.507,90.6836 279.928,91.752 280.77,94.049 280.875,94.3512 280.98,94.6568 281.191,95.2781 281.612,96.5612 282.453,99.2883 284.137,105.374 284.251,105.816 284.365,106.261 284.593,107.163 285.05,109.009 285.962,112.863 287.788,121.148 291.439,139.277 291.546,139.821 291.653,140.365 291.866,141.454 292.292,143.632 293.144,147.97 294.848,156.463 294.954,156.981 295.061,157.497 295.274,158.524 295.7,160.551 296.552,164.488 298.256,171.777 298.361,172.193 298.465,172.606 298.674,173.421 299.092,175.002 299.927,177.959 300.032,178.309 300.136,178.654 300.345,179.329 300.762,180.623 301.598,182.966 301.702,183.236 301.807,183.5 302.015,184.011 302.433,184.967 302.538,185.192 302.642,185.411 302.851,185.832 303.268,186.604 303.373,186.782 303.477,186.954 303.686,187.279 303.791,187.433 303.895,187.581 304.104,187.858 304.208,187.986 304.313,188.109 304.417,188.226 304.521,188.336 304.626,188.439 304.73,188.537 304.939,188.712 305.052,188.797 305.166,188.874 305.279,188.943 305.392,189.004 305.506,189.058 305.619,189.104 305.732,189.143 305.846,189.173 305.959,189.196 306.072,189.211 306.185,189.218 306.299,189.217 306.412,189.208 306.525,189.192 306.639,189.167 306.752,189.134 306.865,189.094 306.979,189.046 307.092,188.989 307.205,188.925 307.319,188.852 307.432,188.772 307.545,188.684 307.658,188.587 307.772,188.483 307.885,188.37 307.998,188.249 308.112,188.121 308.225,187.984 308.338,187.839 308.565,187.525 308.678,187.356 308.791,187.179 309.018,186.801 309.131,186.6 309.245,186.39 309.471,185.948 309.585,185.714 309.698,185.473 309.924,184.966 310.378,183.857 310.491,183.56 310.604,183.255 310.831,182.622 311.284,181.261 312.191,178.169 312.296,177.777 312.402,177.378 312.613,176.561 313.036,174.851 313.882,171.13 313.988,170.638 314.093,170.139 314.305,169.124 314.728,167.025 315.573,162.555 315.679,161.972 315.785,161.384 315.996,160.191 316.419,157.745 317.265,152.621 318.956,141.541 319.071,140.755 319.185,139.965 319.415,138.373 319.873,135.144 320.79,128.525 322.623,114.806 326.291,86.7761 326.398,85.9703 326.505,85.1662 326.719,83.5632 327.147,80.3801 328.003,74.1235 329.715,62.1832 329.822,61.4675 329.929,60.7558 330.143,59.3449 330.571,56.5744 331.427,51.2543 333.139,41.6141 333.244,41.071 333.349,40.5337 333.559,39.4769 333.979,37.4356 334.083,36.9406 334.188,36.4518 334.398,35.4933 334.818,33.653 334.923,33.2093 335.028,32.7721 335.237,31.9179 335.657,30.2905 336.496,27.3696 336.601,27.0366 336.706,26.7107 336.916,26.0809 337.336,24.9096 337.441,24.6354 337.546,24.3686 337.755,23.8577 338.175,22.9271 338.28,22.7135 338.385,22.5077 338.595,22.1193 338.7,21.9367 338.804,21.7619 339.014,21.4358 339.119,21.2845 339.224,21.1411 339.329,21.0056 339.434,20.878 339.539,20.7583 339.644,20.6466 339.749,20.5428 339.854,20.447 339.967,20.3521 340.081,20.2666 340.195,20.1905 340.309,20.1239 340.423,20.0667 340.536,20.019 340.65,19.9808 340.764,19.952 340.878,19.9328 340.992,19.923 341.105,19.9228 341.219,19.9321 341.333,19.9509 341.447,19.9792 341.561,20.0171 341.674,20.0645 341.788,20.1215 341.902,20.188 342.016,20.264 342.13,20.3495 342.243,20.4446 342.357,20.5493 342.585,20.7871 342.699,20.9203 342.812,21.063 343.04,21.3769 343.154,21.548 343.268,21.7287 343.495,22.1183 343.609,22.3272 343.723,22.5456 343.95,23.0105 344.064,23.257 344.178,23.5129 344.406,24.0525 344.519,24.3362 344.633,24.6292 344.861,25.2429 345.316,26.5801 345.43,26.9371 345.544,27.3032 345.771,28.0623 346.226,29.6874 347.137,33.357 347.243,33.8208 347.349,34.2919 347.562,35.2559 347.986,37.2703 348.836,41.6345 348.942,42.2106 349.048,42.7934 349.261,43.9787 349.686,46.4268 350.535,51.6217 350.642,52.298 350.748,52.9801 350.96,54.3615 351.385,57.1914 352.235,63.1058 353.934,75.8387 354.049,76.7394 354.164,77.6445 354.394,79.4675 354.855,83.1619 355.776,90.723 357.617,106.362 361.3,138.26 361.413,139.225 361.526,140.187 361.752,142.107 362.204,145.918 363.108,153.408 364.916,167.696 365.029,168.552 365.142,169.404 365.368,171.091 365.82,174.403 366.724,180.759 368.532,192.26 368.637,192.876 368.743,193.486 368.954,194.685 369.375,197.005 370.218,201.318 370.324,201.825 370.429,202.325 370.64,203.304 371.062,205.173 371.905,208.55 372.01,208.937 372.116,209.317 372.327,210.052 372.748,211.428 372.854,211.752 372.959,212.067 373.17,212.675 373.592,213.791 373.697,214.049 373.802,214.299 374.013,214.774 374.119,214.999 374.224,215.216 374.435,215.624 374.54,215.815 374.646,215.998 374.856,216.339 374.962,216.496 375.067,216.645 375.278,216.917 375.392,217.05 375.507,217.173 375.621,217.286 375.735,217.389 375.85,217.482 375.964,217.564 376.078,217.637 376.192,217.699 376.307,217.751 376.421,217.793 376.535,217.825 376.65,217.846 376.764,217.857 376.878,217.858 376.992,217.849 377.107,217.83 377.221,217.8 377.335,217.76 377.45,217.71 377.564,217.65 377.678,217.58 377.792,217.499 377.907,217.408 378.021,217.307 378.135,217.196 378.25,217.074 378.364,216.943 378.478,216.801 378.593,216.649 378.707,216.487 378.935,216.133 379.05,215.94 379.164,215.738 379.393,215.303 379.507,215.07 379.621,214.828 379.85,214.313 379.964,214.041 380.078,213.759 380.307,213.164 380.764,211.859 380.878,211.508 380.993,211.148 381.221,210.398 381.678,208.784 381.793,208.357 381.907,207.921 382.136,207.02 382.593,205.108 382.7,204.641 382.806,204.166 383.02,203.192 383.446,201.152 384.3,196.713 384.407,196.125 384.513,195.531 384.727,194.32 385.154,191.814 386.007,186.482 386.114,185.787 386.221,185.085 386.434,183.663 386.861,180.747 387.715,174.638 389.422,161.439 389.526,160.593 389.631,159.742 389.84,158.03 390.259,154.562 391.096,147.465 392.769,132.763 396.117,102.441 396.23,101.415 396.344,100.39 396.571,98.3433 397.025,94.269 397.933,86.2168 399.748,70.6755 399.862,69.7359 399.975,68.8007 400.202,66.9434 400.656,63.2846 401.564,56.21 403.38,43.1864 403.486,42.4786 403.592,41.7769 403.804,40.392 404.227,37.698 405.075,32.6266 405.181,32.0234 405.286,31.4272 405.498,30.2561 405.922,28.0002 406.769,23.8448 406.875,23.3596 406.981,22.8823 407.193,21.951 407.616,20.1834 407.722,19.7616 407.828,19.3478 408.04,18.5446 408.464,17.0368 408.569,16.6805 408.675,16.3326 408.887,15.6621 408.993,15.3394 409.099,15.0252 409.311,14.4224 409.417,14.1338 409.523,13.8538 409.734,13.3196 410.158,12.3552 410.276,12.111 410.394,11.8777 410.631,11.4439 410.749,11.2434 410.867,11.054 411.104,10.7083 411.222,10.5521 411.34,10.4069 411.458,10.2729 411.577,10.15 411.695,10.0382 411.813,9.93758 411.931,9.84813 412.049,9.76985 412.168,9.70275 412.286,9.64686 412.404,9.60216 412.522,9.56867 412.641,9.5464 412.759,9.53534 412.877,9.5355 412.995,9.54688 413.113,9.56949 413.232,9.60331 413.35,9.64835 413.468,9.70461 413.586,9.77207 413.705,9.85074 413.823,9.94061 413.941,10.0417 414.059,10.1539 414.177,10.2773 414.296,10.4119 414.414,10.5576 414.532,10.7144 414.65,10.8823 414.887,11.2515 415.005,11.4527 415.123,11.6649 415.36,12.1224 415.478,12.3676 415.596,12.6238 415.832,13.1689 415.951,13.4577 416.069,13.7574 416.305,14.3892 416.778,15.7814 416.896,16.156 417.015,16.5412 417.251,17.3431 417.369,17.7597 417.488,18.1868 417.606,18.6241 417.724,19.0718 "
         id="polyline11"
         style="fill:none;stroke:#3f3d99;stroke-width:2.1875;stroke-opacity:1;stroke-miterlimit:4;stroke-dasharray:none" />
      <polyline
         points="73.276,78.5355 76.6565,78.5355 80.0371,78.5355 87.3668,78.5355 94.2108,78.5355 100.921,78.5355 108.199,78.5355 114.992,78.5355 122.353,78.5355 129.58,78.5355 136.322,78.5355 143.632,78.5355 150.456,78.5355 157.147,78.5355 164.406,78.5355 171.179,78.5355 178.521,78.5355 185.728,78.5355 192.45,78.5355 199.741,78.5355 206.545,78.5355 213.919,78.5355 221.158,78.5355 227.912,78.5355 235.234,78.5355 242.071,78.5355 248.773,78.5355 256.044,78.5355 262.829,78.5355 270.183,78.5355 277.403,78.5355 284.137,78.5355 291.439,78.5355 298.256,78.5355 304.939,78.5355 312.191,78.5355 318.956,78.5355 326.291,78.5355 333.139,78.5355 339.854,78.5355 347.137,78.5355 353.934,78.5355 361.3,78.5355 368.532,78.5355 375.278,78.5355 382.593,78.5355 389.422,78.5355 396.117,78.5355 403.38,78.5355 410.158,78.5355 413.941,78.5355 417.724,78.5355 "
         id="polyline13"
         style="fill:none;stroke:#ff0000;stroke-width:2.1875;stroke-opacity:1;stroke-miterlimit:4;stroke-dasharray:none" />
      <ellipse
         cx="268"
         cy="79"
         rx="3.4086001"
         ry="3.4086001"
         id="ellipse15"
         d="m 271.4086,79 c 0,1.882518 -1.52608,3.4086 -3.4086,3.4086 -1.88252,0 -3.4086,-1.526082 -3.4086,-3.4086 0,-1.882518 1.52608,-3.4086 3.4086,-3.4086 1.88252,0 3.4086,1.526082 3.4086,3.4086 z"
         sodipodi:cx="268"
         sodipodi:cy="79"
         sodipodi:rx="3.4086001"
         sodipodi:ry="3.4086001"
         style="fill:#000000;stroke:none"
         transform="matrix(1.1735023,0,0,1.1735023,-45.907213,-14.298081)" />
    </g>
    <g
       clip-path="url(#cp2)"
       id="g17">
      <clipPath
         id="cp2">
        <polygon
           points="426,5 66,5 66,228 426,228 "
           id="polygon20" />
      </clipPath>
      <polyline
         points="66.1,115.22 424.9,115.22 "
         id="polyline22"
         style="fill:none;stroke:#000000;stroke-width:0.625;stroke-opacity:1;stroke-miterlimit:4;stroke-dasharray:none" />
    </g>
    <g
       clip-path="url(#cp3)"
       id="g24"
       style="stroke-width:0.625;stroke-miterlimit:4;stroke-dasharray:none">
      <clipPath
         id="cp3">
        <polygon
           points="426,5 66,5 66,228 426,228 "
           id="polygon27" />
      </clipPath>
      <polyline
         points="245.5,226.851 245.5,5.1 "
         id="polyline29"
         style="fill:none;stroke:#000000;stroke-width:0.625;stroke-opacity:1;stroke-miterlimit:4;stroke-dasharray:none" />
    </g>
  </g>
  <defs
     id="defs31" />
</svg>
