<?xml version="1.0" encoding="UTF-8" standalone="no"?>
<svg
   xmlns:dc="http://purl.org/dc/elements/1.1/"
   xmlns:cc="http://creativecommons.org/ns#"
   xmlns:rdf="http://www.w3.org/1999/02/22-rdf-syntax-ns#"
   xmlns:svg="http://www.w3.org/2000/svg"
   xmlns="http://www.w3.org/2000/svg"
   xmlns:sodipodi="http://sodipodi.sourceforge.net/DTD/sodipodi-0.dtd"
   xmlns:inkscape="http://www.inkscape.org/namespaces/inkscape"
   version="1.1"
   id="svg2"
   inkscape:version="0.48.5 r10040"
   width="287.82901"
   height="222"
   sodipodi:docname="u1der5_concavedowngraph.svg">
  <metadata
     id="metadata23">
    <rdf:RDF>
      <cc:Work
         rdf:about="">
        <dc:format>image/svg+xml</dc:format>
        <dc:type
           rdf:resource="http://purl.org/dc/dcmitype/StillImage" />
      </cc:Work>
    </rdf:RDF>
  </metadata>
  <sodipodi:namedview
     pagecolor="#ffffff"
     bordercolor="#666666"
     borderopacity="1"
     objecttolerance="10"
     gridtolerance="10"
     guidetolerance="10"
     inkscape:pageopacity="0"
     inkscape:pageshadow="2"
     inkscape:window-width="1069"
     inkscape:window-height="632"
     id="namedview21"
     showgrid="false"
     fit-margin-top="0"
     fit-margin-left="0"
     fit-margin-right="0"
     fit-margin-bottom="0"
     inkscape:zoom="1"
     inkscape:cx="183.26124"
     inkscape:cy="175.81891"
     inkscape:window-x="0"
     inkscape:window-y="0"
     inkscape:window-maximized="0"
     inkscape:current-layer="g6" />
  <g
     transform="translate(-98.786,-5)"
     id="g4">
    <g
       clip-path="url(#cp1)"
       id="g6">
      <clipPath
         id="cp1">
        <polygon
           points="426,5 66,5 66,227 426,227 "
           id="polygon9" />
      </clipPath>
      <polyline
         points="100.586,227.492 100.63,227.208 102.669,214.602 104.879,201.456 107.048,189.066 109.072,177.965 111.266,166.413 113.315,156.082 115.534,145.371 117.713,135.336 119.746,126.398 121.95,117.16 124.008,108.955 126.025,101.297 128.214,93.4137 130.256,86.4493 132.47,79.3208 134.643,72.7392 136.67,66.9655 138.868,61.095 140.92,55.9747 142.931,51.2861 145.114,46.5615 147.151,42.4873 149.358,38.427 151.42,34.9632 153.441,31.8678 155.633,28.8392 157.679,26.3144 159.896,23.8996 162.073,21.846 162.105,21.8183 162.136,21.7907 162.2,21.7358 162.327,21.6266 162.581,21.4114 163.088,20.9933 164.104,20.2065 164.138,20.1809 164.172,20.1555 164.241,20.1048 164.379,20.0044 164.654,19.8071 165.205,19.4267 166.305,18.7224 166.338,18.703 166.37,18.6836 166.434,18.645 166.562,18.5687 166.819,18.4191 167.333,18.132 167.365,18.1145 167.397,18.0972 167.462,18.0627 167.59,17.9944 167.847,17.8608 168.361,17.6055 168.392,17.5904 168.424,17.5753 168.487,17.5454 168.613,17.4862 168.865,17.3706 169.369,17.1507 169.4,17.1375 169.432,17.1243 169.494,17.0981 169.62,17.0464 169.872,16.9459 170.376,16.7559 170.41,16.7435 170.444,16.7312 170.513,16.7069 170.649,16.659 170.923,16.5664 171.469,16.3943 171.503,16.3841 171.538,16.374 171.606,16.3539 171.743,16.3146 172.016,16.2393 172.562,16.1013 172.594,16.0937 172.626,16.0863 172.69,16.0715 172.817,16.0427 173.072,15.9877 173.104,15.9811 173.136,15.9746 173.2,15.9616 173.328,15.9365 173.583,15.8888 173.614,15.8831 173.646,15.8775 173.71,15.8664 173.838,15.8448 174.093,15.8044 174.124,15.7996 174.156,15.7949 174.22,15.7856 174.348,15.7676 174.603,15.7344 174.638,15.7301 174.674,15.7258 174.745,15.7174 174.887,15.7016 174.923,15.6978 174.958,15.694 175.03,15.6868 175.172,15.6731 175.208,15.6699 175.243,15.6667 175.314,15.6606 175.457,15.6492 175.492,15.6465 175.528,15.6438 175.599,15.6388 175.741,15.6296 175.777,15.6274 175.812,15.6254 175.884,15.6214 175.919,15.6195 175.955,15.6177 176.026,15.6144 176.062,15.6128 176.097,15.6112 176.168,15.6084 176.204,15.6071 176.239,15.6058 176.311,15.6035 176.346,15.6025 176.382,15.6015 176.417,15.6006 176.453,15.5997 176.489,15.599 176.524,15.5982 176.56,15.5976 176.595,15.597 176.631,15.5965 176.666,15.5961 176.702,15.5957 176.738,15.5954 176.773,15.5952 176.809,15.595 176.844,15.5949 176.88,15.5949 "
         id="polyline11"
         style="fill:none;stroke:#ff8000;stroke-width:5;stroke-opacity:1;stroke-miterlimit:4;stroke-dasharray:none" />
      <polyline
         points="176.88,15.5949 176.901,15.5949 176.922,15.5949 176.944,15.5949 176.965,15.595 176.986,15.5951 177.007,15.5952 177.028,15.5953 177.05,15.5954 177.071,15.5955 177.092,15.5957 177.113,15.5958 177.134,15.596 177.156,15.5962 177.177,15.5964 177.219,15.5969 177.24,15.5972 177.262,15.5975 177.304,15.5981 177.325,15.5984 177.346,15.5987 177.389,15.5995 177.41,15.5999 177.431,15.6003 177.474,15.6011 177.558,15.603 177.58,15.6036 177.601,15.6041 177.643,15.6052 177.728,15.6076 177.749,15.6083 177.77,15.6089 177.813,15.6103 177.898,15.6132 177.919,15.614 177.94,15.6148 177.982,15.6164 178.067,15.6199 178.237,15.6275 178.26,15.6286 178.283,15.6298 178.329,15.6321 178.421,15.637 178.604,15.6476 178.627,15.649 178.65,15.6505 178.696,15.6534 178.788,15.6595 178.972,15.6725 178.995,15.6742 179.018,15.676 179.064,15.6795 179.156,15.6868 179.34,15.7022 179.708,15.7367 179.729,15.7389 179.751,15.7411 179.793,15.7455 179.879,15.7545 180.051,15.7733 180.394,15.814 180.416,15.8167 180.437,15.8194 180.48,15.8248 180.566,15.8359 180.738,15.8589 181.081,15.908 181.102,15.9111 181.123,15.9143 181.165,15.9206 181.249,15.9336 181.418,15.9601 181.754,16.0164 181.775,16.02 181.796,16.0237 181.838,16.031 181.922,16.046 182.091,16.0766 182.427,16.1408 182.45,16.1453 182.473,16.1498 182.519,16.1589 182.61,16.1774 182.793,16.2151 183.158,16.294 183.888,16.4662 183.909,16.4715 183.931,16.4768 183.973,16.4875 184.058,16.509 184.229,16.553 184.57,16.6439 185.251,16.8381 186.728,17.3155 188.179,17.8596 189.531,18.4344 190.998,19.1311 192.368,19.8504 193.71,20.6201 195.167,21.5276 196.526,22.4423 197.999,23.5078 199.446,24.6287 200.795,25.741 202.258,27.0204 203.623,28.283 205.103,29.7259 206.555,31.2181 207.911,32.6776 209.38,34.3337 210.752,35.9491 212.097,37.5976 213.556,39.4586 214.917,41.2634 216.393,43.2937 217.842,45.3621 219.193,47.3585 220.659,49.5967 222.027,51.7548 223.368,53.9349 224.823,56.3726 226.18,58.7149 227.652,61.3278 229.026,63.8372 230.374,66.3623 231.835,69.1742 233.199,71.867 234.677,74.8596 236.129,77.873 237.482,80.7514 238.95,83.9459 240.321,86.9973 241.664,90.0534 243.122,93.4416 244.482,96.6711 244.505,96.728 244.529,96.785 244.577,96.8989 244.672,97.127 244.861,97.5841 245.241,98.5022 245.265,98.5598 245.288,98.6174 245.336,98.7326 245.431,98.9632 245.62,99.4255 245.644,99.4833 245.668,99.5412 245.715,99.6571 245.81,99.889 245.834,99.947 245.858,100.005 245.905,100.121 245.929,100.179 245.953,100.237 245.976,100.296 246,100.354 "
         id="polyline13"
         style="fill:none;stroke:#ff8000;stroke-width:5;stroke-opacity:1;stroke-miterlimit:4;stroke-dasharray:none" />
      <polyline
         points="246,100.354 246.021,100.406 246.042,100.458 246.085,100.562 246.17,100.769 246.339,101.184 246.678,102.009 247.357,103.649 248.828,107.147 250.201,110.344 251.547,113.413 253.008,116.67 254.371,119.641 255.848,122.786 257.299,125.799 258.651,128.542 260.118,131.443 261.488,134.082 262.83,136.605 264.287,139.27 265.646,141.689 267.119,144.236 268.566,146.663 269.915,148.858 271.378,151.167 272.743,153.253 274.223,155.439 275.675,157.51 277.031,159.374 278.5,161.322 279.872,163.071 281.217,164.721 282.676,166.438 284.037,167.973 285.513,169.562 286.962,171.046 288.313,172.364 289.779,173.72 291.147,174.917 292.488,176.025 293.943,177.156 295.3,178.144 296.772,179.14 298.146,180.002 299.494,180.781 300.955,181.553 302.319,182.206 303.797,182.838 305.249,183.384 306.602,183.826 306.625,183.833 306.648,183.839 306.694,183.853 306.786,183.881 306.969,183.934 307.336,184.038 308.07,184.231 308.092,184.236 308.113,184.242 308.156,184.252 308.242,184.273 308.413,184.315 308.755,184.394 308.777,184.399 308.798,184.404 308.841,184.413 308.927,184.432 309.098,184.469 309.441,184.541 309.462,184.545 309.483,184.549 309.525,184.557 309.609,184.574 309.777,184.606 310.112,184.668 310.133,184.672 310.154,184.675 310.196,184.683 310.28,184.697 310.448,184.726 310.784,184.779 310.807,184.783 310.83,184.786 310.875,184.793 310.966,184.807 311.148,184.833 311.513,184.882 311.536,184.885 311.558,184.888 311.604,184.893 311.695,184.905 311.877,184.926 312.242,184.966 312.263,184.968 312.284,184.97 312.327,184.974 312.412,184.983 312.582,184.998 312.603,185 312.624,185.002 312.667,185.006 312.752,185.013 312.922,185.027 312.943,185.029 312.964,185.03 313.007,185.034 313.092,185.04 313.262,185.051 313.283,185.053 313.304,185.054 313.347,185.057 313.432,185.062 313.602,185.072 313.625,185.073 313.649,185.074 313.697,185.077 313.792,185.081 313.815,185.083 313.839,185.084 313.886,185.086 313.981,185.09 314.005,185.091 314.029,185.092 314.076,185.093 314.171,185.097 314.195,185.098 314.219,185.098 314.266,185.1 314.361,185.103 314.385,185.103 314.408,185.104 314.456,185.105 314.479,185.105 314.503,185.106 314.551,185.107 314.574,185.107 314.598,185.108 314.646,185.109 314.669,185.109 314.693,185.11 314.74,185.11 314.764,185.111 314.788,185.111 314.812,185.111 314.835,185.111 314.859,185.112 314.883,185.112 314.906,185.112 314.93,185.112 314.954,185.112 314.978,185.112 315.001,185.113 315.025,185.113 315.049,185.113 315.073,185.113 315.096,185.113 315.12,185.113 "
         id="polyline15"
         style="fill:none;stroke:#3f3d99;stroke-width:1.5625;stroke-opacity:1;stroke-miterlimit:4;stroke-dasharray:none" />
      <polyline
         points="315.12,185.113 315.152,185.113 315.184,185.113 315.215,185.113 315.247,185.112 315.279,185.112 315.311,185.112 315.343,185.111 315.374,185.111 315.406,185.111 315.438,185.11 315.47,185.11 315.502,185.109 315.533,185.108 315.565,185.107 315.629,185.106 315.661,185.105 315.692,185.104 315.756,185.102 315.788,185.101 315.82,185.1 315.883,185.097 315.915,185.096 315.947,185.095 316.01,185.092 316.138,185.085 316.169,185.083 316.201,185.081 316.265,185.078 316.392,185.069 316.424,185.067 316.456,185.065 316.519,185.06 316.646,185.05 316.678,185.048 316.71,185.045 316.774,185.039 316.901,185.028 317.155,185.001 317.19,184.998 317.224,184.994 317.293,184.986 317.431,184.969 317.707,184.932 317.741,184.928 317.776,184.923 317.845,184.913 317.982,184.892 318.258,184.847 318.293,184.841 318.327,184.835 318.396,184.823 318.534,184.797 318.81,184.744 319.361,184.624 319.394,184.617 319.426,184.609 319.49,184.594 319.619,184.562 319.876,184.497 320.391,184.354 320.424,184.345 320.456,184.336 320.52,184.317 320.649,184.278 320.906,184.197 321.421,184.024 321.453,184.013 321.485,184.002 321.548,183.979 321.674,183.934 321.926,183.839 322.431,183.64 322.463,183.627 322.494,183.614 322.558,183.588 322.684,183.535 322.936,183.426 323.441,183.196 323.475,183.18 323.51,183.164 323.578,183.131 323.715,183.065 323.989,182.93 324.537,182.646 325.632,182.023 325.664,182.004 325.696,181.984 325.76,181.946 325.888,181.867 326.143,181.707 326.654,181.375 327.677,180.663 327.711,180.638 327.746,180.612 327.815,180.561 327.954,180.459 328.231,180.249 328.785,179.816 329.892,178.892 332.068,176.844 334.097,174.652 336.297,171.959 338.352,169.141 340.365,166.088 342.55,162.441 344.589,158.718 346.799,154.327 348.968,149.647 350.992,144.946 353.186,139.473 355.235,134.006 357.454,127.684 359.633,121.065 361.666,114.517 363.87,107.001 365.928,99.5852 367.945,91.9358 370.134,83.205 372.176,74.6446 374.39,64.9089 376.563,54.8797 378.59,45.0975 380.788,34.0149 382.84,23.217 384.851,12.2012 386.115,5 "
         id="polyline17"
         style="fill:none;stroke:#3f3d99;stroke-width:1.5625;stroke-opacity:1;stroke-miterlimit:4;stroke-dasharray:none" />
    </g>
  </g>
  <defs
     id="defs19" />
</svg>
