<?xml version="1.0" encoding="utf-8"?>
<!-- Generator: Adobe Illustrator 19.1.0, SVG Export Plug-In . SVG Version: 6.00 Build 0)  -->
<svg version="1.1" id="Layer_1" xmlns="http://www.w3.org/2000/svg" xmlns:xlink="http://www.w3.org/1999/xlink" x="0px" y="0px"
	 width="990.9px" height="494.7px" viewBox="0 0 990.9 494.7" enable-background="new 0 0 990.9 494.7" xml:space="preserve">
<rect x="691.4" y="24.3" fill="#FFFFFF" stroke="#000000" stroke-miterlimit="10" width="144.4" height="434.9"/>
<line fill="none" stroke="#000000" stroke-width="3" stroke-miterlimit="10" x1="910.4" y1="459.7" x2="116.4" y2="459.7"/>
<line fill="none" stroke="#000000" stroke-width="3" stroke-miterlimit="10" x1="115.9" y1="460.2" x2="115.9" y2="392.2"/>
<line fill="none" stroke="#000000" stroke-width="3" stroke-miterlimit="10" x1="115.9" y1="392.2" x2="691.4" y2="24.3"/>
<g>
	<g>
		<line fill="none" stroke="#000000" stroke-width="3" stroke-miterlimit="10" x1="115.4" y1="392.7" x2="121.4" y2="392.7"/>
		
			<line fill="none" stroke="#000000" stroke-width="3" stroke-miterlimit="10" stroke-dasharray="12,12" x1="133.4" y1="392.7" x2="675.4" y2="392.7"/>
		<line fill="none" stroke="#000000" stroke-width="3" stroke-miterlimit="10" x1="681.4" y1="392.7" x2="687.4" y2="392.7"/>
	</g>
</g>
<line fill="none" stroke="#000000" stroke-width="3" stroke-miterlimit="10" x1="691.4" y1="24.3" x2="746.9" y2="0.5"/>
<line fill="none" stroke="#000000" stroke-width="3" stroke-miterlimit="10" x1="835.8" y1="24.3" x2="862.8" y2="0.5"/>
<line fill="none" stroke="#000000" stroke-width="3" stroke-miterlimit="10" x1="747.4" y1="0.7" x2="862.4" y2="0.7"/>
<line fill="none" stroke="#000000" stroke-width="3" stroke-miterlimit="10" x1="862.4" y1="0.7" x2="862.8" y2="396.5"/>
<line fill="none" stroke="#000000" stroke-width="3" stroke-miterlimit="10" x1="862.8" y1="396.5" x2="835.8" y2="459.2"/>
<rect x="691.4" y="24.3" fill="#9DFF8B" stroke="#000000" stroke-width="3" stroke-miterlimit="10" width="144.4" height="434.9"/>
<g>
	<g>
		<path d="M353.5,472.1c6.6,4.8,11.8,11,15.5,18.2c0.9,1.7,3.5,0.2,2.6-1.5c-3.9-7.7-9.6-14.2-16.6-19.3
			C353.5,468.4,352,471,353.5,472.1L353.5,472.1z"/>
	</g>
</g>
<g>
	<g>
		<path d="M371.8,468.7c-5.1,8.1-10.4,16-15.9,23.8c-1.1,1.6,1.5,3.1,2.6,1.5c5.5-7.8,10.8-15.7,15.9-23.8
			C375.4,468.6,372.8,467.1,371.8,468.7L371.8,468.7z"/>
	</g>
</g>
<g>
	<g>
		<path d="M89.2,414c-0.4,12.1-0.2,24.2,0.8,36.3c1-0.1,2-0.3,2.9-0.4c-0.6-3.9-0.5-7.8,0.4-11.7c0.6-2.4,4.1-13.7,9.1-7.3
			c1.8,2.3,1.6,6.9,1.6,9.6c0,4-0.8,7.9-2.1,11.7c-0.6,1.8,2.3,2.6,2.9,0.8c2-5.9,5.7-25.8-4.5-27.2c-10.6-1.5-11.3,18.6-10.4,24.8
			c0.2,1.7,3.1,1.3,2.9-0.4c-0.9-12.1-1.2-24.2-0.8-36.3C92.2,412,89.2,412,89.2,414L89.2,414z"/>
	</g>
</g>
<g>
	<g>
		<path d="M203,349c-4.6,7.2-8.6,19.1-2.4,26.5c5.6,6.7,14.6,3.7,18.2-3.4c3.7-7.2,5.2-19.2-0.5-25.8c-4.7-5.4-13.3-4.9-16.1,2
			c-0.7,1.8,2.2,2.6,2.9,0.8c1.7-4.3,7-4.3,10.1-1.7c2.4,2.1,3.5,5.5,3.7,8.6c0.4,5-0.7,12.1-3.7,16.3c-5.8,7.8-14.2,2.4-14.6-6
			c-0.3-5.6,2.1-11.2,5-15.8C206.6,348.9,204.1,347.4,203,349L203,349z"/>
	</g>
</g>
<g>
	<g>
		<path d="M199.3,363.9c5,0,10.1,0,15.1,0c1.9,0,1.9-3,0-3c-5,0-10.1,0-15.1,0C197.4,360.9,197.4,363.9,199.3,363.9L199.3,363.9z"/>
	</g>
</g>
<g>
	<g>
		<path d="M308.6,279.7c8.6,0.2,14.7,13.8,18.3,20.5c4.3,8,7.9,16.4,10.7,25c5.6,17.2,8.2,35.2,8,53.3c0,1.9,3,1.9,3,0
			c0.2-20.6-3.2-41.2-10.4-60.5c-3.3-8.9-7.4-17.5-12.4-25.7c-3.9-6.3-8.8-15.4-17.2-15.6C306.6,276.6,306.6,279.6,308.6,279.7
			L308.6,279.7z"/>
	</g>
</g>
<path d="M905.9,184.3"/>
<path fill="none" stroke="#000000" stroke-width="3" stroke-miterlimit="10" d="M876.5,192.3c-0.2,5-0.1,9.9,0.1,14.9
	c0.1,2,0.3,4.3,1.9,5.7c1.4,1.3,3.6,1.4,5.4,0.8c3.9-1.2,6.7-4.9,7.8-8.9c1.1-4,0.8-8.1,0.5-12.2c0.4,12,0.8,24-0.6,36
	c-0.3,3-0.8,6.2-2.7,8.6c-2.6,3.4-7.9,4.4-11.6,2.3s-5.4-7.3-3.7-11.3c0.9-2.1,2.6-3.8,4.2-5.4c7.3-7.2,15-14.1,23-20.6"/>
<line fill="none" stroke="#000000" stroke-width="3" stroke-miterlimit="10" x1="835.4" y1="23.7" x2="912.4" y2="23.7"/>
<path fill="none" stroke="#000000" stroke-width="3" stroke-miterlimit="10" d="M953.4,458.7"/>
<path fill="none" stroke="#000000" stroke-width="3" stroke-miterlimit="10" d="M838.4,458.7"/>
<line fill="none" stroke="#000000" stroke-width="3" stroke-miterlimit="10" x1="884.6" y1="252.5" x2="884.8" y2="460.5"/>
<line fill="none" stroke="#000000" stroke-width="3" stroke-miterlimit="10" x1="885.4" y1="24.7" x2="885.5" y2="174.7"/>
<path fill="none" stroke="#000000" stroke-width="3" stroke-miterlimit="10" d="M962.5,192.3c-0.2,5-0.1,9.9,0.1,14.9
	c0.1,2,0.3,4.3,1.9,5.7c1.4,1.3,3.6,1.4,5.4,0.8c3.9-1.2,6.7-4.9,7.8-8.9c1.1-4,0.8-8.1,0.5-12.2c0.4,12,0.8,24-0.6,36
	c-0.3,3-0.8,6.2-2.7,8.6c-2.6,3.4-7.9,4.4-11.6,2.3s-5.4-7.3-3.7-11.3c0.9-2.1,2.6-3.8,4.2-5.4c7.3-7.2,15-14.1,23-20.6"/>
<g>
	<g>
		<path d="M292,348c-4.6,7.2-8.6,19.1-2.4,26.5c5.6,6.7,14.6,3.7,18.2-3.4c3.7-7.2,5.2-19.2-0.5-25.8c-4.7-5.4-13.3-4.9-16.1,2
			c-0.7,1.8,2.2,2.6,2.9,0.8c1.7-4.3,7-4.3,10.1-1.7c2.4,2.1,3.5,5.5,3.7,8.6c0.4,5-0.7,12.1-3.7,16.3c-5.8,7.8-14.2,2.4-14.6-6
			c-0.3-5.6,2.1-11.2,5-15.8C295.6,347.9,293.1,346.4,292,348L292,348z"/>
	</g>
</g>
<g>
	<g>
		<path d="M288.3,362.9c5,0,10.1,0,15.1,0c1.9,0,1.9-3,0-3c-5,0-10.1,0-15.1,0C286.4,359.9,286.4,362.9,288.3,362.9L288.3,362.9z"/>
	</g>
</g>
<text transform="matrix(1 0 0 1 223.5077 375.9744)" font-family="'MyriadPro-Regular'" font-size="48px">+∆</text>
<text transform="matrix(1 0 0 1 901.7083 216.3838)" font-family="'MyriadPro-Regular'" font-size="48px">+∆</text>
<text transform="matrix(1 0 0 1 373.0688 494.6999)" font-family="'MyriadPro-Regular'" font-size="48px">+∆</text>
<g>
	<g>
		<path d="M430.5,471.1c6.6,4.8,11.8,11,15.5,18.2c0.9,1.7,3.5,0.2,2.6-1.5c-3.9-7.7-9.6-14.2-16.6-19.3
			C430.5,467.4,429,470,430.5,471.1L430.5,471.1z"/>
	</g>
</g>
<g>
	<g>
		<path d="M448.8,467.7c-5.1,8.1-10.4,16-15.9,23.8c-1.1,1.6,1.5,3.1,2.6,1.5c5.5-7.8,10.8-15.7,15.9-23.8
			C452.4,467.6,449.8,466.1,448.8,467.7L448.8,467.7z"/>
	</g>
</g>
<text transform="matrix(1 0 0 1 25.4388 452.61)" font-family="'MyriadPro-Regular'" font-size="48px">+∆</text>
<g>
	<g>
		<path d="M4.2,415c-0.4,12.1-0.2,24.2,0.8,36.3c1-0.1,2-0.3,2.9-0.4c-0.6-3.9-0.5-7.8,0.4-11.7c0.6-2.4,4.1-13.7,9.1-7.3
			c1.8,2.3,1.6,6.9,1.6,9.6c0,4-0.8,7.9-2.1,11.7c-0.6,1.8,2.3,2.6,2.9,0.8c2-5.9,5.7-25.8-4.5-27.2C4.7,425.4,4.1,445.5,5,451.7
			c0.2,1.7,3.1,1.3,2.9-0.4C7,439.2,6.7,427.1,7.2,415C7.2,413,4.2,413,4.2,415L4.2,415z"/>
	</g>
</g>
</svg>
