<?xml version="1.0" encoding="UTF-8" standalone="no"?>
<svg
   xmlns:dc="http://purl.org/dc/elements/1.1/"
   xmlns:cc="http://creativecommons.org/ns#"
   xmlns:rdf="http://www.w3.org/1999/02/22-rdf-syntax-ns#"
   xmlns:svg="http://www.w3.org/2000/svg"
   xmlns="http://www.w3.org/2000/svg"
   xmlns:sodipodi="http://sodipodi.sourceforge.net/DTD/sodipodi-0.dtd"
   xmlns:inkscape="http://www.inkscape.org/namespaces/inkscape"
   version="1.1"
   id="svg2"
   inkscape:version="0.48.5 r10040"
   width="358.20898"
   height="306.43155"
   sodipodi:docname="u0lim5_ivt2.svg">
  <metadata
     id="metadata156">
    <rdf:RDF>
      <cc:Work
         rdf:about="">
        <dc:format>image/svg+xml</dc:format>
        <dc:type
           rdf:resource="http://purl.org/dc/dcmitype/StillImage" />
      </cc:Work>
    </rdf:RDF>
  </metadata>
  <sodipodi:namedview
     pagecolor="#ffffff"
     bordercolor="#666666"
     borderopacity="1"
     objecttolerance="10"
     gridtolerance="10"
     guidetolerance="10"
     inkscape:pageopacity="0"
     inkscape:pageshadow="2"
     inkscape:window-width="858"
     inkscape:window-height="644"
     id="namedview154"
     showgrid="false"
     fit-margin-top="0"
     fit-margin-left="0"
     fit-margin-right="0"
     fit-margin-bottom="0"
     inkscape:zoom="1"
     inkscape:cx="158.14062"
     inkscape:cy="140.25044"
     inkscape:window-x="179"
     inkscape:window-y="252"
     inkscape:window-maximized="0"
     inkscape:current-layer="svg2" />
  <g
     transform="translate(-66,-5)"
     id="g4">
    <g
       clip-path="url(#cp1)"
       id="g6">
      <clipPath
         id="cp1">
        <polygon
           points="426,5 66,5 66,315 426,315 "
           id="polygon9" />
      </clipPath>
      <ellipse
         cx="163"
         cy="167"
         rx="4.44875"
         ry="4.44875"
         id="ellipse11"
         d="m 167.44875,167 c 0,2.45698 -1.99177,4.44875 -4.44875,4.44875 -2.45698,0 -4.44875,-1.99177 -4.44875,-4.44875 0,-2.45698 1.99177,-4.44875 4.44875,-4.44875 2.45698,0 4.44875,1.99177 4.44875,4.44875 z"
         sodipodi:cx="163"
         sodipodi:cy="167"
         sodipodi:rx="4.44875"
         sodipodi:ry="4.44875"
         style="fill:#ff0000;stroke:none" />
      <ellipse
         cx="357"
         cy="37"
         rx="4.44875"
         ry="4.44875"
         id="ellipse13"
         d="m 361.44875,37 c 0,2.456977 -1.99177,4.44875 -4.44875,4.44875 -2.45698,0 -4.44875,-1.991773 -4.44875,-4.44875 0,-2.456977 1.99177,-4.44875 4.44875,-4.44875 2.45698,0 4.44875,1.991773 4.44875,4.44875 z"
         sodipodi:cx="357"
         sodipodi:cy="37"
         sodipodi:rx="4.44875"
         sodipodi:ry="4.44875"
         style="fill:#ff0000;stroke:none" />
      <polyline
         points="66.1,102.164 69.5929,102.164 73.0858,102.164 80.6593,102.164 87.7308,102.164 94.6637,102.164 102.184,102.164 109.203,102.164 116.809,102.164 124.276,102.164 131.242,102.164 138.795,102.164 145.847,102.164 152.759,102.164 160.259,102.164 167.258,102.164 174.844,102.164 182.291,102.164 189.236,102.164 196.769,102.164 203.8,102.164 211.419,102.164 218.899,102.164 225.877,102.164 233.443,102.164 240.507,102.164 247.432,102.164 254.944,102.164 261.955,102.164 269.554,102.164 277.014,102.164 283.971,102.164 291.517,102.164 298.56,102.164 305.465,102.164 312.958,102.164 319.948,102.164 327.527,102.164 334.603,102.164 341.541,102.164 349.066,102.164 356.089,102.164 363.7,102.164 371.172,102.164 378.143,102.164 385.701,102.164 392.757,102.164 399.674,102.164 407.179,102.164 414.182,102.164 418.091,102.164 422,102.164 "
         id="polyline15"
         style="fill:none;stroke:#0000ff;stroke-width:2.5;stroke-opacity:1;stroke-dasharray:5,5;stroke-miterlimit:4;stroke-dashoffset:0" />
      <polyline
         points="163.164,296.291 163.164,292.291 "
         id="polyline17"
         style="fill:none;stroke:#000000;stroke-width:0.2px;stroke-opacity:1" />
    </g>
    <g
       transform="translate(160.16364,299.29091)"
       clip-path="url(#cp2)"
       id="g19">
      <clipPath
         id="cp2">
        <polygon
           points="6.83636,-1.29091 -1.16364,-1.29091 -1.16364,15.7091 6.83636,15.7091 "
           id="polygon22" />
      </clipPath>
      <text
         x="0"
         y="12"
         font-size="12px"
         id="text24"
         style="font-size:12px;fill:#000000;font-family:Times New Roman">1</text>
    </g>
    <g
       clip-path="url(#cp3)"
       id="g26">
      <clipPath
         id="cp3">
        <polygon
           points="426,5 66,5 66,315 426,315 "
           id="polygon29" />
      </clipPath>
      <polyline
         points="227.873,296.291 227.873,292.291 "
         id="polyline31"
         style="fill:none;stroke:#000000;stroke-width:0.2px;stroke-opacity:1" />
    </g>
    <g
       transform="translate(224.87273,299.29091)"
       clip-path="url(#cp4)"
       id="g33">
      <clipPath
         id="cp4">
        <polygon
           points="7.12727,-1.29091 -0.872727,-1.29091 -0.872727,15.7091 7.12727,15.7091 "
           id="polygon36" />
      </clipPath>
      <text
         x="0"
         y="12"
         font-size="12px"
         id="text38"
         style="font-size:12px;fill:#000000;font-family:Times New Roman">2</text>
    </g>
    <g
       clip-path="url(#cp5)"
       id="g40">
      <clipPath
         id="cp5">
        <polygon
           points="426,5 66,5 66,315 426,315 "
           id="polygon43" />
      </clipPath>
      <polyline
         points="292.582,296.291 292.582,292.291 "
         id="polyline45"
         style="fill:none;stroke:#000000;stroke-width:0.2px;stroke-opacity:1" />
    </g>
    <g
       transform="translate(289.58182,299.29091)"
       clip-path="url(#cp6)"
       id="g47">
      <clipPath
         id="cp6">
        <polygon
           points="7.41818,-1.29091 -0.581818,-1.29091 -0.581818,15.7091 7.41818,15.7091 "
           id="polygon50" />
      </clipPath>
      <text
         x="0"
         y="12"
         font-size="12px"
         id="text52"
         style="font-size:12px;fill:#000000;font-family:Times New Roman">3</text>
    </g>
    <g
       clip-path="url(#cp7)"
       id="g54">
      <clipPath
         id="cp7">
        <polygon
           points="426,5 66,5 66,315 426,315 "
           id="polygon57" />
      </clipPath>
      <polyline
         points="357.291,296.291 357.291,292.291 "
         id="polyline59"
         style="fill:none;stroke:#000000;stroke-width:0.2px;stroke-opacity:1" />
    </g>
    <g
       transform="translate(354.29091,299.29091)"
       clip-path="url(#cp8)"
       id="g61">
      <clipPath
         id="cp8">
        <polygon
           points="6.70909,-1.29091 -1.29091,-1.29091 -1.29091,15.7091 6.70909,15.7091 "
           id="polygon64" />
      </clipPath>
      <text
         x="0"
         y="12"
         font-size="12px"
         id="text66"
         style="font-size:12px;fill:#000000;font-family:Times New Roman">4</text>
    </g>
    <g
       clip-path="url(#cp9)"
       id="g68">
      <clipPath
         id="cp9">
        <polygon
           points="426,5 66,5 66,315 426,315 "
           id="polygon71" />
      </clipPath>
      <polyline
         points="422,296.291 422,292.291 "
         id="polyline73"
         style="fill:none;stroke:#000000;stroke-width:0.2px;stroke-opacity:1" />
    </g>
    <g
       transform="translate(419,299.29091)"
       clip-path="url(#cp10)"
       id="g75">
      <clipPath
         id="cp10">
        <polygon
           points="7,-1.29091 -1,-1.29091 -1,15.7091 7,15.7091 "
           id="polygon78" />
      </clipPath>
      <text
         x="0"
         y="12"
         font-size="12px"
         id="text80"
         style="font-size:12px;fill:#000000;font-family:Times New Roman">5</text>
    </g>
    <g
       clip-path="url(#cp11)"
       id="g82"
       style="stroke-width:0.625;stroke-miterlimit:4;stroke-dasharray:none">
      <clipPath
         id="cp11">
        <polygon
           points="426,5 66,5 66,315 426,315 "
           id="polygon85" />
      </clipPath>
      <polyline
         points="66.1,296.291 422,296.291 "
         id="polyline87"
         style="fill:none;stroke:#000000;stroke-width:0.625;stroke-opacity:1;stroke-miterlimit:4;stroke-dasharray:none" />
    </g>
    <g
       clip-path="url(#cp12)"
       id="g89">
      <clipPath
         id="cp12">
        <polygon
           points="426,5 66,5 66,315 426,315 "
           id="polygon92" />
      </clipPath>
      <polyline
         points="98.4545,231.582 102.455,231.582 "
         id="polyline94"
         style="fill:none;stroke:#000000;stroke-width:0.2px;stroke-opacity:1" />
    </g>
    <g
       transform="translate(89.454545,224.08182)"
       clip-path="url(#cp13)"
       id="g96">
      <clipPath
         id="cp13">
        <polygon
           points="6.54545,-1.08182 -1.45455,-1.08182 -1.45455,15.9182 6.54545,15.9182 "
           id="polygon99" />
      </clipPath>
      <text
         x="0"
         y="12"
         font-size="12px"
         id="text101"
         style="font-size:12px;fill:#000000;font-family:Times New Roman">1</text>
    </g>
    <g
       clip-path="url(#cp14)"
       id="g103">
      <clipPath
         id="cp14">
        <polygon
           points="426,5 66,5 66,315 426,315 "
           id="polygon106" />
      </clipPath>
      <polyline
         points="98.4545,166.873 102.455,166.873 "
         id="polyline108"
         style="fill:none;stroke:#000000;stroke-width:0.2px;stroke-opacity:1" />
    </g>
    <g
       transform="translate(89.454545,159.37273)"
       clip-path="url(#cp15)"
       id="g110">
      <clipPath
         id="cp15">
        <polygon
           points="6.54545,-1.37273 -1.45455,-1.37273 -1.45455,15.6273 6.54545,15.6273 "
           id="polygon113" />
      </clipPath>
      <text
         x="0"
         y="12"
         font-size="12px"
         id="text115"
         style="font-size:12px;fill:#000000;font-family:Times New Roman">2</text>
    </g>
    <g
       clip-path="url(#cp16)"
       id="g117">
      <clipPath
         id="cp16">
        <polygon
           points="426,5 66,5 66,315 426,315 "
           id="polygon120" />
      </clipPath>
      <polyline
         points="98.4545,102.164 102.455,102.164 "
         id="polyline122"
         style="fill:none;stroke:#000000;stroke-width:0.2px;stroke-opacity:1" />
    </g>
    <g
       transform="translate(89.454545,94.663636)"
       clip-path="url(#cp17)"
       id="g124">
      <clipPath
         id="cp17">
        <polygon
           points="6.54545,-0.663636 -1.45455,-0.663636 -1.45455,16.3364 6.54545,16.3364 "
           id="polygon127" />
      </clipPath>
      <text
         x="0"
         y="12"
         font-size="12px"
         id="text129"
         style="font-size:12px;fill:#000000;font-family:Times New Roman">3</text>
    </g>
    <g
       clip-path="url(#cp18)"
       id="g131">
      <clipPath
         id="cp18">
        <polygon
           points="426,5 66,5 66,315 426,315 "
           id="polygon134" />
      </clipPath>
      <polyline
         points="98.4545,37.4545 102.455,37.4545 "
         id="polyline136"
         style="fill:none;stroke:#000000;stroke-width:0.2px;stroke-opacity:1" />
    </g>
    <g
       transform="translate(89.454545,29.954545)"
       clip-path="url(#cp19)"
       id="g138">
      <clipPath
         id="cp19">
        <polygon
           points="6.54545,-0.954545 -1.45455,-0.954545 -1.45455,16.0455 6.54545,16.0455 "
           id="polygon141" />
      </clipPath>
      <text
         x="0"
         y="12"
         font-size="12px"
         id="text143"
         style="font-size:12px;fill:#000000;font-family:Times New Roman">4</text>
    </g>
    <g
       clip-path="url(#cp20)"
       id="g145"
       style="stroke-width:0.625;stroke-miterlimit:4;stroke-dasharray:none">
      <clipPath
         id="cp20">
        <polygon
           points="426,5 66,5 66,315 426,315 "
           id="polygon148" />
      </clipPath>
      <polyline
         points="98.4545,296.291 98.4545,5.1 "
         id="polyline150"
         style="fill:none;stroke:#000000;stroke-width:0.625;stroke-opacity:1;stroke-miterlimit:4;stroke-dasharray:none" />
    </g>
  </g>
  <defs
     id="defs152" />
  <text
     xml:space="preserve"
     style="font-size:40px;font-style:normal;font-variant:normal;font-weight:normal;font-stretch:normal;line-height:125%;letter-spacing:0px;word-spacing:0px;fill:#000000;fill-opacity:1;stroke:none;font-family:Verdana;-inkscape-font-specification:Verdana"
     x="61.357422"
     y="192.25186"
     id="text3905"
     sodipodi:linespacing="125%"><tspan
       sodipodi:role="line"
       id="tspan3907"
       x="61.357422"
       y="192.25186"
       style="font-size:28px;fill:#ff0000">(1,2)</tspan></text>
  <text
     xml:space="preserve"
     style="font-size:40px;font-style:normal;font-variant:normal;font-weight:normal;font-stretch:normal;line-height:125%;letter-spacing:0px;word-spacing:0px;fill:#000000;fill-opacity:1;stroke:none;font-family:Verdana;-inkscape-font-specification:Verdana"
     x="254.35742"
     y="61.251862"
     id="text3909"
     sodipodi:linespacing="125%"><tspan
       sodipodi:role="line"
       id="tspan3911"
       x="254.35742"
       y="61.251862"
       style="font-size:28px;fill:#ff0000">(4,4)</tspan></text>
  <text
     xml:space="preserve"
     style="font-size:40px;font-style:normal;font-variant:normal;font-weight:normal;font-stretch:normal;line-height:125%;letter-spacing:0px;word-spacing:0px;fill:#000000;fill-opacity:1;stroke:none;font-family:Verdana;-inkscape-font-specification:Verdana"
     x="173.43066"
     y="122.82803"
     id="text3901"
     sodipodi:linespacing="125%"><tspan
       sodipodi:role="line"
       id="tspan3903"
       x="173.43066"
       y="122.82803"
       style="font-size:28px;fill:#0000ff">y=3</tspan></text>
</svg>
